{
.appVersion = "1277";
copyright = "Copyright 2010 Google Inc. All Rights Reserved.";
customParameters = (
{
name = glyphOrder;
value = (
.notdef,
null,
nonmarkingreturn,
space,
exclam,
quotedbl,
numbersign,
dollar,
percent,
ampersand,
quotesingle,
parenleft,
parenright,
asterisk,
plus,
comma,
hyphen,
period,
slash,
zero,
one,
two,
three,
four,
five,
six,
seven,
eight,
nine,
colon,
semicolon,
less,
equal,
greater,
question,
at,
A,
B,
C,
D,
E,
F,
G,
H,
I,
J,
K,
L,
M,
N,
O,
P,
Q,
R,
S,
T,
U,
V,
W,
X,
Y,
Z,
bracketleft,
backslash,
bracketright,
asciicircum,
underscore,
grave,
a,
b,
c,
d,
e,
f,
g,
h,
i,
j,
k,
l,
m,
n,
o,
p,
q,
r,
s,
t,
u,
v,
w,
x,
y,
z,
braceleft,
bar,
braceright,
asciitilde,
Adieresis,
Aring,
Ccedilla,
Eacute,
Ntilde,
Odieresis,
Udieresis,
aacute,
agrave,
acircumflex,
adieresis,
atilde,
aring,
ccedilla,
eacute,
egrave,
ecircumflex,
edieresis,
iacute,
igrave,
icircumflex,
idieresis,
ntilde,
oacute,
ograve,
ocircumflex,
odieresis,
otilde,
uacute,
ugrave,
ucircumflex,
udieresis,
dagger,
degree,
cent,
sterling,
section,
bullet,
paragraph,
germandbls,
registered,
copyright,
trademark,
acute,
dieresis,
notequal,
AE,
Oslash,
infinity,
plusminus,
lessequal,
greaterequal,
yen,
uni00B5,
partialdiff,
summation,
product,
integral,
ordfeminine,
ordmasculine,
uni2126,
ae,
oslash,
questiondown,
exclamdown,
logicalnot,
radical,
florin,
approxequal,
uni2206,
guillemotleft,
guillemotright,
ellipsis,
Agrave,
Atilde,
Otilde,
OE,
oe,
endash,
emdash,
quotedblleft,
quotedblright,
quoteleft,
quoteright,
divide,
lozenge,
ydieresis,
Ydieresis,
fraction,
Euro,
guilsinglleft,
guilsinglright,
uniFB01,
uniFB02,
daggerdbl,
periodcentered,
quotesinglbase,
quotedblbase,
perthousand,
Acircumflex,
Ecircumflex,
Aacute,
Edieresis,
Egrave,
Iacute,
Icircumflex,
Idieresis,
Igrave,
Oacute,
Ocircumflex,
Ograve,
Uacute,
Ucircumflex,
Ugrave,
dotlessi,
circumflex,
tilde,
uni02C9,
breve,
dotaccent,
ring,
cedilla,
hungarumlaut,
ogonek,
caron,
Lslash,
lslash,
Scaron,
scaron,
Zcaron,
zcaron,

glyphs = (
{
glyphname = .notdef;
lastChange = "2019-12-20 16:13:00 +0000";
layers = (
{
layerId = "E3E67A92-B1FB-4433-B88A-D288516649AC";
paths = (
{
closed = 1;
nodes = (
"234 0 LINE",
"1359 0 LINE",
"1359 1409 LINE",
"234 1409 LINE"
);
},
{
closed = 1;
nodes = (
"1283 1333 LINE",
"1283 76 LINE",
"310 76 LINE",
"310 1333 LINE"
);
}
);
width = 1593;
}
);
note = .notdef;
},
{
glyphname = exclam;
lastChange = "2019-12-18 23:13:52 +0000";
layers = (
{
layerId = "E3E67A92-B1FB-4433-B88A-D288516649AC";
paths = (
{
closed = 1;
nodes = (
"461 143 OFFCURVE",
"391 213 OFFCURVE",
"340 213 QCURVE SMOOTH",
"289 213 OFFCURVE",
"219 143 OFFCURVE",
"219 92 QCURVE SMOOTH",
"219 43 OFFCURVE",
"288 -29 OFFCURVE",
"340 -29 QCURVE SMOOTH",
"392 -29 OFFCURVE",
"461 43 OFFCURVE",
"461 92 QCURVE SMOOTH"
);
},
{
closed = 1;
nodes = (
"293 389 LINE",
"387 389 LINE",
"449 1341 LINE",
"231 1341 LINE"
);
}
);
width = 682;
}
);
note = exclam;
unicode = 0021;
},
{
glyphname = quotedbl;
lastChange = "2019-12-18 23:13:52 +0000";
layers = (
{
layerId = "E3E67A92-B1FB-4433-B88A-D288516649AC";
paths = (
{
closed = 1;
nodes = (
"573 860 LINE",
"647 860 LINE",
"709 1341 LINE",
"512 1341 LINE"
);
},
{
closed = 1;
nodes = (
"188 860 LINE",
"262 860 LINE",
"324 1341 LINE",
"127 1341 LINE"
);
}
);
width = 836;
}
);
note = quotedbl;
unicode = 0022;
},
{
glyphname = numbersign;
lastChange = "2019-12-18 23:13:52 +0000";
layers = (
{
layerId = "E3E67A92-B1FB-4433-B88A-D288516649AC";
paths = (
{
closed = 1;
nodes = (
"748 524 LINE",
"805 831 LINE",
"987 831 LINE",
"987 934 LINE",
"823 934 LINE",
"899 1341 LINE",
"795 1341 LINE",
"719 934 LINE",
"410 934 LINE",
"485 1341 LINE",
"381 1341 LINE",
"305 934 LINE",
"37 934 LINE",
"37 831 LINE",
"287 831 LINE",
"229 524 LINE",
"37 524 LINE",
"37 422 LINE",
"209 422 LINE",
"131 0 LINE",
"236 0 LINE",
"313 422 LINE",
"623 422 LINE",
"545 0 LINE",
"649 0 LINE",
"727 422 LINE",
"987 422 LINE",
"987 524 LINE"
);
},
{
closed = 1;
nodes = (
"391 831 LINE",
"700 831 LINE",
"643 524 LINE",
"334 524 LINE"
);
}
);
width = 1024;
}
);
note = numbersign;
unicode = 0023;
},
{
glyphname = dollar;
lastChange = "2019-12-18 23:13:52 +0000";
layers = (
{
layerId = "E3E67A92-B1FB-4433-B88A-D288516649AC";
paths = (
{
closed = 1;
nodes = (
"481 -156 LINE",
"563 -156 LINE",
"563 -16 LINE",
"746 -3 OFFCURVE",
"961 212 OFFCURVE",
"961 387 QCURVE SMOOTH",
"961 521 OFFCURVE",
"823 700 OFFCURVE",
"658 761 QCURVE SMOOTH",
"563 795 LINE",
"563 1272 LINE",
"625 1268 OFFCURVE",
"746 1226 OFFCURVE",
"776 1198 QCURVE",
"805 1034 LINE",
"870 1034 LINE",
"870 1313 LINE",
"716 1350 OFFCURVE",
"563 1356 QCURVE",
"563 1483 LINE",
"481 1483 LINE",
"481 1354 LINE",
"311 1340 OFFCURVE",
"106 1158 OFFCURVE",
"106 1014 QCURVE SMOOTH",
"106 952 OFFCURVE",
"135 851 OFFCURVE",
"190 773 OFFCURVE",
"266 715 OFFCURVE",
"362 668 OFFCURVE",
"481 627 QCURVE",
"481 61 LINE",
"392 66 OFFCURVE",
"219 139 OFFCURVE",
"188 180 QCURVE",
"154 371 LINE",
"88 371 LINE",
"88 51 LINE",
"143 26 OFFCURVE",
"374 -18 OFFCURVE",
"481 -20 QCURVE"
);
},
{
closed = 1;
nodes = (
"791 215 OFFCURVE",
"673 83 OFFCURVE",
"563 66 QCURVE",
"563 596 LINE",
"694 546 OFFCURVE",
"791 424 OFFCURVE",
"791 330 QCURVE SMOOTH"
);
},
{
closed = 1;
nodes = (
"274 1149 OFFCURVE",
"381 1255 OFFCURVE",
"481 1268 QCURVE",
"481 825 LINE",
"387 864 OFFCURVE",
"313 925 OFFCURVE",
"274 1008 OFFCURVE",
"274 1067 QCURVE SMOOTH"
);
}
);
width = 1024;
}
);
note = dollar;
unicode = 0024;
},
{
glyphname = percent;
lastChange = "2019-12-18 23:13:52 +0000";
layers = (
{
layerId = "E3E67A92-B1FB-4433-B88A-D288516649AC";
paths = (
{
closed = 1;
nodes = (
"1389 1362 LINE",
"1278 1362 LINE",
"330 -20 LINE",
"440 -20 LINE"
);
},
{
closed = 1;
nodes = (
"721 1178 OFFCURVE",
"556 1362 OFFCURVE",
"397 1362 QCURVE SMOOTH",
"70 1362 OFFCURVE",
"70 995 QCURVE SMOOTH",
"70 813 OFFCURVE",
"230 623 OFFCURVE",
"391 623 QCURVE SMOOTH",
"721 623 OFFCURVE",
"721 995 QCURVE SMOOTH"
);
},
{
closed = 1;
nodes = (
"565 839 OFFCURVE",
"481 696 OFFCURVE",
"391 696 QCURVE SMOOTH",
"305 696 OFFCURVE",
"225 831 OFFCURVE",
"225 995 QCURVE SMOOTH",
"225 1155 OFFCURVE",
"304 1288 OFFCURVE",
"391 1288 QCURVE SMOOTH",
"482 1288 OFFCURVE",
"565 1147 OFFCURVE",
"565 995 QCURVE SMOOTH"
);
},
{
closed = 1;
nodes = (
"1636 529 OFFCURVE",
"1472 713 OFFCURVE",
"1313 713 QCURVE SMOOTH",
"1147 713 OFFCURVE",
"985 524 OFFCURVE",
"985 346 QCURVE SMOOTH",
"985 163 OFFCURVE",
"1146 -27 OFFCURVE",
"1307 -27 QCURVE SMOOTH",
"1636 -27 OFFCURVE",
"1636 346 QCURVE SMOOTH"
);
},
{
closed = 1;
nodes = (
"1481 190 OFFCURVE",
"1397 47 OFFCURVE",
"1307 47 QCURVE SMOOTH",
"1221 47 OFFCURVE",
"1141 182 OFFCURVE",
"1141 346 QCURVE SMOOTH",
"1141 506 OFFCURVE",
"1220 639 OFFCURVE",
"1307 639 QCURVE SMOOTH",
"1398 639 OFFCURVE",
"1481 498 OFFCURVE",
"1481 346 QCURVE SMOOTH"
);
}
);
width = 1706;
}
);
note = percent;
unicode = 0025;
},
{
glyphname = ampersand;
lastChange = "2019-12-18 23:13:52 +0000";
layers = (
{
layerId = "E3E67A92-B1FB-4433-B88A-D288516649AC";
paths = (
{
closed = 1;
nodes = (
"989 1220 OFFCURVE",
"805 1362 OFFCURVE",
"631 1362 QCURVE SMOOTH",
"449 1362 OFFCURVE",
"257 1213 OFFCURVE",
"257 1070 QCURVE SMOOTH",
"257 889 OFFCURVE",
"408 743 QCURVE",
"274 692 OFFCURVE",
"150 593 OFFCURVE",
"78 453 OFFCURVE",
"78 356 QCURVE SMOOTH",
"78 173 OFFCURVE",
"327 -20 OFFCURVE",
"575 -20 QCURVE SMOOTH",
"710 -20 OFFCURVE",
"937 62 OFFCURVE",
"1041 155 QCURVE",
"1212 0 LINE",
"1556 0 LINE",
"1556 53 LINE",
"1391 78 LINE",
"1163 286 LINE",
"1282 462 OFFCURVE",
"1358 727 QCURVE",
"1497 754 LINE",
"1497 807 LINE",
"1040 807 LINE",
"1040 754 LINE",
"1182 727 LINE",
"1176 562 OFFCURVE",
"1079 364 QCURVE",
"657 748 LINE",
"800 804 OFFCURVE",
"922 891 OFFCURVE",
"989 1005 OFFCURVE",
"989 1083 QCURVE SMOOTH"
);
},
{
closed = 1;
nodes = (
"443 66 OFFCURVE",
"274 222 OFFCURVE",
"274 367 QCURVE SMOOTH",
"274 477 OFFCURVE",
"368 631 OFFCURVE",
"473 676 QCURVE",
"972 219 LINE",
"819 66 OFFCURVE",
"602 66 QCURVE SMOOTH"
);
},
{
closed = 1;
nodes = (
"434 1186 OFFCURVE",
"526 1282 OFFCURVE",
"631 1282 QCURVE SMOOTH",
"813 1282 OFFCURVE",
"813 1090 QCURVE SMOOTH",
"813 1016 OFFCURVE",
"770 916 OFFCURVE",
"685 847 OFFCURVE",
"588 811 QCURVE",
"434 927 OFFCURVE",
"434 1090 QCURVE SMOOTH"
);
}
);
width = 1593;
}
);
note = ampersand;
unicode = 0026;
},
{
glyphname = quotesingle;
lastChange = "2019-12-18 23:13:52 +0000";
layers = (
{
layerId = "E3E67A92-B1FB-4433-B88A-D288516649AC";
paths = (
{
closed = 1;
nodes = (
"147 860 LINE",
"221 860 LINE",
"283 1341 LINE",
"86 1341 LINE"
);
}
);
width = 369;
}
);
note = quotesingle;
unicode = 0027;
},
{
glyphname = parenleft;
lastChange = "2019-12-18 23:13:52 +0000";
layers = (
{
layerId = "E3E67A92-B1FB-4433-B88A-D288516649AC";
paths = (
{
closed = 1;
nodes = (
"283 756 OFFCURVE",
"350 1048 OFFCURVE",
"494 1267 OFFCURVE",
"616 1337 QCURVE",
"616 1421 LINE",
"416 1315 OFFCURVE",
"194 1067 OFFCURVE",
"90 732 OFFCURVE",
"90 494 QCURVE SMOOTH",
"90 255 OFFCURVE",
"195 -82 OFFCURVE",
"418 -331 OFFCURVE",
"616 -436 QCURVE",
"616 -352 LINE",
"503 -287 OFFCURVE",
"353 -75 OFFCURVE",
"283 234 OFFCURVE",
"283 494 QCURVE SMOOTH"
);
}
);
width = 682;
}
);
note = parenleft;
unicode = 0028;
},
{
glyphname = parenright;
lastChange = "2019-12-18 23:13:52 +0000";
layers = (
{
layerId = "E3E67A92-B1FB-4433-B88A-D288516649AC";
paths = (
{
closed = 1;
nodes = (
"266 -329 OFFCURVE",
"488 -81 OFFCURVE",
"592 256 OFFCURVE",
"592 494 QCURVE SMOOTH",
"592 732 OFFCURVE",
"488 1067 OFFCURVE",
"266 1314 OFFCURVE",
"66 1421 QCURVE",
"66 1337 LINE",
"188 1267 OFFCURVE",
"332 1048 OFFCURVE",
"399 756 OFFCURVE",
"399 494 QCURVE SMOOTH",
"399 235 OFFCURVE",
"329 -74 OFFCURVE",
"179 -287 OFFCURVE",
"66 -352 QCURVE",
"66 -436 LINE"
);
}
);
width = 682;
}
);
note = parenright;
unicode = 0029;
},
{
glyphname = asterisk;
lastChange = "2019-12-18 23:13:52 +0000";
layers = (
{
layerId = "E3E67A92-B1FB-4433-B88A-D288516649AC";
paths = (
{
closed = 1;
nodes = (
"428 965 LINE",
"100 866 LINE",
"164 723 LINE",
"479 918 LINE",
"436 590 LINE",
"592 590 LINE",
"545 915 LINE",
"862 727 LINE",
"926 868 LINE",
"594 965 LINE",
"926 1063 LINE",
"862 1204 LINE",
"545 1014 LINE",
"592 1341 LINE",
"436 1341 LINE",
"479 1014 LINE",
"164 1208 LINE",
"100 1065 LINE"
);
}
);
width = 1024;
}
);
note = asterisk;
unicode = 002A;
},
{
glyphname = plus;
lastChange = "2019-12-18 23:13:52 +0000";
layers = (
{
layerId = "E3E67A92-B1FB-4433-B88A-D288516649AC";
paths = (
{
closed = 1;
nodes = (
"1055 629 LINE",
"1055 731 LINE",
"629 731 LINE",
"629 1157 LINE",
"526 1157 LINE",
"526 731 LINE",
"102 731 LINE",
"102 629 LINE",
"526 629 LINE",
"526 203 LINE",
"629 203 LINE",
"629 629 LINE"
);
}
);
width = 1155;
}
);
note = plus;
unicode = 002B;
},
{
glyphname = comma;
lastChange = "2019-12-18 23:13:52 +0000";
layers = (
{
layerId = "E3E67A92-B1FB-4433-B88A-D288516649AC";
paths = (
{
closed = 1;
nodes = (
"383 119 OFFCURVE",
"304 211 OFFCURVE",
"240 211 QCURVE SMOOTH",
"187 211 OFFCURVE",
"119 154 OFFCURVE",
"119 100 QCURVE SMOOTH",
"119 36 OFFCURVE",
"187 1 QCURVE SMOOTH",
"224 -18 OFFCURVE",
"254 -50 OFFCURVE",
"254 -70 QCURVE SMOOTH",
"254 -182 OFFCURVE",
"78 -238 QCURVE",
"78 -315 LINE",
"224 -273 OFFCURVE",
"383 -88 OFFCURVE",
"383 49 QCURVE SMOOTH"
);
}
);
width = 512;
}
);
note = comma;
unicode = 002C;
},
{
glyphname = hyphen;
lastChange = "2019-12-18 23:13:52 +0000";
layers = (
{
layerId = "E3E67A92-B1FB-4433-B88A-D288516649AC";
paths = (
{
closed = 1;
nodes = (
"608 406 LINE",
"608 559 LINE",
"76 559 LINE",
"76 406 LINE"
);
}
);
width = 682;
}
);
note = hyphen;
unicode = "002D,00AD";
},
{
glyphname = period;
lastChange = "2019-12-18 23:13:52 +0000";
layers = (
{
layerId = "E3E67A92-B1FB-4433-B88A-D288516649AC";
paths = (
{
closed = 1;
nodes = (
"377 143 OFFCURVE",
"307 213 OFFCURVE",
"256 213 QCURVE SMOOTH",
"205 213 OFFCURVE",
"135 143 OFFCURVE",
"135 92 QCURVE SMOOTH",
"135 43 OFFCURVE",
"204 -29 OFFCURVE",
"256 -29 QCURVE SMOOTH",
"308 -29 OFFCURVE",
"377 43 OFFCURVE",
"377 92 QCURVE SMOOTH"
);
}
);
width = 512;
}
);
note = period;
unicode = 002E;
},
{
glyphname = slash;
lastChange = "2019-12-18 23:13:52 +0000";
layers = (
{
layerId = "E3E67A92-B1FB-4433-B88A-D288516649AC";
paths = (
{
closed = 1;
nodes = (
"569 1350 LINE",
"471 1350 LINE",
"0 -20 LINE",
"100 -20 LINE"
);
}
);
width = 569;
}
);
note = slash;
unicode = 002F;
},
{
glyphname = zero;
lastChange = "2019-12-18 23:13:52 +0000";
layers = (
{
layerId = "E3E67A92-B1FB-4433-B88A-D288516649AC";
paths = (
{
closed = 1;
nodes = (
"946 1013 OFFCURVE",
"726 1362 OFFCURVE",
"514 1362 QCURVE SMOOTH",
"294 1362 OFFCURVE",
"78 1009 OFFCURVE",
"78 676 QCURVE SMOOTH",
"78 336 OFFCURVE",
"294 -20 OFFCURVE",
"506 -20 QCURVE SMOOTH",
"946 -20 OFFCURVE",
"946 676 QCURVE SMOOTH"
);
},
{
closed = 1;
nodes = (
"762 350 OFFCURVE",
"638 59 OFFCURVE",
"506 59 QCURVE SMOOTH",
"378 59 OFFCURVE",
"262 336 OFFCURVE",
"262 676 QCURVE SMOOTH",
"262 1014 OFFCURVE",
"376 1282 OFFCURVE",
"506 1282 QCURVE SMOOTH",
"640 1282 OFFCURVE",
"762 998 OFFCURVE",
"762 676 QCURVE SMOOTH"
);
}
);
width = 1024;
}
);
note = zero;
unicode = 0030;
},
{
glyphname = one;
lastChange = "2019-12-18 23:13:52 +0000";
layers = (
{
layerId = "E3E67A92-B1FB-4433-B88A-D288516649AC";
paths = (
{
closed = 1;
nodes = (
"627 1352 LINE",
"575 1352 LINE",
"184 1130 LINE",
"184 1077 LINE",
"455 1174 LINE",
"455 80 LINE",
"180 53 LINE",
"180 0 LINE",
"901 0 LINE",
"901 53 LINE",
"627 80 LINE"
);
}
);
width = 1024;
}
);
note = one;
unicode = 0031;
},
{
glyphname = two;
lastChange = "2019-12-18 23:13:52 +0000";
layers = (
{
layerId = "E3E67A92-B1FB-4433-B88A-D288516649AC";
paths = (
{
closed = 1;
nodes = (
"911 154 LINE",
"221 154 LINE",
"321 245 OFFCURVE",
"410 321 QCURVE SMOOTH",
"618 498 OFFCURVE",
"798 695 OFFCURVE",
"885 894 OFFCURVE",
"885 1006 QCURVE SMOOTH",
"885 1173 OFFCURVE",
"664 1356 OFFCURVE",
"444 1356 QCURVE SMOOTH",
"317 1356 OFFCURVE",
"135 1313 QCURVE",
"135 1055 LINE",
"201 1055 LINE",
"236 1219 LINE",
"279 1243 OFFCURVE",
"391 1272 OFFCURVE",
"444 1272 QCURVE SMOOTH",
"578 1272 OFFCURVE",
"696 1136 OFFCURVE",
"696 1006 QCURVE SMOOTH",
"696 873 OFFCURVE",
"623 667 OFFCURVE",
"455 473 OFFCURVE",
"276 316 QCURVE SMOOTH",
"90 147 LINE",
"90 0 LINE",
"911 0 LINE"
);
}
);
width = 1024;
}
);
note = two;
unicode = 0032;
},
{
glyphname = three;
lastChange = "2019-12-18 23:13:52 +0000";
layers = (
{
layerId = "E3E67A92-B1FB-4433-B88A-D288516649AC";
paths = (
{
closed = 1;
nodes = (
"944 514 OFFCURVE",
"772 681 OFFCURVE",
"590 702 QCURVE",
"730 722 OFFCURVE",
"883 887 OFFCURVE",
"883 1026 QCURVE SMOOTH",
"883 1356 OFFCURVE",
"453 1356 QCURVE SMOOTH",
"382 1356 OFFCURVE",
"238 1339 OFFCURVE",
"139 1313 QCURVE",
"139 1055 LINE",
"205 1055 LINE",
"240 1219 LINE",
"284 1243 OFFCURVE",
"400 1272 OFFCURVE",
"453 1272 QCURVE SMOOTH",
"581 1272 OFFCURVE",
"698 1149 OFFCURVE",
"698 1014 QCURVE SMOOTH",
"698 884 OFFCURVE",
"590 756 OFFCURVE",
"477 750 QCURVE SMOOTH",
"334 741 LINE",
"334 659 LINE",
"477 651 LINE SMOOTH",
"622 644 OFFCURVE",
"760 507 OFFCURVE",
"760 375 QCURVE SMOOTH",
"760 207 OFFCURVE",
"610 63 OFFCURVE",
"453 63 QCURVE SMOOTH",
"391 63 OFFCURVE",
"248 95 OFFCURVE",
"209 117 QCURVE",
"164 305 LINE",
"98 305 LINE",
"109 23 LINE",
"279 -20 OFFCURVE",
"469 -20 QCURVE SMOOTH",
"696 -20 OFFCURVE",
"944 184 OFFCURVE",
"944 365 QCURVE SMOOTH"
);
}
);
width = 1024;
}
);
note = three;
unicode = 0033;
},
{
glyphname = four;
lastChange = "2019-12-18 23:13:52 +0000";
layers = (
{
layerId = "E3E67A92-B1FB-4433-B88A-D288516649AC";
paths = (
{
closed = 1;
nodes = (
"992 295 LINE",
"992 438 LINE",
"810 438 LINE",
"810 1348 LINE",
"695 1348 LINE",
"40 428 LINE",
"40 295 LINE",
"638 295 LINE",
"638 0 LINE",
"810 0 LINE",
"810 295 LINE"
);
},
{
closed = 1;
nodes = (
"638 438 LINE",
"153 438 LINE",
"633 1113 LINE",
"638 1113 LINE"
);
}
);
width = 1024;
}
);
note = four;
unicode = 0034;
},
{
glyphname = five;
lastChange = "2019-12-18 23:13:52 +0000";
layers = (
{
layerId = "E3E67A92-B1FB-4433-B88A-D288516649AC";
paths = (
{
closed = 1;
nodes = (
"362 784 OFFCURVE",
"254 760 QCURVE",
"254 1188 LINE",
"844 1188 LINE",
"844 1341 LINE",
"164 1341 LINE",
"164 676 LINE",
"260 676 LINE",
"347 700 OFFCURVE",
"438 700 QCURVE SMOOTH",
"556 700 OFFCURVE",
"696 640 OFFCURVE",
"760 513 OFFCURVE",
"760 389 QCURVE SMOOTH",
"760 212 OFFCURVE",
"611 63 OFFCURVE",
"453 63 QCURVE SMOOTH",
"397 63 OFFCURVE",
"274 93 OFFCURVE",
"230 117 QCURVE",
"185 305 LINE",
"119 305 LINE",
"130 23 LINE",
"279 -20 OFFCURVE",
"469 -20 QCURVE SMOOTH",
"698 -20 OFFCURVE",
"944 197 OFFCURVE",
"944 399 QCURVE SMOOTH",
"944 594 OFFCURVE",
"717 784 OFFCURVE",
"485 784 QCURVE SMOOTH"
);
}
);
width = 1024;
}
);
note = five;
unicode = 0035;
},
{
glyphname = six;
lastChange = "2019-12-18 23:13:52 +0000";
layers = (
{
layerId = "E3E67A92-B1FB-4433-B88A-D288516649AC";
paths = (
{
closed = 1;
nodes = (
"963 604 OFFCURVE",
"777 803 OFFCURVE",
"600 803 QCURVE SMOOTH",
"436 803 OFFCURVE",
"273 717 QCURVE",
"281 989 OFFCURVE",
"444 1272 OFFCURVE",
"590 1272 QCURVE SMOOTH",
"635 1272 OFFCURVE",
"747 1245 OFFCURVE",
"780 1227 QCURVE",
"815 1090 LINE",
"881 1090 LINE",
"881 1321 LINE",
"736 1356 OFFCURVE",
"590 1356 QCURVE SMOOTH",
"441 1356 OFFCURVE",
"214 1192 OFFCURVE",
"88 878 OFFCURVE",
"88 662 QCURVE SMOOTH",
"88 332 OFFCURVE",
"327 -20 OFFCURVE",
"553 -20 QCURVE SMOOTH",
"752 -20 OFFCURVE",
"963 207 OFFCURVE",
"963 416 QCURVE SMOOTH"
);
},
{
closed = 1;
nodes = (
"410 59 OFFCURVE",
"272 352 OFFCURVE",
"272 657 QCURVE",
"426 707 OFFCURVE",
"563 707 QCURVE SMOOTH",
"675 707 OFFCURVE",
"778 561 OFFCURVE",
"778 397 QCURVE SMOOTH",
"778 216 OFFCURVE",
"670 59 OFFCURVE",
"549 59 QCURVE SMOOTH"
);
}
);
width = 1024;
}
);
note = six;
unicode = 0036;
},
{
glyphname = seven;
lastChange = "2019-12-18 23:13:52 +0000";
layers = (
{
layerId = "E3E67A92-B1FB-4433-B88A-D288516649AC";
paths = (
{
closed = 1;
nodes = (
"236 1188 LINE",
"825 1188 LINE",
"238 0 LINE",
"367 0 LINE",
"965 1264 LINE",
"965 1341 LINE",
"135 1341 LINE",
"135 1024 LINE",
"201 1024 LINE"
);
}
);
width = 1024;
}
);
note = seven;
unicode = 0037;
},
{
glyphname = eight;
lastChange = "2019-12-18 23:13:52 +0000";
layers = (
{
layerId = "E3E67A92-B1FB-4433-B88A-D288516649AC";
paths = (
{
closed = 1;
nodes = (
"905 1181 OFFCURVE",
"700 1362 OFFCURVE",
"514 1362 QCURVE SMOOTH",
"322 1362 OFFCURVE",
"119 1180 OFFCURVE",
"119 1014 QCURVE SMOOTH",
"119 903 OFFCURVE",
"228 751 OFFCURVE",
"315 711 QCURVE",
"206 670 OFFCURVE",
"78 495 OFFCURVE",
"78 362 QCURVE SMOOTH",
"78 -20 OFFCURVE",
"506 -20 QCURVE SMOOTH",
"732 -20 OFFCURVE",
"946 172 OFFCURVE",
"946 362 QCURVE SMOOTH",
"946 490 OFFCURVE",
"821 669 OFFCURVE",
"707 711 QCURVE",
"798 751 OFFCURVE",
"905 904 OFFCURVE",
"905 1014 QCURVE SMOOTH"
);
},
{
closed = 1;
nodes = (
"766 198 OFFCURVE",
"639 59 OFFCURVE",
"506 59 QCURVE SMOOTH",
"376 59 OFFCURVE",
"258 193 OFFCURVE",
"258 362 QCURVE SMOOTH",
"258 529 OFFCURVE",
"374 666 OFFCURVE",
"506 666 QCURVE SMOOTH",
"641 666 OFFCURVE",
"766 522 OFFCURVE",
"766 362 QCURVE SMOOTH"
);
},
{
closed = 1;
nodes = (
"725 877 OFFCURVE",
"620 754 OFFCURVE",
"508 754 QCURVE SMOOTH",
"399 754 OFFCURVE",
"299 875 OFFCURVE",
"299 1014 QCURVE SMOOTH",
"299 1156 OFFCURVE",
"402 1282 OFFCURVE",
"508 1282 QCURVE SMOOTH",
"617 1282 OFFCURVE",
"725 1152 OFFCURVE",
"725 1014 QCURVE SMOOTH"
);
}
);
width = 1024;
}
);
note = eight;
unicode = 0038;
},
{
glyphname = nine;
lastChange = "2019-12-18 23:13:52 +0000";
layers = (
{
layerId = "E3E67A92-B1FB-4433-B88A-D288516649AC";
paths = (
{
closed = 1;
nodes = (
"66 743 OFFCURVE",
"269 532 OFFCURVE",
"446 532 QCURVE SMOOTH",
"603 532 OFFCURVE",
"755 617 QCURVE",
"746 344 OFFCURVE",
"574 63 OFFCURVE",
"414 63 QCURVE SMOOTH",
"359 63 OFFCURVE",
"251 87 OFFCURVE",
"219 102 QCURVE",
"184 246 LINE",
"119 246 LINE",
"119 14 LINE",
"255 -20 OFFCURVE",
"418 -20 QCURVE SMOOTH",
"666 -20 OFFCURVE",
"940 337 OFFCURVE",
"940 674 QCURVE SMOOTH",
"940 1026 OFFCURVE",
"727 1356 OFFCURVE",
"498 1356 QCURVE SMOOTH",
"292 1356 OFFCURVE",
"66 1134 OFFCURVE",
"66 932 QCURVE SMOOTH"
);
},
{
closed = 1;
nodes = (
"635 1276 OFFCURVE",
"756 989 OFFCURVE",
"756 682 QCURVE",
"625 629 OFFCURVE",
"496 629 QCURVE SMOOTH",
"370 629 OFFCURVE",
"250 775 OFFCURVE",
"250 928 QCURVE SMOOTH",
"250 1276 OFFCURVE",
"500 1276 QCURVE SMOOTH"
);
}
);
width = 1024;
}
);
note = nine;
unicode = 0039;
},
{
glyphname = colon;
lastChange = "2019-12-18 23:13:52 +0000";
layers = (
{
layerId = "E3E67A92-B1FB-4433-B88A-D288516649AC";
paths = (
{
closed = 1;
nodes = (
"403 144 OFFCURVE",
"333 213 OFFCURVE",
"283 213 QCURVE SMOOTH",
"232 213 OFFCURVE",
"162 143 OFFCURVE",
"162 92 QCURVE SMOOTH",
"162 43 OFFCURVE",
"231 -29 OFFCURVE",
"283 -29 QCURVE SMOOTH",
"334 -29 OFFCURVE",
"403 43 OFFCURVE",
"403 92 QCURVE SMOOTH"
);
},
{
closed = 1;
nodes = (
"403 889 OFFCURVE",
"334 961 OFFCURVE",
"283 961 QCURVE SMOOTH",
"231 961 OFFCURVE",
"162 889 OFFCURVE",
"162 840 QCURVE SMOOTH",
"162 789 OFFCURVE",
"232 719 OFFCURVE",
"283 719 QCURVE SMOOTH",
"333 719 OFFCURVE",
"403 789 OFFCURVE",
"403 840 QCURVE SMOOTH"
);
}
);
width = 569;
}
);
note = colon;
unicode = 003A;
},
{
glyphname = semicolon;
lastChange = "2019-12-18 23:13:52 +0000";
layers = (
{
layerId = "E3E67A92-B1FB-4433-B88A-D288516649AC";
paths = (
{
closed = 1;
nodes = (
"403 889 OFFCURVE",
"334 961 OFFCURVE",
"283 961 QCURVE SMOOTH",
"231 961 OFFCURVE",
"162 889 OFFCURVE",
"162 840 QCURVE SMOOTH",
"162 789 OFFCURVE",
"232 719 OFFCURVE",
"283 719 QCURVE SMOOTH",
"333 719 OFFCURVE",
"403 789 OFFCURVE",
"403 840 QCURVE SMOOTH"
);
},
{
closed = 1;
nodes = (
"412 120 OFFCURVE",
"332 211 OFFCURVE",
"268 211 QCURVE SMOOTH",
"216 211 OFFCURVE",
"147 154 OFFCURVE",
"147 100 QCURVE SMOOTH",
"147 35 OFFCURVE",
"215 1 QCURVE SMOOTH",
"251 -17 OFFCURVE",
"283 -49 OFFCURVE",
"283 -70 QCURVE SMOOTH",
"283 -182 OFFCURVE",
"106 -238 QCURVE",
"106 -315 LINE",
"253 -273 OFFCURVE",
"412 -88 OFFCURVE",
"412 49 QCURVE SMOOTH"
);
}
);
width = 569;
}
);
note = semicolon;
unicode = "003B,037E";
},
{
glyphname = less;
lastChange = "2019-12-18 23:13:52 +0000";
layers = (
{
layerId = "E3E67A92-B1FB-4433-B88A-D288516649AC";
paths = (
{
closed = 1;
nodes = (
"1055 186 LINE",
"1055 289 LINE",
"246 680 LINE",
"1055 1071 LINE",
"1055 1174 LINE",
"102 705 LINE",
"102 655 LINE"
);
}
);
width = 1155;
}
);
note = less;
unicode = 003C;
},
{
glyphname = equal;
lastChange = "2019-12-18 23:13:52 +0000";
layers = (
{
layerId = "E3E67A92-B1FB-4433-B88A-D288516649AC";
paths = (
{
closed = 1;
nodes = (
"102 526 LINE",
"102 424 LINE",
"1055 424 LINE",
"1055 526 LINE"
);
},
{
closed = 1;
nodes = (
"102 936 LINE",
"102 834 LINE",
"1055 834 LINE",
"1055 936 LINE"
);
}
);
width = 1155;
}
);
note = equal;
unicode = 003D;
},
{
glyphname = greater;
lastChange = "2019-12-18 23:13:52 +0000";
layers = (
{
layerId = "E3E67A92-B1FB-4433-B88A-D288516649AC";
paths = (
{
closed = 1;
nodes = (
"1057 655 LINE",
"1057 705 LINE",
"104 1174 LINE",
"104 1071 LINE",
"913 680 LINE",
"104 289 LINE",
"104 186 LINE"
);
}
);
width = 1155;
}
);
note = greater;
unicode = 003E;
},
{
glyphname = question;
lastChange = "2019-12-18 23:13:52 +0000";
layers = (
{
layerId = "E3E67A92-B1FB-4433-B88A-D288516649AC";
paths = (
{
closed = 1;
nodes = (
"453 610 LINE",
"510 623 LINE SMOOTH",
"664 655 OFFCURVE",
"825 853 OFFCURVE",
"825 1016 QCURVE SMOOTH",
"825 1356 OFFCURVE",
"401 1356 QCURVE SMOOTH",
"264 1356 OFFCURVE",
"106 1313 QCURVE",
"106 1059 LINE",
"172 1059 LINE",
"207 1223 LINE",
"289 1272 OFFCURVE",
"401 1272 QCURVE SMOOTH",
"535 1272 OFFCURVE",
"641 1151 OFFCURVE",
"641 1004 QCURVE SMOOTH",
"641 870 OFFCURVE",
"563 730 OFFCURVE",
"477 713 QCURVE SMOOTH",
"334 684 LINE",
"360 350 LINE",
"440 350 LINE"
);
},
{
closed = 1;
nodes = (
"530 144 OFFCURVE",
"460 213 OFFCURVE",
"410 213 QCURVE SMOOTH",
"359 213 OFFCURVE",
"289 143 OFFCURVE",
"289 92 QCURVE SMOOTH",
"289 43 OFFCURVE",
"358 -29 OFFCURVE",
"410 -29 QCURVE SMOOTH",
"461 -29 OFFCURVE",
"530 43 OFFCURVE",
"530 92 QCURVE SMOOTH"
);
}
);
width = 909;
}
);
note = question;
unicode = 003F;
},
{
glyphname = at;
lastChange = "2019-12-18 23:13:52 +0000";
layers = (
{
layerId = "E3E67A92-B1FB-4433-B88A-D288516649AC";
paths = (
{
closed = 1;
nodes = (
"1425 -133 LINE",
"1292 -228 OFFCURVE",
"1043 -305 OFFCURVE",
"895 -305 QCURVE SMOOTH",
"695 -305 OFFCURVE",
"401 -134 OFFCURVE",
"246 170 OFFCURVE",
"246 365 QCURVE SMOOTH",
"246 626 OFFCURVE",
"461 1055 OFFCURVE",
"834 1282 OFFCURVE",
"1067 1282 QCURVE SMOOTH",
"1341 1282 OFFCURVE",
"1653 1002 OFFCURVE",
"1653 750 QCURVE SMOOTH",
"1653 596 OFFCURVE",
"1541 306 OFFCURVE",
"1349 143 OFFCURVE",
"1233 143 QCURVE SMOOTH",
"1196 143 OFFCURVE",
"1159 168 OFFCURVE",
"1159 205 QCURVE SMOOTH",
"1159 230 OFFCURVE",
"1174 344 OFFCURVE",
"1182 379 QCURVE SMOOTH",
"1296 909 LINE",
"1248 915 OFFCURVE",
"1210 915 QCURVE SMOOTH",
"1174 915 LINE SMOOTH",
"1044 915 OFFCURVE",
"884 870 OFFCURVE",
"717 747 OFFCURVE",
"606 571 OFFCURVE",
"545 344 OFFCURVE",
"545 225 QCURVE SMOOTH",
"545 134 OFFCURVE",
"624 25 OFFCURVE",
"696 25 QCURVE SMOOTH",
"763 25 OFFCURVE",
"931 114 OFFCURVE",
"1018 201 QCURVE",
"1010 126 OFFCURVE",
"1010 76 QCURVE SMOOTH",
"1010 25 OFFCURVE",
"1075 25 QCURVE SMOOTH",
"1254 25 OFFCURVE",
"1584 227 OFFCURVE",
"1778 562 OFFCURVE",
"1778 752 QCURVE SMOOTH",
"1778 1042 OFFCURVE",
"1409 1364 OFFCURVE",
"1073 1364 QCURVE SMOOTH",
"803 1364 OFFCURVE",
"360 1106 OFFCURVE",
"109 646 OFFCURVE",
"109 362 QCURVE SMOOTH",
"109 144 OFFCURVE",
"296 -200 OFFCURVE",
"639 -389 OFFCURVE",
"864 -389 QCURVE SMOOTH",
"1030 -389 OFFCURVE",
"1317 -294 OFFCURVE",
"1458 -184 QCURVE"
);
},
{
closed = 1;
nodes = (
"1024 274 LINE",
"963 222 OFFCURVE",
"816 160 OFFCURVE",
"760 160 QCURVE SMOOTH",
"680 160 OFFCURVE",
"680 309 QCURVE SMOOTH",
"680 458 OFFCURVE",
"785 722 OFFCURVE",
"960 811 OFFCURVE",
"1090 811 QCURVE",
"1139 807 LINE"
);
}
);
width = 1886;
}
);
note = at;
unicode = 0040;
},
{
glyphname = A;
lastChange = "2019-12-18 23:13:52 +0000";
layers = (
{
layerId = "E3E67A92-B1FB-4433-B88A-D288516649AC";
paths = (
{
closed = 1;
nodes = (
"281 80 LINE",
"416 467 LINE",
"944 467 LINE",
"1077 80 LINE",
"897 53 LINE",
"897 0 LINE",
"1464 0 LINE",
"1464 53 LINE",
"1294 80 LINE",
"819 1352 LINE",
"629 1352 LINE",
"172 80 LINE",
"20 53 LINE",
"20 0 LINE",
"461 0 LINE",
"461 53 LINE"
);
},
{
closed = 1;
nodes = (
"913 557 LINE",
"446 557 LINE",
"676 1208 LINE"
);
}
);
width = 1479;
}
);
note = A;
unicode = 0041;
},
{
glyphname = B;
lastChange = "2019-12-18 23:13:52 +0000";
layers = (
{
layerId = "E3E67A92-B1FB-4433-B88A-D288516649AC";
paths = (
{
closed = 1;
nodes = (
"958 872 OFFCURVE",
"805 744 OFFCURVE",
"643 744 QCURVE SMOOTH",
"424 744 LINE",
"424 1251 LINE",
"631 1251 LINE SMOOTH",
"804 1251 OFFCURVE",
"958 1139 OFFCURVE",
"958 1016 QCURVE SMOOTH"
);
},
{
closed = 1;
nodes = (
"1059 229 OFFCURVE",
"889 84 OFFCURVE",
"718 84 QCURVE SMOOTH",
"562 84 OFFCURVE",
"424 90 QCURVE",
"424 654 LINE",
"664 654 LINE SMOOTH",
"871 654 OFFCURVE",
"1059 523 OFFCURVE",
"1059 382 QCURVE SMOOTH"
);
},
{
closed = 1;
nodes = (
"315 0 LINE",
"743 -6 LINE SMOOTH",
"999 -6 OFFCURVE",
"1266 193 OFFCURVE",
"1266 386 QCURVE SMOOTH",
"1266 522 OFFCURVE",
"1068 695 OFFCURVE",
"887 714 QCURVE",
"1018 742 OFFCURVE",
"1163 908 OFFCURVE",
"1163 1026 QCURVE SMOOTH",
"1163 1190 OFFCURVE",
"927 1341 OFFCURVE",
"672 1341 QCURVE SMOOTH",
"59 1341 LINE",
"59 1288 LINE",
"231 1262 LINE",
"231 80 LINE",
"59 53 LINE",
"59 0 LINE"
);
}
);
width = 1366;
}
);
note = B;
unicode = 0042;
},
{
glyphname = C;
lastChange = "2019-12-18 23:13:52 +0000";
layers = (
{
layerId = "E3E67A92-B1FB-4433-B88A-D288516649AC";
paths = (
{
closed = 1;
nodes = (
"1027 -20 OFFCURVE",
"1247 43 QCURVE",
"1253 358 LINE",
"1188 358 LINE",
"1151 158 LINE",
"1092 112 OFFCURVE",
"890 57 OFFCURVE",
"776 57 QCURVE SMOOTH",
"540 57 OFFCURVE",
"293 365 OFFCURVE",
"293 657 QCURVE SMOOTH",
"293 974 OFFCURVE",
"529 1276 OFFCURVE",
"786 1276 QCURVE SMOOTH",
"882 1276 OFFCURVE",
"1067 1229 OFFCURVE",
"1137 1186 QCURVE",
"1167 1012 LINE",
"1233 1012 LINE",
"1227 1305 LINE",
"987 1356 OFFCURVE",
"778 1356 QCURVE SMOOTH",
"434 1356 OFFCURVE",
"84 1001 OFFCURVE",
"84 655 QCURVE SMOOTH",
"84 335 OFFCURVE",
"448 -20 OFFCURVE",
"774 -20 QCURVE SMOOTH"
);
}
);
width = 1366;
}
);
note = C;
unicode = 0043;
},
{
glyphname = D;
lastChange = "2019-12-18 23:13:52 +0000";
layers = (
{
layerId = "E3E67A92-B1FB-4433-B88A-D288516649AC";
paths = (
{
closed = 1;
nodes = (
"1188 376 OFFCURVE",
"955 86 OFFCURVE",
"709 86 QCURVE SMOOTH",
"544 86 OFFCURVE",
"424 94 QCURVE",
"424 1251 LINE",
"604 1251 LINE SMOOTH",
"885 1251 OFFCURVE",
"1188 961 OFFCURVE",
"1188 680 QCURVE SMOOTH"
);
},
{
closed = 1;
nodes = (
"59 1341 LINE",
"59 1288 LINE",
"231 1262 LINE",
"231 80 LINE",
"59 53 LINE",
"59 0 LINE",
"709 -4 LINE SMOOTH",
"1052 -4 OFFCURVE",
"1397 342 OFFCURVE",
"1397 678 QCURVE SMOOTH",
"1397 1010 OFFCURVE",
"1039 1341 OFFCURVE",
"668 1341 QCURVE SMOOTH"
);
}
);
width = 1479;
}
);
note = D;
unicode = 0044;
},
{
glyphname = E;
lastChange = "2019-12-18 23:13:52 +0000";
layers = (
{
layerId = "E3E67A92-B1FB-4433-B88A-D288516649AC";
paths = (
{
closed = 1;
nodes = (
"59 0 LINE",
"1130 0 LINE",
"1149 354 LINE",
"1083 354 LINE",
"1026 106 LINE",
"946 90 OFFCURVE",
"688 90 QCURVE SMOOTH",
"424 90 LINE",
"424 637 LINE",
"786 637 LINE",
"817 475 LINE",
"881 475 LINE",
"881 887 LINE",
"817 887 LINE",
"786 727 LINE",
"424 727 LINE",
"424 1251 LINE",
"643 1251 LINE SMOOTH",
"855 1251 OFFCURVE",
"967 1237 QCURVE",
"999 1020 LINE",
"1065 1020 LINE",
"1065 1341 LINE",
"59 1341 LINE",
"59 1288 LINE",
"231 1262 LINE",
"231 80 LINE",
"59 53 LINE"
);
}
);
width = 1251;
}
);
note = E;
unicode = 0045;
},
{
glyphname = F;
lastChange = "2019-12-18 23:13:52 +0000";
layers = (
{
layerId = "E3E67A92-B1FB-4433-B88A-D288516649AC";
paths = (
{
closed = 1;
nodes = (
"819 602 LINE",
"850 440 LINE",
"911 440 LINE",
"911 852 LINE",
"850 852 LINE",
"819 692 LINE",
"424 692 LINE",
"424 1251 LINE",
"643 1251 LINE SMOOTH",
"855 1251 OFFCURVE",
"967 1237 QCURVE",
"999 1020 LINE",
"1065 1020 LINE",
"1065 1341 LINE",
"59 1341 LINE",
"59 1288 LINE",
"231 1262 LINE",
"231 80 LINE",
"72 53 LINE",
"72 0 LINE",
"647 0 LINE",
"647 53 LINE",
"424 80 LINE",
"424 602 LINE"
);
}
);
width = 1139;
}
);
note = F;
unicode = 0046;
},
{
glyphname = G;
lastChange = "2019-12-18 23:13:52 +0000";
layers = (
{
layerId = "E3E67A92-B1FB-4433-B88A-D288516649AC";
paths = (
{
closed = 1;
nodes = (
"1284 506 LINE",
"1415 532 LINE",
"1415 586 LINE",
"920 586 LINE",
"920 532 LINE",
"1092 506 LINE",
"1092 125 LINE",
"1044 97 OFFCURVE",
"860 57 OFFCURVE",
"776 57 QCURVE SMOOTH",
"537 57 OFFCURVE",
"293 362 OFFCURVE",
"293 657 QCURVE SMOOTH",
"293 971 OFFCURVE",
"530 1276 OFFCURVE",
"786 1276 QCURVE SMOOTH",
"893 1276 OFFCURVE",
"1086 1223 OFFCURVE",
"1155 1174 QCURVE",
"1182 1008 LINE",
"1249 1008 LINE",
"1249 1296 LINE",
"1022 1356 OFFCURVE",
"778 1356 QCURVE SMOOTH",
"437 1356 OFFCURVE",
"84 1007 OFFCURVE",
"84 655 QCURVE SMOOTH",
"84 332 OFFCURVE",
"448 -20 OFFCURVE",
"774 -20 QCURVE SMOOTH",
"918 -20 OFFCURVE",
"1168 32 OFFCURVE",
"1284 70 QCURVE"
);
}
);
width = 1479;
}
);
note = G;
unicode = 0047;
},
{
glyphname = H;
lastChange = "2019-12-18 23:13:52 +0000";
layers = (
{
layerId = "E3E67A92-B1FB-4433-B88A-D288516649AC";
paths = (
{
closed = 1;
nodes = (
"596 0 LINE",
"596 53 LINE",
"424 80 LINE",
"424 645 LINE",
"1055 645 LINE",
"1055 80 LINE",
"883 53 LINE",
"883 0 LINE",
"1419 0 LINE",
"1419 53 LINE",
"1247 80 LINE",
"1247 1262 LINE",
"1419 1288 LINE",
"1419 1341 LINE",
"883 1341 LINE",
"883 1288 LINE",
"1055 1262 LINE",
"1055 735 LINE",
"424 735 LINE",
"424 1262 LINE",
"596 1288 LINE",
"596 1341 LINE",
"59 1341 LINE",
"59 1288 LINE",
"231 1262 LINE",
"231 80 LINE",
"59 53 LINE",
"59 0 LINE"
);
}
);
width = 1479;
}
);
note = H;
unicode = 0048;
},
{
glyphname = I;
lastChange = "2019-12-18 23:13:52 +0000";
layers = (
{
layerId = "E3E67A92-B1FB-4433-B88A-D288516649AC";
paths = (
{
closed = 1;
nodes = (
"438 1262 LINE",
"610 1288 LINE",
"610 1341 LINE",
"74 1341 LINE",
"74 1288 LINE",
"246 1262 LINE",
"246 80 LINE",
"74 53 LINE",
"74 0 LINE",
"610 0 LINE",
"610 53 LINE",
"438 80 LINE"
);
}
);
width = 682;
}
);
note = I;
unicode = 0049;
},
{
glyphname = J;
lastChange = "2019-12-18 23:13:52 +0000";
layers = (
{
layerId = "E3E67A92-B1FB-4433-B88A-D288516649AC";
paths = (
{
closed = 1;
nodes = (
"410 256 LINE SMOOTH",
"410 66 OFFCURVE",
"270 66 QCURVE SMOOTH",
"228 66 OFFCURVE",
"158 92 OFFCURVE",
"139 115 QCURVE",
"109 254 LINE",
"43 254 LINE",
"43 10 LINE",
"122 -20 OFFCURVE",
"250 -20 QCURVE SMOOTH",
"353 -20 OFFCURVE",
"520 97 OFFCURVE",
"602 298 OFFCURVE",
"602 432 QCURVE SMOOTH",
"602 1262 LINE",
"754 1288 LINE",
"754 1341 LINE",
"238 1341 LINE",
"238 1288 LINE",
"410 1262 LINE"
);
}
);
width = 797;
}
);
note = J;
unicode = 004A;
},
{
glyphname = K;
lastChange = "2019-12-18 23:13:52 +0000";
layers = (
{
layerId = "E3E67A92-B1FB-4433-B88A-D288516649AC";
paths = (
{
closed = 1;
nodes = (
"933 1341 LINE",
"933 1288 LINE",
"1066 1262 LINE",
"424 630 LINE",
"424 1262 LINE",
"596 1288 LINE",
"596 1341 LINE",
"59 1341 LINE",
"59 1288 LINE",
"231 1262 LINE",
"231 80 LINE",
"59 53 LINE",
"59 0 LINE",
"616 0 LINE",
"616 53 LINE",
"424 80 LINE",
"424 533 LINE",
"605 678 LINE",
"1130 0 LINE",
"1458 0 LINE",
"1458 53 LINE",
"1313 80 LINE",
"740 814 LINE",
"1198 1262 LINE",
"1353 1288 LINE",
"1353 1341 LINE"
);
}
);
width = 1479;
}
);
note = K;
unicode = 004B;
},
{
glyphname = L;
lastChange = "2019-12-18 23:13:52 +0000";
layers = (
{
layerId = "E3E67A92-B1FB-4433-B88A-D288516649AC";
paths = (
{
closed = 1;
nodes = (
"631 1341 LINE",
"59 1341 LINE",
"59 1288 LINE",
"231 1262 LINE",
"231 80 LINE",
"59 53 LINE",
"59 0 LINE",
"1110 0 LINE",
"1128 385 LINE",
"1063 385 LINE",
"1001 106 LINE",
"901 86 OFFCURVE",
"688 86 QCURVE SMOOTH",
"424 86 LINE",
"424 1262 LINE",
"631 1288 LINE"
);
}
);
width = 1251;
}
);
note = L;
unicode = 004C;
},
{
glyphname = M;
lastChange = "2019-12-18 23:13:52 +0000";
layers = (
{
layerId = "E3E67A92-B1FB-4433-B88A-D288516649AC";
paths = (
{
closed = 1;
nodes = (
"1397 1153 LINE",
"1397 80 LINE",
"1217 53 LINE",
"1217 0 LINE",
"1761 0 LINE",
"1761 53 LINE",
"1589 80 LINE",
"1589 1262 LINE",
"1761 1288 LINE",
"1761 1341 LINE",
"1377 1341 LINE",
"901 321 LINE",
"465 1341 LINE",
"59 1341 LINE",
"59 1288 LINE",
"231 1262 LINE",
"231 80 LINE",
"59 53 LINE",
"59 0 LINE",
"516 0 LINE",
"516 53 LINE",
"336 80 LINE",
"336 1153 LINE",
"827 0 LINE",
"862 0 LINE"
);
}
);
width = 1821;
}
);
note = M;
unicode = 004D;
},
{
glyphname = N;
lastChange = "2019-12-18 23:13:52 +0000";
layers = (
{
layerId = "E3E67A92-B1FB-4433-B88A-D288516649AC";
paths = (
{
closed = 1;
nodes = (
"1155 348 LINE",
"465 1341 LINE",
"59 1341 LINE",
"59 1288 LINE",
"231 1262 LINE",
"231 80 LINE",
"59 53 LINE",
"59 0 LINE",
"516 0 LINE",
"516 53 LINE",
"336 80 LINE",
"336 1206 LINE",
"1163 0 LINE",
"1260 0 LINE",
"1260 1262 LINE",
"1432 1288 LINE",
"1432 1341 LINE",
"975 1341 LINE",
"975 1288 LINE",
"1155 1262 LINE"
);
}
);
width = 1479;
}
);
note = N;
unicode = 004E;
},
{
glyphname = O;
lastChange = "2019-12-18 23:13:52 +0000";
layers = (
{
layerId = "E3E67A92-B1FB-4433-B88A-D288516649AC";
paths = (
{
closed = 1;
nodes = (
"293 993 OFFCURVE",
"508 1276 OFFCURVE",
"739 1276 QCURVE SMOOTH",
"969 1276 OFFCURVE",
"1186 993 OFFCURVE",
"1186 672 QCURVE SMOOTH",
"1186 349 OFFCURVE",
"968 59 OFFCURVE",
"739 59 QCURVE SMOOTH",
"509 59 OFFCURVE",
"293 349 OFFCURVE",
"293 672 QCURVE SMOOTH"
);
},
{
closed = 1;
nodes = (
"84 329 OFFCURVE",
"420 -20 OFFCURVE",
"739 -20 QCURVE SMOOTH",
"1059 -20 OFFCURVE",
"1395 330 OFFCURVE",
"1395 672 QCURVE SMOOTH",
"1395 1009 OFFCURVE",
"1063 1356 OFFCURVE",
"739 1356 QCURVE SMOOTH",
"84 1356 OFFCURVE",
"84 672 QCURVE SMOOTH"
);
}
);
width = 1479;
}
);
note = O;
unicode = 004F;
},
{
glyphname = P;
lastChange = "2019-12-18 23:13:52 +0000";
layers = (
{
layerId = "E3E67A92-B1FB-4433-B88A-D288516649AC";
paths = (
{
closed = 1;
nodes = (
"858 770 OFFCURVE",
"697 616 OFFCURVE",
"528 616 QCURVE SMOOTH",
"424 616 LINE",
"424 1251 LINE",
"522 1251 LINE SMOOTH",
"704 1251 OFFCURVE",
"858 1109 OFFCURVE",
"858 944 QCURVE SMOOTH"
);
},
{
closed = 1;
nodes = (
"575 526 LINE SMOOTH",
"808 526 OFFCURVE",
"1057 740 OFFCURVE",
"1057 946 QCURVE SMOOTH",
"1057 1341 OFFCURVE",
"565 1341 QCURVE SMOOTH",
"59 1341 LINE",
"59 1288 LINE",
"231 1262 LINE",
"231 80 LINE",
"72 53 LINE",
"72 0 LINE",
"637 0 LINE",
"637 53 LINE",
"424 80 LINE",
"424 526 LINE"
);
}
);
width = 1139;
}
);
note = P;
unicode = 0050;
},
{
glyphname = Q;
lastChange = "2019-12-18 23:13:52 +0000";
layers = (
{
layerId = "E3E67A92-B1FB-4433-B88A-D288516649AC";
paths = (
{
closed = 1;
nodes = (
"293 991 OFFCURVE",
"509 1276 OFFCURVE",
"739 1276 QCURVE SMOOTH",
"967 1276 OFFCURVE",
"1186 993 OFFCURVE",
"1186 670 QCURVE SMOOTH",
"1186 345 OFFCURVE",
"968 59 OFFCURVE",
"739 59 QCURVE SMOOTH",
"509 59 OFFCURVE",
"293 347 OFFCURVE",
"293 670 QCURVE SMOOTH"
);
},
{
closed = 1;
nodes = (
"84 331 OFFCURVE",
"418 -20 OFFCURVE",
"739 -20 QCURVE SMOOTH",
"787 -20 OFFCURVE",
"823 -16 QCURVE",
"954 -182 OFFCURVE",
"1066 -285 OFFCURVE",
"1176 -332 OFFCURVE",
"1247 -332 QCURVE SMOOTH",
"1294 -332 OFFCURVE",
"1421 -305 OFFCURVE",
"1444 -295 QCURVE",
"1444 -229 LINE",
"1362 -233 LINE SMOOTH",
"1302 -233 OFFCURVE",
"1178 -139 OFFCURVE",
"1090 -29 QCURVE SMOOTH",
"1040 33 LINE",
"1395 179 OFFCURVE",
"1395 670 QCURVE SMOOTH",
"1395 1009 OFFCURVE",
"1061 1356 OFFCURVE",
"739 1356 QCURVE SMOOTH",
"84 1356 OFFCURVE",
"84 670 QCURVE SMOOTH"
);
}
);
width = 1479;
}
);
note = Q;
unicode = 0051;
},
{
glyphname = R;
lastChange = "2019-12-18 23:13:52 +0000";
layers = (
{
layerId = "E3E67A92-B1FB-4433-B88A-D288516649AC";
paths = (
{
closed = 1;
nodes = (
"665 588 LINE",
"1042 0 LINE",
"1363 0 LINE",
"1363 53 LINE",
"1218 80 LINE",
"855 616 LINE",
"984 654 OFFCURVE",
"1130 849 OFFCURVE",
"1130 983 QCURVE SMOOTH",
"1130 1171 OFFCURVE",
"890 1341 OFFCURVE",
"638 1341 QCURVE SMOOTH",
"59 1341 LINE",
"59 1288 LINE",
"231 1262 LINE",
"231 80 LINE",
"72 53 LINE",
"72 0 LINE",
"627 0 LINE",
"627 53 LINE",
"424 80 LINE",
"424 588 LINE"
);
},
{
closed = 1;
nodes = (
"931 811 OFFCURVE",
"780 678 OFFCURVE",
"601 678 QCURVE SMOOTH",
"424 678 LINE",
"424 1251 LINE",
"595 1251 LINE SMOOTH",
"782 1251 OFFCURVE",
"931 1122 OFFCURVE",
"931 969 QCURVE SMOOTH"
);
}
);
width = 1366;
}
);
note = R;
unicode = 0052;
},
{
glyphname = S;
lastChange = "2019-12-18 23:13:52 +0000";
layers = (
{
layerId = "E3E67A92-B1FB-4433-B88A-D288516649AC";
paths = (
{
closed = 1;
nodes = (
"139 51 LINE",
"224 18 OFFCURVE",
"442 -20 OFFCURVE",
"550 -20 QCURVE SMOOTH",
"774 -20 OFFCURVE",
"1012 193 OFFCURVE",
"1012 387 QCURVE SMOOTH",
"1012 483 OFFCURVE",
"951 614 OFFCURVE",
"852 705 OFFCURVE",
"725 764 OFFCURVE",
"592 811 OFFCURVE",
"465 855 OFFCURVE",
"366 916 OFFCURVE",
"305 1002 OFFCURVE",
"305 1067 QCURVE SMOOTH",
"305 1163 OFFCURVE",
"456 1272 OFFCURVE",
"590 1272 QCURVE SMOOTH",
"740 1272 OFFCURVE",
"842 1198 QCURVE",
"877 1034 LINE",
"942 1034 LINE",
"942 1313 LINE",
"752 1356 OFFCURVE",
"590 1356 QCURVE SMOOTH",
"377 1356 OFFCURVE",
"137 1174 OFFCURVE",
"137 1014 QCURVE SMOOTH",
"137 921 OFFCURVE",
"198 794 OFFCURVE",
"297 708 OFFCURVE",
"423 652 OFFCURVE",
"556 606 OFFCURVE",
"682 561 OFFCURVE",
"781 496 OFFCURVE",
"842 402 OFFCURVE",
"842 330 QCURVE SMOOTH",
"842 204 OFFCURVE",
"685 61 OFFCURVE",
"545 61 QCURVE SMOOTH",
"457 61 OFFCURVE",
"276 133 OFFCURVE",
"239 180 QCURVE",
"204 361 LINE",
"139 361 LINE"
);
}
);
width = 1139;
}
);
note = S;
unicode = 0053;
},
{
glyphname = T;
lastChange = "2019-12-18 23:13:52 +0000";
layers = (
{
layerId = "E3E67A92-B1FB-4433-B88A-D288516649AC";
paths = (
{
closed = 1;
nodes = (
"934 0 LINE",
"934 53 LINE",
"721 80 LINE",
"721 1253 LINE",
"770 1253 LINE SMOOTH",
"890 1253 OFFCURVE",
"1092 1242 OFFCURVE",
"1122 1235 QCURVE",
"1149 1026 LINE",
"1217 1026 LINE",
"1217 1341 LINE",
"37 1341 LINE",
"37 1026 LINE",
"104 1026 LINE",
"131 1235 LINE",
"224 1255 OFFCURVE",
"477 1255 QCURVE SMOOTH",
"528 1255 LINE",
"528 80 LINE",
"315 53 LINE",
"315 0 LINE"
);
}
);
width = 1251;
}
);
note = T;
unicode = 0054;
},
{
glyphname = U;
lastChange = "2019-12-18 23:13:52 +0000";
layers = (
{
layerId = "E3E67A92-B1FB-4433-B88A-D288516649AC";
paths = (
{
closed = 1;
nodes = (
"1159 453 LINE SMOOTH",
"1159 274 OFFCURVE",
"954 92 OFFCURVE",
"762 92 QCURVE SMOOTH",
"407 92 OFFCURVE",
"407 457 QCURVE SMOOTH",
"407 1262 LINE",
"579 1288 LINE",
"579 1341 LINE",
"43 1341 LINE",
"43 1288 LINE",
"215 1262 LINE",
"215 442 LINE SMOOTH",
"215 221 OFFCURVE",
"480 -20 OFFCURVE",
"747 -20 QCURVE SMOOTH",
"999 -20 OFFCURVE",
"1264 220 OFFCURVE",
"1264 461 QCURVE SMOOTH",
"1264 1262 LINE",
"1436 1288 LINE",
"1436 1341 LINE",
"979 1341 LINE",
"979 1288 LINE",
"1159 1262 LINE"
);
}
);
width = 1479;
}
);
note = U;
unicode = 0055;
},
{
glyphname = V;
lastChange = "2019-12-18 23:13:52 +0000";
layers = (
{
layerId = "E3E67A92-B1FB-4433-B88A-D288516649AC";
paths = (
{
closed = 1;
nodes = (
"1020 1341 LINE",
"1020 1288 LINE",
"1196 1262 LINE",
"791 275 LINE",
"385 1262 LINE",
"565 1288 LINE",
"565 1341 LINE",
"23 1341 LINE",
"23 1288 LINE",
"174 1262 LINE",
"719 -31 LINE",
"770 -31 LINE",
"1309 1262 LINE",
"1456 1288 LINE",
"1456 1341 LINE"
);
}
);
width = 1479;
}
);
note = V;
unicode = 0056;
},
{
glyphname = W;
lastChange = "2019-12-18 23:13:52 +0000";
layers = (
{
layerId = "E3E67A92-B1FB-4433-B88A-D288516649AC";
paths = (
{
closed = 1;
nodes = (
"1812 1262 LINE",
"1929 1288 LINE",
"1929 1341 LINE",
"1485 1341 LINE",
"1485 1288 LINE",
"1694 1262 LINE",
"1390 317 LINE",
"1042 1247 LINE",
"997 1247 LINE",
"636 317 LINE",
"317 1262 LINE",
"514 1288 LINE",
"514 1341 LINE",
"2 1341 LINE",
"2 1288 LINE",
"119 1262 LINE",
"563 -31 LINE",
"616 -31 LINE",
"973 893 LINE",
"1321 -31 LINE",
"1374 -31 LINE"
);
}
);
width = 1933;
}
);
note = W;
unicode = 0057;
},
{
glyphname = X;
lastChange = "2019-12-18 23:13:52 +0000";
layers = (
{
layerId = "E3E67A92-B1FB-4433-B88A-D288516649AC";
paths = (
{
closed = 1;
nodes = (
"707 600 LINE",
"1059 80 LINE",
"889 53 LINE",
"889 0 LINE",
"1442 0 LINE",
"1442 53 LINE",
"1290 80 LINE",
"829 760 LINE",
"1206 1262 LINE",
"1354 1288 LINE",
"1354 1341 LINE",
"915 1341 LINE",
"915 1288 LINE",
"1081 1262 LINE",
"770 848 LINE",
"492 1262 LINE",
"662 1288 LINE",
"662 1341 LINE",
"109 1341 LINE",
"109 1288 LINE",
"260 1262 LINE",
"649 686 LINE",
"193 80 LINE",
"45 53 LINE",
"45 0 LINE",
"483 0 LINE",
"483 53 LINE",
"317 80 LINE"
);
}
);
width = 1479;
}
);
note = X;
unicode = 0058;
},
{
glyphname = Y;
lastChange = "2019-12-18 23:13:52 +0000";
layers = (
{
layerId = "E3E67A92-B1FB-4433-B88A-D288516649AC";
paths = (
{
closed = 1;
nodes = (
"1280 1262 LINE",
"1427 1288 LINE",
"1427 1341 LINE",
"991 1341 LINE",
"991 1288 LINE",
"1161 1262 LINE",
"795 643 LINE",
"410 1262 LINE",
"590 1288 LINE",
"590 1341 LINE",
"23 1341 LINE",
"23 1288 LINE",
"174 1262 LINE",
"645 522 LINE",
"645 80 LINE",
"432 53 LINE",
"432 0 LINE",
"1051 0 LINE",
"1051 53 LINE",
"838 80 LINE",
"838 528 LINE"
);
}
);
width = 1479;
}
);
note = Y;
unicode = 0059;
},
{
glyphname = Z;
lastChange = "2019-12-18 23:13:52 +0000";
layers = (
{
layerId = "E3E67A92-B1FB-4433-B88A-D288516649AC";
paths = (
{
closed = 1;
nodes = (
"98 0 LINE",
"1112 0 LINE",
"1139 373 LINE",
"1069 373 LINE",
"1010 117 LINE",
"961 106 OFFCURVE",
"722 84 OFFCURVE",
"606 84 QCURVE SMOOTH",
"316 84 LINE",
"1073 1255 LINE",
"1073 1341 LINE",
"160 1341 LINE",
"160 1024 LINE",
"229 1024 LINE",
"260 1235 LINE",
"353 1255 OFFCURVE",
"600 1255 QCURVE SMOOTH",
"850 1255 LINE",
"98 94 LINE"
);
}
);
width = 1251;
}
);
note = Z;
unicode = 005A;
},
{
glyphname = bracketleft;
lastChange = "2019-12-18 23:13:52 +0000";
layers = (
{
layerId = "E3E67A92-B1FB-4433-B88A-D288516649AC";
paths = (
{
closed = 1;
nodes = (
"608 -274 LINE",
"608 -227 LINE",
"311 -186 LINE",
"311 1333 LINE",
"608 1374 LINE",
"608 1421 LINE",
"152 1421 LINE",
"152 -274 LINE"
);
}
);
width = 682;
}
);
note = bracketleft;
unicode = 005B;
},
{
glyphname = backslash;
lastChange = "2019-12-18 23:13:52 +0000";
layers = (
{
layerId = "E3E67A92-B1FB-4433-B88A-D288516649AC";
paths = (
{
closed = 1;
nodes = (
"469 -20 LINE",
"569 -20 LINE",
"98 1350 LINE",
"0 1350 LINE"
);
}
);
width = 569;
}
);
note = backslash;
unicode = 005C;
},
{
glyphname = bracketright;
lastChange = "2019-12-18 23:13:52 +0000";
layers = (
{
layerId = "E3E67A92-B1FB-4433-B88A-D288516649AC";
paths = (
{
closed = 1;
nodes = (
"530 -274 LINE",
"530 1421 LINE",
"74 1421 LINE",
"74 1374 LINE",
"371 1333 LINE",
"371 -186 LINE",
"74 -227 LINE",
"74 -274 LINE"
);
}
);
width = 682;
}
);
note = bracketright;
unicode = 005D;
},
{
glyphname = asciicircum;
lastChange = "2019-12-18 23:13:52 +0000";
layers = (
{
layerId = "E3E67A92-B1FB-4433-B88A-D288516649AC";
paths = (
{
closed = 1;
nodes = (
"29 389 LINE",
"131 389 LINE",
"481 1198 LINE",
"831 389 LINE",
"934 389 LINE",
"506 1341 LINE",
"457 1341 LINE"
);
}
);
width = 961;
}
);
note = asciicircum;
unicode = 005E;
},
{
glyphname = underscore;
lastChange = "2019-12-18 23:13:52 +0000";
layers = (
{
layerId = "E3E67A92-B1FB-4433-B88A-D288516649AC";
paths = (
{
closed = 1;
nodes = (
"1040 -264 LINE",
"1040 -162 LINE",
"-16 -162 LINE",
"-16 -264 LINE"
);
}
);
width = 1024;
}
);
note = underscore;
unicode = 005F;
},
{
glyphname = grave;
lastChange = "2019-12-18 23:13:52 +0000";
layers = (
{
layerId = "E3E67A92-B1FB-4433-B88A-D288516649AC";
paths = (
{
closed = 1;
nodes = (
"528 1119 LINE",
"528 1152 LINE",
"332 1424 LINE",
"119 1424 LINE",
"119 1387 LINE",
"473 1119 LINE"
);
}
);
width = 682;
}
);
note = grave;
unicode = 0060;
},
{
glyphname = a;
lastChange = "2019-12-18 23:13:52 +0000";
layers = (
{
layerId = "E3E67A92-B1FB-4433-B88A-D288516649AC";
paths = (
{
closed = 1;
nodes = (
"342 961 OFFCURVE",
"180 926 QCURVE",
"180 721 LINE",
"236 721 LINE",
"270 838 LINE",
"353 885 OFFCURVE",
"453 885 QCURVE SMOOTH",
"527 885 OFFCURVE",
"598 793 OFFCURVE",
"598 696 QCURVE SMOOTH",
"598 549 LINE",
"457 545 LINE SMOOTH",
"305 542 OFFCURVE",
"145 477 OFFCURVE",
"72 354 OFFCURVE",
"72 260 QCURVE SMOOTH",
"72 -20 OFFCURVE",
"313 -20 QCURVE SMOOTH",
"490 -20 OFFCURVE",
"604 94 QCURVE",
"623 0 LINE",
"881 0 LINE",
"881 45 LINE",
"764 70 LINE",
"764 705 LINE SMOOTH",
"764 835 OFFCURVE",
"619 961 OFFCURVE",
"465 961 QCURVE SMOOTH"
);
},
{
closed = 1;
nodes = (
"598 145 LINE",
"548 121 OFFCURVE",
"449 90 OFFCURVE",
"381 90 QCURVE SMOOTH",
"238 90 OFFCURVE",
"238 266 QCURVE SMOOTH",
"238 376 OFFCURVE",
"333 470 OFFCURVE",
"467 475 QCURVE SMOOTH",
"598 479 LINE"
);
}
);
width = 909;
}
);
note = a;
unicode = 0061;
},
{
glyphname = b;
lastChange = "2019-12-18 23:13:52 +0000";
layers = (
{
layerId = "E3E67A92-B1FB-4433-B88A-D288516649AC";
paths = (
{
closed = 1;
nodes = (
"766 282 OFFCURVE",
"642 66 OFFCURVE",
"504 66 QCURVE SMOOTH",
"387 66 OFFCURVE",
"303 82 QCURVE",
"303 827 LINE",
"329 839 OFFCURVE",
"445 860 OFFCURVE",
"504 860 QCURVE SMOOTH",
"638 860 OFFCURVE",
"766 680 OFFCURVE",
"766 496 QCURVE SMOOTH"
);
},
{
closed = 1;
nodes = (
"137 49 LINE",
"215 18 OFFCURVE",
"422 -20 OFFCURVE",
"508 -20 QCURVE SMOOTH",
"721 -20 OFFCURVE",
"946 243 OFFCURVE",
"946 496 QCURVE SMOOTH",
"946 732 OFFCURVE",
"741 965 OFFCURVE",
"549 965 QCURVE SMOOTH",
"397 965 OFFCURVE",
"297 887 QCURVE",
"303 1031 OFFCURVE",
"303 1085 QCURVE SMOOTH",
"303 1421 LINE",
"0 1421 LINE",
"0 1376 LINE",
"137 1352 LINE"
);
}
);
width = 1024;
}
);
note = b;
unicode = 0062;
},
{
glyphname = c;
lastChange = "2019-12-18 23:13:52 +0000";
layers = (
{
layerId = "E3E67A92-B1FB-4433-B88A-D288516649AC";
paths = (
{
closed = 1;
nodes = (
"846 117 LINE",
"738 84 OFFCURVE",
"592 84 QCURVE SMOOTH",
"421 84 OFFCURVE",
"258 265 OFFCURVE",
"258 477 QCURVE SMOOTH",
"258 885 OFFCURVE",
"526 885 QCURVE SMOOTH",
"642 885 OFFCURVE",
"725 838 QCURVE",
"768 672 LINE",
"823 672 LINE",
"823 934 LINE",
"663 965 OFFCURVE",
"528 965 QCURVE SMOOTH",
"311 965 OFFCURVE",
"78 712 OFFCURVE",
"78 477 QCURVE SMOOTH",
"78 -20 OFFCURVE",
"535 -20 QCURVE SMOOTH",
"625 -20 OFFCURVE",
"797 21 OFFCURVE",
"846 57 QCURVE"
);
}
);
width = 909;
}
);
note = c;
unicode = 0063;
},
{
glyphname = d;
lastChange = "2019-12-18 23:13:52 +0000";
layers = (
{
layerId = "E3E67A92-B1FB-4433-B88A-D288516649AC";
paths = (
{
closed = 1;
nodes = (
"735 0 LINE",
"999 0 LINE",
"999 45 LINE",
"883 70 LINE",
"883 1421 LINE",
"559 1421 LINE",
"559 1376 LINE",
"717 1352 LINE",
"717 1108 LINE SMOOTH",
"717 975 OFFCURVE",
"723 942 QCURVE",
"612 965 OFFCURVE",
"504 965 QCURVE SMOOTH",
"292 965 OFFCURVE",
"74 708 OFFCURVE",
"74 461 QCURVE SMOOTH",
"74 -20 OFFCURVE",
"459 -20 QCURVE SMOOTH",
"610 -20 OFFCURVE",
"723 70 QCURVE"
);
},
{
closed = 1;
nodes = (
"254 883 OFFCURVE",
"514 883 QCURVE SMOOTH",
"628 883 OFFCURVE",
"717 866 QCURVE",
"717 123 LINE",
"627 84 OFFCURVE",
"514 84 QCURVE SMOOTH",
"382 84 OFFCURVE",
"254 271 OFFCURVE",
"254 461 QCURVE SMOOTH"
);
}
);
width = 1024;
}
);
note = d;
unicode = 0064;
},
{
glyphname = e;
lastChange = "2019-12-18 23:13:52 +0000";
layers = (
{
layerId = "E3E67A92-B1FB-4433-B88A-D288516649AC";
paths = (
{
closed = 1;
nodes = (
"838 473 LINE",
"838 555 LINE SMOOTH",
"838 965 OFFCURVE",
"477 965 QCURVE SMOOTH",
"286 965 OFFCURVE",
"80 723 OFFCURVE",
"80 477 QCURVE SMOOTH",
"80 216 OFFCURVE",
"283 -20 OFFCURVE",
"502 -20 QCURVE SMOOTH",
"588 -20 OFFCURVE",
"753 26 OFFCURVE",
"801 57 QCURVE",
"801 113 LINE",
"753 102 OFFCURVE",
"605 84 OFFCURVE",
"551 84 QCURVE SMOOTH",
"448 84 OFFCURVE",
"321 164 OFFCURVE",
"260 317 OFFCURVE",
"260 455 QCURVE SMOOTH",
"260 473 LINE"
);
},
{
closed = 1;
nodes = (
"572 885 OFFCURVE",
"664 732 OFFCURVE",
"664 553 QCURVE",
"262 553 LINE",
"262 717 OFFCURVE",
"373 885 OFFCURVE",
"477 885 QCURVE SMOOTH"
);
}
);
width = 909;
}
);
note = e;
unicode = 0065;
},
{
glyphname = f;
lastChange = "2019-12-18 23:13:52 +0000";
layers = (
{
layerId = "E3E67A92-B1FB-4433-B88A-D288516649AC";
paths = (
{
closed = 1;
nodes = (
"225 78 LINE",
"86 45 LINE",
"86 0 LINE",
"594 0 LINE",
"594 45 LINE",
"391 78 LINE",
"391 856 LINE",
"641 856 LINE",
"641 940 LINE",
"391 940 LINE",
"391 1096 LINE SMOOTH",
"391 1250 OFFCURVE",
"443 1362 OFFCURVE",
"506 1362 QCURVE SMOOTH",
"554 1362 OFFCURVE",
"588 1341 QCURVE",
"633 1218 LINE",
"682 1218 LINE",
"682 1423 LINE",
"616 1442 OFFCURVE",
"539 1442 QCURVE SMOOTH",
"390 1442 OFFCURVE",
"225 1218 OFFCURVE",
"225 1010 QCURVE SMOOTH",
"225 944 LINE",
"63 905 LINE",
"63 856 LINE",
"225 856 LINE"
);
}
);
width = 682;
}
);
note = f;
unicode = 0066;
},
{
glyphname = g;
lastChange = "2019-12-18 23:13:52 +0000";
layers = (
{
layerId = "E3E67A92-B1FB-4433-B88A-D288516649AC";
paths = (
{
closed = 1;
nodes = (
"870 789 OFFCURVE",
"803 864 QCURVE",
"942 1008 LINE",
"907 1051 LINE",
"686 940 LINE",
"655 950 OFFCURVE",
"539 965 OFFCURVE",
"502 965 QCURVE SMOOTH",
"316 965 OFFCURVE",
"121 797 OFFCURVE",
"121 643 QCURVE SMOOTH",
"121 426 OFFCURVE",
"279 352 QCURVE",
"121 174 LINE",
"121 121 OFFCURVE",
"199 29 OFFCURVE",
"256 10 QCURVE",
"160 -59 OFFCURVE",
"88 -162 OFFCURVE",
"88 -215 QCURVE SMOOTH",
"88 -324 OFFCURVE",
"289 -442 OFFCURVE",
"481 -442 QCURVE SMOOTH",
"642 -442 OFFCURVE",
"868 -357 OFFCURVE",
"985 -201 OFFCURVE",
"985 -96 QCURVE SMOOTH",
"985 20 OFFCURVE",
"838 152 OFFCURVE",
"686 152 QCURVE SMOOTH",
"408 152 LINE SMOOTH",
"354 152 OFFCURVE",
"282 182 OFFCURVE",
"279 199 QCURVE",
"342 330 LINE",
"412 315 OFFCURVE",
"494 315 QCURVE SMOOTH",
"676 315 OFFCURVE",
"870 481 OFFCURVE",
"870 643 QCURVE SMOOTH"
);
},
{
closed = 1;
nodes = (
"829 -238 OFFCURVE",
"648 -362 OFFCURVE",
"481 -362 QCURVE SMOOTH",
"353 -362 OFFCURVE",
"229 -287 OFFCURVE",
"229 -201 QCURVE SMOOTH",
"229 -153 OFFCURVE",
"282 -42 OFFCURVE",
"324 -6 QCURVE",
"688 -6 LINE SMOOTH",
"759 -6 OFFCURVE",
"829 -70 OFFCURVE",
"829 -127 QCURVE SMOOTH"
);
},
{
closed = 1;
nodes = (
"391 391 OFFCURVE",
"295 511 OFFCURVE",
"295 643 QCURVE SMOOTH",
"295 775 OFFCURVE",
"393 889 OFFCURVE",
"498 889 QCURVE SMOOTH",
"602 889 OFFCURVE",
"696 776 OFFCURVE",
"696 643 QCURVE SMOOTH",
"696 516 OFFCURVE",
"605 391 OFFCURVE",
"496 391 QCURVE SMOOTH"
);
}
);
width = 1024;
}
);
note = g;
unicode = 0067;
},
{
glyphname = h;
lastChange = "2019-12-18 23:13:52 +0000";
layers = (
{
layerId = "E3E67A92-B1FB-4433-B88A-D288516649AC";
paths = (
{
closed = 1;
nodes = (
"326 1421 LINE",
"20 1421 LINE",
"20 1376 LINE",
"160 1352 LINE",
"160 70 LINE",
"41 45 LINE",
"41 0 LINE",
"453 0 LINE",
"453 45 LINE",
"326 70 LINE",
"326 819 LINE",
"457 848 OFFCURVE",
"551 848 QCURVE SMOOTH",
"717 848 OFFCURVE",
"717 676 QCURVE SMOOTH",
"717 70 LINE",
"592 45 LINE",
"592 0 LINE",
"997 0 LINE",
"997 45 LINE",
"883 70 LINE",
"883 688 LINE SMOOTH",
"883 823 OFFCURVE",
"759 965 OFFCURVE",
"637 965 QCURVE SMOOTH",
"574 965 OFFCURVE",
"391 905 OFFCURVE",
"319 864 QCURVE",
"326 910 OFFCURVE",
"326 1014 QCURVE SMOOTH"
);
}
);
width = 1024;
}
);
note = h;
unicode = 0068;
},
{
glyphname = i;
lastChange = "2019-12-18 23:13:52 +0000";
layers = (
{
layerId = "E3E67A92-B1FB-4433-B88A-D288516649AC";
paths = (
{
closed = 1;
nodes = (
"379 1292 OFFCURVE",
"315 1356 OFFCURVE",
"270 1356 QCURVE SMOOTH",
"226 1356 OFFCURVE",
"162 1292 OFFCURVE",
"162 1247 QCURVE SMOOTH",
"162 1203 OFFCURVE",
"226 1139 OFFCURVE",
"270 1139 QCURVE SMOOTH",
"315 1139 OFFCURVE",
"379 1203 OFFCURVE",
"379 1247 QCURVE SMOOTH"
);
},
{
closed = 1;
nodes = (
"369 940 LINE",
"70 940 LINE",
"70 895 LINE",
"203 870 LINE",
"203 70 LINE",
"43 45 LINE",
"43 0 LINE",
"530 0 LINE",
"530 45 LINE",
"369 70 LINE"
);
}
);
width = 569;
}
);
note = i;
unicode = 0069;
},
{
glyphname = j;
lastChange = "2019-12-18 23:13:52 +0000";
layers = (
{
layerId = "E3E67A92-B1FB-4433-B88A-D288516649AC";
paths = (
{
closed = 1;
nodes = (
"393 1292 OFFCURVE",
"329 1356 OFFCURVE",
"285 1356 QCURVE SMOOTH",
"240 1356 OFFCURVE",
"176 1292 OFFCURVE",
"176 1247 QCURVE SMOOTH",
"176 1203 OFFCURVE",
"240 1139 OFFCURVE",
"285 1139 QCURVE SMOOTH",
"329 1139 OFFCURVE",
"393 1203 OFFCURVE",
"393 1247 QCURVE SMOOTH"
);
},
{
closed = 1;
nodes = (
"383 940 LINE",
"76 940 LINE",
"76 895 LINE",
"217 870 LINE",
"217 -90 LINE SMOOTH",
"217 -230 OFFCURVE",
"157 -356 OFFCURVE",
"98 -356 QCURVE SMOOTH",
"48 -356 OFFCURVE",
"15 -328 QCURVE",
"-12 -219 LINE",
"-59 -219 LINE",
"-59 -418 LINE",
"24 -436 OFFCURVE",
"86 -436 QCURVE SMOOTH",
"232 -436 OFFCURVE",
"383 -234 OFFCURVE",
"383 -39 QCURVE SMOOTH"
);
}
);
width = 569;
}
);
note = j;
unicode = 006A;
},
{
glyphname = k;
lastChange = "2019-12-18 23:13:52 +0000";
layers = (
{
layerId = "E3E67A92-B1FB-4433-B88A-D288516649AC";
paths = (
{
closed = 1;
nodes = (
"344 1421 LINE",
"39 1421 LINE",
"39 1376 LINE",
"178 1352 LINE",
"178 70 LINE",
"59 45 LINE",
"59 0 LINE",
"444 0 LINE",
"444 45 LINE",
"344 70 LINE",
"344 340 LINE",
"467 475 LINE",
"725 70 LINE",
"639 45 LINE",
"639 0 LINE",
"1024 0 LINE",
"1024 45 LINE",
"922 68 LINE",
"578 598 LINE",
"846 872 LINE",
"963 895 LINE",
"963 940 LINE",
"631 940 LINE",
"631 895 LINE",
"729 868 LINE",
"344 453 LINE"
);
}
);
width = 1024;
}
);
note = k;
unicode = 006B;
},
{
glyphname = l;
lastChange = "2019-12-18 23:13:52 +0000";
layers = (
{
layerId = "E3E67A92-B1FB-4433-B88A-D288516649AC";
paths = (
{
closed = 1;
nodes = (
"367 1421 LINE",
"41 1421 LINE",
"41 1376 LINE",
"201 1352 LINE",
"201 70 LINE",
"41 45 LINE",
"41 0 LINE",
"528 0 LINE",
"528 45 LINE",
"367 70 LINE"
);
}
);
width = 569;
}
);
note = l;
unicode = 006C;
},
{
glyphname = m;
lastChange = "2019-12-18 23:13:52 +0000";
layers = (
{
layerId = "E3E67A92-B1FB-4433-B88A-D288516649AC";
paths = (
{
closed = 1;
nodes = (
"318 940 LINE",
"43 940 LINE",
"43 895 LINE",
"162 870 LINE",
"162 70 LINE",
"43 45 LINE",
"43 0 LINE",
"469 0 LINE",
"469 45 LINE",
"328 70 LINE",
"328 813 LINE",
"459 842 OFFCURVE",
"547 842 QCURVE SMOOTH",
"632 842 OFFCURVE",
"717 753 OFFCURVE",
"717 670 QCURVE SMOOTH",
"717 70 LINE",
"578 45 LINE",
"578 0 LINE",
"1024 0 LINE",
"1024 45 LINE",
"883 70 LINE",
"883 688 LINE SMOOTH",
"883 753 OFFCURVE",
"866 807 QCURVE",
"887 811 OFFCURVE",
"950 824 OFFCURVE",
"1019 834 OFFCURVE",
"1088 842 OFFCURVE",
"1114 842 QCURVE SMOOTH",
"1274 842 OFFCURVE",
"1274 670 QCURVE SMOOTH",
"1274 70 LINE",
"1134 45 LINE",
"1134 0 LINE",
"1561 0 LINE",
"1561 45 LINE",
"1440 70 LINE",
"1440 688 LINE SMOOTH",
"1440 965 OFFCURVE",
"1200 965 QCURVE SMOOTH",
"1132 965 OFFCURVE",
"925 899 OFFCURVE",
"848 856 QCURVE",
"819 913 OFFCURVE",
"702 965 OFFCURVE",
"633 965 QCURVE SMOOTH",
"569 965 OFFCURVE",
"401 907 OFFCURVE",
"326 864 QCURVE"
);
}
);
width = 1593;
}
);
note = m;
unicode = 006D;
},
{
glyphname = n;
lastChange = "2019-12-18 23:13:52 +0000";
layers = (
{
layerId = "E3E67A92-B1FB-4433-B88A-D288516649AC";
paths = (
{
closed = 1;
nodes = (
"315 940 LINE",
"47 940 LINE",
"47 895 LINE",
"160 870 LINE",
"160 70 LINE",
"47 45 LINE",
"47 0 LINE",
"453 0 LINE",
"453 45 LINE",
"326 70 LINE",
"326 819 LINE",
"457 848 OFFCURVE",
"547 848 QCURVE SMOOTH",
"632 848 OFFCURVE",
"713 753 OFFCURVE",
"713 670 QCURVE SMOOTH",
"713 70 LINE",
"588 45 LINE",
"588 0 LINE",
"993 0 LINE",
"993 45 LINE",
"879 70 LINE",
"879 688 LINE SMOOTH",
"879 823 OFFCURVE",
"755 965 OFFCURVE",
"633 965 QCURVE SMOOTH",
"575 965 OFFCURVE",
"401 908 OFFCURVE",
"324 864 QCURVE"
);
}
);
width = 1024;
}
);
note = n;
unicode = 006E;
},
{
glyphname = o;
lastChange = "2019-12-18 23:13:52 +0000";
layers = (
{
layerId = "E3E67A92-B1FB-4433-B88A-D288516649AC";
paths = (
{
closed = 1;
nodes = (
"946 718 OFFCURVE",
"728 965 OFFCURVE",
"514 965 QCURVE SMOOTH",
"294 965 OFFCURVE",
"78 713 OFFCURVE",
"78 475 QCURVE SMOOTH",
"78 234 OFFCURVE",
"294 -20 OFFCURVE",
"506 -20 QCURVE SMOOTH",
"946 -20 OFFCURVE",
"946 475 QCURVE SMOOTH"
);
},
{
closed = 1;
nodes = (
"766 255 OFFCURVE",
"638 59 OFFCURVE",
"506 59 QCURVE SMOOTH",
"377 59 OFFCURVE",
"258 248 OFFCURVE",
"258 475 QCURVE SMOOTH",
"258 699 OFFCURVE",
"375 885 OFFCURVE",
"506 885 QCURVE SMOOTH",
"640 885 OFFCURVE",
"766 691 OFFCURVE",
"766 475 QCURVE SMOOTH"
);
}
);
width = 1024;
}
);
note = o;
unicode = 006F;
},
{
glyphname = p;
lastChange = "2019-12-18 23:13:52 +0000";
layers = (
{
layerId = "E3E67A92-B1FB-4433-B88A-D288516649AC";
paths = (
{
closed = 1;
nodes = (
"152 -365 LINE",
"33 -389 LINE",
"33 -436 LINE",
"481 -436 LINE",
"481 -389 LINE",
"317 -365 LINE",
"317 -111 LINE SMOOTH",
"317 -70 OFFCURVE",
"311 2 QCURVE",
"413 -20 OFFCURVE",
"526 -20 QCURVE SMOOTH",
"729 -20 OFFCURVE",
"944 242 OFFCURVE",
"944 481 QCURVE SMOOTH",
"944 715 OFFCURVE",
"747 965 OFFCURVE",
"567 965 QCURVE SMOOTH",
"494 965 OFFCURVE",
"353 921 OFFCURVE",
"311 885 QCURVE",
"309 940 LINE",
"45 940 LINE",
"45 895 LINE",
"152 870 LINE"
);
},
{
closed = 1;
nodes = (
"764 59 OFFCURVE",
"512 59 QCURVE SMOOTH",
"406 59 OFFCURVE",
"317 76 QCURVE",
"317 827 LINE",
"395 860 OFFCURVE",
"512 860 QCURVE SMOOTH",
"639 860 OFFCURVE",
"764 673 OFFCURVE",
"764 481 QCURVE SMOOTH"
);
}
);
width = 1024;
}
);
note = p;
unicode = 0070;
},
{
glyphname = q;
lastChange = "2019-12-18 23:13:52 +0000";
layers = (
{
layerId = "E3E67A92-B1FB-4433-B88A-D288516649AC";
paths = (
{
closed = 1;
nodes = (
"723 942 LINE",
"612 965 OFFCURVE",
"500 965 QCURVE SMOOTH",
"291 965 OFFCURVE",
"74 708 OFFCURVE",
"74 467 QCURVE SMOOTH",
"74 -20 OFFCURVE",
"459 -20 QCURVE SMOOTH",
"620 -20 OFFCURVE",
"727 63 QCURVE",
"717 -7 OFFCURVE",
"717 -104 QCURVE SMOOTH",
"717 -365 LINE",
"588 -389 LINE",
"588 -436 LINE",
"987 -436 LINE",
"987 -389 LINE",
"883 -365 LINE",
"883 985 LINE",
"813 985 LINE"
);
},
{
closed = 1;
nodes = (
"254 883 OFFCURVE",
"514 883 QCURVE SMOOTH",
"628 883 OFFCURVE",
"717 866 QCURVE",
"717 117 LINE",
"688 104 OFFCURVE",
"573 84 OFFCURVE",
"514 84 QCURVE SMOOTH",
"381 84 OFFCURVE",
"254 276 OFFCURVE",
"254 467 QCURVE SMOOTH"
);
}
);
width = 1024;
}
);
note = q;
unicode = 0071;
},
{
glyphname = r;
lastChange = "2019-12-18 23:13:52 +0000";
layers = (
{
layerId = "E3E67A92-B1FB-4433-B88A-D288516649AC";
paths = (
{
closed = 1;
nodes = (
"649 965 LINE SMOOTH",
"589 965 OFFCURVE",
"384 873 OFFCURVE",
"324 823 QCURVE",
"315 940 LINE",
"41 940 LINE",
"41 895 LINE",
"160 870 LINE",
"160 70 LINE",
"41 45 LINE",
"41 0 LINE",
"487 0 LINE",
"487 45 LINE",
"326 70 LINE",
"326 772 LINE",
"376 794 OFFCURVE",
"513 821 OFFCURVE",
"563 821 QCURVE",
"621 711 LINE",
"664 711 LINE",
"664 965 LINE"
);
}
);
width = 682;
}
);
note = r;
unicode = 0072;
},
{
glyphname = s;
lastChange = "2019-12-18 23:13:52 +0000";
layers = (
{
layerId = "E3E67A92-B1FB-4433-B88A-D288516649AC";
paths = (
{
closed = 1;
nodes = (
"723 327 OFFCURVE",
"688 413 OFFCURVE",
"625 480 OFFCURVE",
"535 526 OFFCURVE",
"388 576 QCURVE SMOOTH",
"310 602 OFFCURVE",
"233 680 OFFCURVE",
"233 737 QCURVE SMOOTH",
"233 805 OFFCURVE",
"318 885 OFFCURVE",
"399 885 QCURVE SMOOTH",
"513 885 OFFCURVE",
"566 838 QCURVE",
"608 729 LINE",
"655 729 LINE",
"655 934 LINE",
"500 965 OFFCURVE",
"397 965 QCURVE SMOOTH",
"253 965 OFFCURVE",
"84 822 OFFCURVE",
"84 698 QCURVE SMOOTH",
"84 628 OFFCURVE",
"134 529 OFFCURVE",
"226 461 OFFCURVE",
"327 428 QCURVE SMOOTH",
"416 399 LINE SMOOTH",
"569 347 OFFCURVE",
"569 225 QCURVE SMOOTH",
"569 59 OFFCURVE",
"375 59 QCURVE SMOOTH",
"255 59 OFFCURVE",
"180 127 QCURVE",
"131 258 LINE",
"86 258 LINE",
"86 27 LINE",
"134 9 OFFCURVE",
"303 -20 OFFCURVE",
"373 -20 QCURVE SMOOTH",
"546 -20 OFFCURVE",
"723 124 OFFCURVE",
"723 264 QCURVE SMOOTH"
);
}
);
width = 797;
}
);
note = s;
unicode = 0073;
},
{
glyphname = t;
lastChange = "2019-12-18 23:13:52 +0000";
layers = (
{
layerId = "E3E67A92-B1FB-4433-B88A-D288516649AC";
paths = (
{
closed = 1;
nodes = (
"390 -20 OFFCURVE",
"522 11 OFFCURVE",
"557 35 QCURVE",
"557 100 LINE",
"474 84 OFFCURVE",
"416 84 QCURVE SMOOTH",
"368 84 OFFCURVE",
"309 150 OFFCURVE",
"309 215 QCURVE SMOOTH",
"309 856 LINE",
"524 856 LINE",
"524 940 LINE",
"309 940 LINE",
"309 1153 LINE",
"246 1153 LINE",
"145 940 LINE",
"20 901 LINE",
"20 856 LINE",
"143 856 LINE",
"143 197 LINE SMOOTH",
"143 94 OFFCURVE",
"238 -20 OFFCURVE",
"334 -20 QCURVE SMOOTH"
);
}
);
width = 569;
}
);
note = t;
unicode = 0074;
},
{
glyphname = u;
lastChange = "2019-12-18 23:13:52 +0000";
layers = (
{
layerId = "E3E67A92-B1FB-4433-B88A-D288516649AC";
paths = (
{
closed = 1;
nodes = (
"313 940 LINE",
"27 940 LINE",
"27 895 LINE",
"147 870 LINE",
"147 256 LINE SMOOTH",
"147 -20 OFFCURVE",
"387 -20 QCURVE SMOOTH",
"450 -20 OFFCURVE",
"636 37 OFFCURVE",
"707 76 QCURVE",
"715 0 LINE",
"989 0 LINE",
"989 45 LINE",
"870 70 LINE",
"870 940 LINE",
"563 940 LINE",
"563 895 LINE",
"705 870 LINE",
"705 127 LINE",
"597 96 OFFCURVE",
"473 96 QCURVE SMOOTH",
"313 96 OFFCURVE",
"313 268 QCURVE SMOOTH"
);
}
);
width = 1024;
}
);
note = u;
unicode = 0075;
},
{
glyphname = v;
lastChange = "2019-12-18 23:13:52 +0000";
layers = (
{
layerId = "E3E67A92-B1FB-4433-B88A-D288516649AC";
paths = (
{
closed = 1;
nodes = (
"934 874 LINE",
"1024 895 LINE",
"1024 940 LINE",
"676 940 LINE",
"676 895 LINE",
"825 870 LINE",
"563 219 LINE",
"289 868 LINE",
"438 895 LINE",
"438 940 LINE",
"0 940 LINE",
"0 895 LINE",
"96 870 LINE",
"483 -20 LINE",
"557 -20 LINE"
);
}
);
width = 1024;
}
);
note = v;
unicode = 0076;
},
{
glyphname = w;
lastChange = "2019-12-18 23:13:52 +0000";
layers = (
{
layerId = "E3E67A92-B1FB-4433-B88A-D288516649AC";
paths = (
{
closed = 1;
nodes = (
"1366 874 LINE",
"1470 895 LINE",
"1470 940 LINE",
"1112 940 LINE",
"1112 895 LINE",
"1266 870 LINE",
"1053 229 LINE",
"827 846 LINE",
"743 846 LINE",
"516 233 LINE",
"293 868 LINE",
"449 895 LINE",
"449 940 LINE",
"2 940 LINE",
"2 895 LINE",
"113 870 LINE",
"438 -20 LINE",
"512 -20 LINE",
"741 600 LINE",
"973 -20 LINE",
"1051 -20 LINE"
);
}
);
width = 1479;
}
);
note = w;
unicode = 0077;
},
{
glyphname = x;
lastChange = "2019-12-18 23:13:52 +0000";
layers = (
{
layerId = "E3E67A92-B1FB-4433-B88A-D288516649AC";
paths = (
{
closed = 1;
nodes = (
"889 66 LINE",
"580 532 LINE",
"844 874 LINE",
"952 895 LINE",
"952 940 LINE",
"614 940 LINE",
"614 895 LINE",
"743 870 LINE",
"535 598 LINE",
"354 868 LINE",
"479 895 LINE",
"479 940 LINE",
"53 940 LINE",
"53 895 LINE",
"164 870 LINE",
"436 469 LINE",
"127 61 LINE",
"18 45 LINE",
"18 0 LINE",
"356 0 LINE",
"356 45 LINE",
"227 66 LINE",
"481 401 LINE",
"698 68 LINE",
"573 45 LINE",
"573 0 LINE",
"999 0 LINE",
"999 45 LINE"
);
}
);
width = 1024;
}
);
note = x;
unicode = 0078;
},
{
glyphname = y;
lastChange = "2019-12-18 23:13:52 +0000";
layers = (
{
layerId = "E3E67A92-B1FB-4433-B88A-D288516649AC";
paths = (
{
closed = 1;
nodes = (
"274 -442 OFFCURVE",
"390 -368 OFFCURVE",
"486 -224 OFFCURVE",
"551 -59 QCURVE SMOOTH",
"918 874 LINE",
"1016 895 LINE",
"1016 940 LINE",
"666 940 LINE",
"666 895 LINE",
"813 870 LINE",
"567 211 LINE",
"313 868 LINE",
"461 895 LINE",
"461 940 LINE",
"25 940 LINE",
"25 895 LINE",
"121 870 LINE",
"479 -10 LINE",
"424 -162 OFFCURVE",
"351 -280 OFFCURVE",
"263 -340 OFFCURVE",
"211 -340 QCURVE SMOOTH",
"156 -340 OFFCURVE",
"125 -317 QCURVE",
"92 -221 LINE",
"45 -221 LINE",
"45 -424 LINE",
"121 -442 OFFCURVE",
"199 -442 QCURVE SMOOTH"
);
}
);
width = 1024;
}
);
note = y;
unicode = 0079;
},
{
glyphname = z;
lastChange = "2019-12-18 23:13:52 +0000";
layers = (
{
layerId = "E3E67A92-B1FB-4433-B88A-D288516649AC";
paths = (
{
closed = 1;
nodes = (
"827 0 LINE",
"852 324 LINE",
"805 324 LINE",
"754 127 LINE",
"728 107 OFFCURVE",
"602 80 OFFCURVE",
"545 80 QCURVE SMOOTH",
"270 80 LINE",
"786 891 LINE",
"786 940 LINE",
"92 940 LINE",
"92 690 LINE",
"139 690 LINE",
"170 825 LINE",
"190 841 OFFCURVE",
"294 860 OFFCURVE",
"350 860 QCURVE SMOOTH",
"571 860 LINE",
"55 45 LINE",
"55 0 LINE"
);
}
);
width = 909;
}
);
note = z;
unicode = 007A;
},
{
glyphname = braceleft;
lastChange = "2019-12-18 23:13:52 +0000";
layers = (
{
layerId = "E3E67A92-B1FB-4433-B88A-D288516649AC";
paths = (
{
closed = 1;
nodes = (
"797 -274 LINE",
"797 -227 LINE",
"735 -227 LINE SMOOTH",
"644 -227 OFFCURVE",
"567 -118 OFFCURVE",
"567 -12 QCURVE SMOOTH",
"567 322 LINE SMOOTH",
"567 419 OFFCURVE",
"464 554 OFFCURVE",
"375 575 QCURVE",
"375 578 LINE",
"463 597 OFFCURVE",
"567 734 OFFCURVE",
"567 829 QCURVE SMOOTH",
"567 1159 LINE SMOOTH",
"567 1265 OFFCURVE",
"644 1374 OFFCURVE",
"735 1374 QCURVE SMOOTH",
"797 1374 LINE",
"797 1421 LINE",
"662 1421 LINE SMOOTH",
"531 1421 OFFCURVE",
"401 1269 OFFCURVE",
"401 1128 QCURVE SMOOTH",
"401 834 LINE SMOOTH",
"401 602 OFFCURVE",
"186 598 QCURVE",
"186 553 LINE",
"296 549 OFFCURVE",
"401 432 OFFCURVE",
"401 315 QCURVE SMOOTH",
"401 20 LINE SMOOTH",
"401 -120 OFFCURVE",
"536 -274 OFFCURVE",
"662 -274 QCURVE SMOOTH"
);
}
);
width = 983;
}
);
note = braceleft;
unicode = 007B;
},
{
glyphname = bar;
lastChange = "2019-12-18 23:13:52 +0000";
layers = (
{
layerId = "E3E67A92-B1FB-4433-B88A-D288516649AC";
paths = (
{
closed = 1;
nodes = (
"256 -442 LINE",
"256 1421 LINE",
"154 1421 LINE",
"154 -442 LINE"
);
}
);
width = 410;
}
);
note = bar;
unicode = 007C;
},
{
glyphname = braceright;
lastChange = "2019-12-18 23:13:52 +0000";
layers = (
{
layerId = "E3E67A92-B1FB-4433-B88A-D288516649AC";
paths = (
{
closed = 1;
nodes = (
"322 -274 LINE SMOOTH",
"447 -274 OFFCURVE",
"582 -119 OFFCURVE",
"582 20 QCURVE SMOOTH",
"582 315 LINE SMOOTH",
"582 433 OFFCURVE",
"689 549 OFFCURVE",
"797 553 QCURVE",
"797 598 LINE",
"582 602 OFFCURVE",
"582 834 QCURVE SMOOTH",
"582 1128 LINE SMOOTH",
"582 1269 OFFCURVE",
"452 1421 OFFCURVE",
"322 1421 QCURVE SMOOTH",
"186 1421 LINE",
"186 1374 LINE",
"248 1374 LINE SMOOTH",
"339 1374 OFFCURVE",
"416 1265 OFFCURVE",
"416 1159 QCURVE SMOOTH",
"416 829 LINE SMOOTH",
"416 735 OFFCURVE",
"520 597 OFFCURVE",
"608 578 QCURVE",
"608 575 LINE",
"518 554 OFFCURVE",
"416 419 OFFCURVE",
"416 322 QCURVE SMOOTH",
"416 -12 LINE SMOOTH",
"416 -118 OFFCURVE",
"339 -227 OFFCURVE",
"248 -227 QCURVE SMOOTH",
"186 -227 LINE",
"186 -274 LINE"
);
}
);
width = 983;
}
);
note = braceright;
unicode = 007D;
},
{
glyphname = asciitilde;
lastChange = "2019-12-18 23:13:52 +0000";
layers = (
{
layerId = "E3E67A92-B1FB-4433-B88A-D288516649AC";
paths = (
{
closed = 1;
nodes = (
"862 502 OFFCURVE",
"968 578 OFFCURVE",
"1032 716 OFFCURVE",
"1049 846 QCURVE",
"946 846 LINE",
"927 709 OFFCURVE",
"849 604 OFFCURVE",
"780 604 QCURVE SMOOTH",
"745 604 OFFCURVE",
"662 653 OFFCURVE",
"576 725 QCURVE SMOOTH",
"501 788 OFFCURVE",
"382 846 OFFCURVE",
"326 846 QCURVE SMOOTH",
"208 846 OFFCURVE",
"75 689 OFFCURVE",
"57 502 QCURVE",
"158 502 LINE",
"171 634 OFFCURVE",
"249 743 OFFCURVE",
"326 743 QCURVE SMOOTH",
"364 743 OFFCURVE",
"461 686 OFFCURVE",
"535 623 QCURVE SMOOTH",
"674 502 OFFCURVE",
"780 502 QCURVE SMOOTH"
);
}
);
width = 1108;
}
);
note = asciitilde;
unicode = 007E;
},
{
glyphname = dagger;
lastChange = "2019-12-18 23:13:52 +0000";
layers = (
{
layerId = "E3E67A92-B1FB-4433-B88A-D288516649AC";
paths = (
{
closed = 1;
nodes = (
"545 940 LINE",
"961 893 LINE",
"961 1049 LINE",
"545 1006 LINE",
"592 1421 LINE",
"436 1421 LINE",
"479 1006 LINE",
"63 1049 LINE",
"63 893 LINE",
"479 940 LINE",
"416 780 LINE",
"489 -240 LINE",
"535 -240 LINE",
"612 780 LINE"
);
}
);
width = 1024;
}
);
note = dagger;
unicode = 2020;
},
{
glyphname = degree;
lastChange = "2019-12-18 23:13:52 +0000";
layers = (
{
layerId = "E3E67A92-B1FB-4433-B88A-D288516649AC";
paths = (
{
closed = 1;
nodes = (
"98 921 OFFCURVE",
"278 741 OFFCURVE",
"408 741 QCURVE SMOOTH",
"490 741 OFFCURVE",
"634 822 OFFCURVE",
"719 967 OFFCURVE",
"719 1051 QCURVE SMOOTH",
"719 1135 OFFCURVE",
"635 1279 OFFCURVE",
"491 1362 OFFCURVE",
"408 1362 QCURVE SMOOTH",
"325 1362 OFFCURVE",
"180 1278 OFFCURVE",
"98 1134 OFFCURVE",
"98 1051 QCURVE SMOOTH"
);
},
{
closed = 1;
nodes = (
"200 1141 OFFCURVE",
"323 1262 OFFCURVE",
"408 1262 QCURVE SMOOTH",
"496 1262 OFFCURVE",
"617 1140 OFFCURVE",
"617 1051 QCURVE SMOOTH",
"617 963 OFFCURVE",
"496 841 OFFCURVE",
"408 841 QCURVE SMOOTH",
"323 841 OFFCURVE",
"200 962 OFFCURVE",
"200 1051 QCURVE SMOOTH"
);
}
);
width = 819;
}
);
note = degree;
unicode = 00B0;
},
{
glyphname = cent;
lastChange = "2019-12-18 23:13:52 +0000";
layers = (
{
layerId = "E3E67A92-B1FB-4433-B88A-D288516649AC";
paths = (
{
closed = 1;
nodes = (
"536 0 LINE",
"618 0 LINE",
"618 186 LINE",
"718 193 OFFCURVE",
"860 236 OFFCURVE",
"895 264 QCURVE",
"895 324 LINE",
"787 291 OFFCURVE",
"641 291 QCURVE SMOOTH",
"618 291 LINE",
"618 1090 LINE",
"708 1080 OFFCURVE",
"774 1044 QCURVE",
"817 879 LINE",
"872 879 LINE",
"872 1141 LINE",
"753 1165 OFFCURVE",
"618 1171 QCURVE",
"618 1341 LINE",
"536 1341 LINE",
"536 1169 LINE",
"338 1158 OFFCURVE",
"127 905 OFFCURVE",
"127 684 QCURVE SMOOTH",
"127 447 OFFCURVE",
"329 199 OFFCURVE",
"536 186 QCURVE"
);
},
{
closed = 1;
nodes = (
"307 1061 OFFCURVE",
"536 1090 QCURVE",
"536 301 LINE",
"417 325 OFFCURVE",
"307 506 OFFCURVE",
"307 684 QCURVE SMOOTH"
);
}
);
width = 1024;
}
);
note = cent;
unicode = 00A2;
},
{
glyphname = sterling;
lastChange = "2019-12-18 23:13:52 +0000";
layers = (
{
layerId = "E3E67A92-B1FB-4433-B88A-D288516649AC";
paths = (
{
closed = 1;
nodes = (
"271 154 LINE",
"358 228 OFFCURVE",
"430 370 OFFCURVE",
"430 459 QCURVE SMOOTH",
"430 520 OFFCURVE",
"414 629 QCURVE",
"676 629 LINE",
"676 711 LINE",
"398 711 LINE",
"369 869 OFFCURVE",
"369 1006 QCURVE SMOOTH",
"369 1272 OFFCURVE",
"598 1272 QCURVE SMOOTH",
"698 1272 OFFCURVE",
"791 1219 QCURVE",
"826 1055 LINE",
"891 1055 LINE",
"891 1313 LINE",
"772 1341 OFFCURVE",
"654 1356 OFFCURVE",
"598 1356 QCURVE SMOOTH",
"390 1356 OFFCURVE",
"181 1174 OFFCURVE",
"181 1006 QCURVE SMOOTH",
"181 867 OFFCURVE",
"248 711 QCURVE",
"121 711 LINE",
"121 629 LINE",
"283 629 LINE",
"305 575 OFFCURVE",
"338 477 OFFCURVE",
"338 430 QCURVE SMOOTH",
"338 305 OFFCURVE",
"195 181 QCURVE SMOOTH",
"123 117 LINE",
"123 0 LINE",
"961 0 LINE",
"961 154 LINE"
);
}
);
width = 1024;
}
);
note = sterling;
unicode = 00A3;
},
{
glyphname = section;
lastChange = "2019-12-18 23:13:52 +0000";
layers = (
{
layerId = "E3E67A92-B1FB-4433-B88A-D288516649AC";
paths = (
{
closed = 1;
nodes = (
"842 96 OFFCURVE",
"794 202 OFFCURVE",
"706 289 OFFCURVE",
"614 342 QCURVE",
"736 368 OFFCURVE",
"872 517 OFFCURVE",
"872 623 QCURVE SMOOTH",
"872 689 OFFCURVE",
"816 793 OFFCURVE",
"716 875 OFFCURVE",
"607 925 QCURVE SMOOTH",
"473 987 OFFCURVE",
"390 1043 OFFCURVE",
"342 1113 OFFCURVE",
"342 1161 QCURVE SMOOTH",
"342 1229 OFFCURVE",
"426 1309 OFFCURVE",
"508 1309 QCURVE SMOOTH",
"567 1309 OFFCURVE",
"660 1283 OFFCURVE",
"684 1262 QCURVE",
"717 1153 LINE",
"764 1153 LINE",
"764 1364 LINE",
"621 1389 OFFCURVE",
"506 1389 QCURVE SMOOTH",
"362 1389 OFFCURVE",
"193 1246 OFFCURVE",
"193 1122 QCURVE SMOOTH",
"193 1032 OFFCURVE",
"291 893 OFFCURVE",
"399 838 QCURVE",
"294 817 OFFCURVE",
"162 678 OFFCURVE",
"162 582 QCURVE SMOOTH",
"162 516 OFFCURVE",
"207 417 OFFCURVE",
"281 340 OFFCURVE",
"376 281 OFFCURVE",
"474 228 OFFCURVE",
"569 176 OFFCURVE",
"643 116 OFFCURVE",
"688 40 OFFCURVE",
"688 -10 QCURVE SMOOTH",
"688 -91 OFFCURVE",
"581 -176 OFFCURVE",
"483 -176 QCURVE SMOOTH",
"423 -176 OFFCURVE",
"298 -137 OFFCURVE",
"268 -109 QCURVE",
"229 23 LINE",
"184 23 LINE",
"184 -209 LINE",
"221 -223 OFFCURVE",
"402 -256 OFFCURVE",
"481 -256 QCURVE SMOOTH",
"656 -256 OFFCURVE",
"842 -109 OFFCURVE",
"842 29 QCURVE SMOOTH"
);
},
{
closed = 1;
nodes = (
"719 504 OFFCURVE",
"614 404 OFFCURVE",
"522 393 QCURVE",
"413 453 OFFCURVE",
"347 507 OFFCURVE",
"311 572 OFFCURVE",
"311 618 QCURVE SMOOTH",
"311 688 OFFCURVE",
"421 784 OFFCURVE",
"506 788 QCURVE",
"597 747 OFFCURVE",
"677 689 OFFCURVE",
"719 623 OFFCURVE",
"719 580 QCURVE SMOOTH"
);
}
);
width = 1024;
}
);
note = section;
unicode = 00A7;
},
{
glyphname = bullet;
lastChange = "2019-12-18 23:13:52 +0000";
layers = (
{
layerId = "E3E67A92-B1FB-4433-B88A-D288516649AC";
paths = (
{
closed = 1;
nodes = (
"602 780 OFFCURVE",
"460 922 OFFCURVE",
"358 922 QCURVE SMOOTH",
"257 922 OFFCURVE",
"115 780 OFFCURVE",
"115 678 QCURVE SMOOTH",
"115 576 OFFCURVE",
"257 434 OFFCURVE",
"358 434 QCURVE SMOOTH",
"460 434 OFFCURVE",
"602 576 OFFCURVE",
"602 678 QCURVE SMOOTH"
);
}
);
width = 717;
}
);
note = bullet;
unicode = 2022;
},
{
glyphname = paragraph;
lastChange = "2019-12-18 23:13:52 +0000";
layers = (
{
layerId = "E3E67A92-B1FB-4433-B88A-D288516649AC";
paths = (
{
closed = 1;
nodes = (
"905 1288 LINE",
"905 1341 LINE",
"442 1341 LINE SMOOTH",
"232 1341 OFFCURVE",
"8 1146 OFFCURVE",
"8 963 QCURVE SMOOTH",
"8 776 OFFCURVE",
"246 565 OFFCURVE",
"455 565 QCURVE",
"453 -258 LINE",
"547 -258 LINE",
"547 1266 LINE",
"717 1266 LINE",
"717 -258 LINE",
"811 -258 LINE",
"811 1266 LINE"
);
}
);
width = 928;
}
);
note = paragraph;
unicode = 00B6;
},
{
glyphname = germandbls;
lastChange = "2019-12-18 23:13:52 +0000";
layers = (
{
layerId = "E3E67A92-B1FB-4433-B88A-D288516649AC";
paths = (
{
closed = 1;
nodes = (
"877 1230 OFFCURVE",
"707 1442 OFFCURVE",
"520 1442 QCURVE SMOOTH",
"341 1442 OFFCURVE",
"160 1249 OFFCURVE",
"160 1061 QCURVE SMOOTH",
"160 70 LINE",
"20 45 LINE",
"20 0 LINE",
"326 0 LINE",
"326 1110 LINE SMOOTH",
"326 1362 OFFCURVE",
"520 1362 QCURVE SMOOTH",
"627 1362 OFFCURVE",
"713 1214 OFFCURVE",
"713 1047 QCURVE",
"589 1026 OFFCURVE",
"463 892 OFFCURVE",
"463 784 QCURVE SMOOTH",
"463 685 OFFCURVE",
"548 542 OFFCURVE",
"631 485 QCURVE SMOOTH",
"718 426 OFFCURVE",
"799 306 OFFCURVE",
"799 225 QCURVE SMOOTH",
"799 59 OFFCURVE",
"649 59 QCURVE SMOOTH",
"598 59 OFFCURVE",
"519 97 OFFCURVE",
"496 125 QCURVE",
"463 219 LINE",
"418 219 LINE",
"418 27 LINE",
"452 6 OFFCURVE",
"589 -20 OFFCURVE",
"651 -20 QCURVE SMOOTH",
"799 -20 OFFCURVE",
"952 119 OFFCURVE",
"952 256 QCURVE SMOOTH",
"952 360 OFFCURVE",
"868 510 OFFCURVE",
"782 571 QCURVE SMOOTH",
"691 635 OFFCURVE",
"612 746 OFFCURVE",
"612 819 QCURVE SMOOTH",
"612 877 OFFCURVE",
"661 943 OFFCURVE",
"737 979 OFFCURVE",
"832 992 OFFCURVE",
"877 997 QCURVE"
);
}
);
width = 1024;
}
);
note = germandbls;
unicode = 00DF;
},
{
glyphname = registered;
lastChange = "2019-12-18 23:13:52 +0000";
layers = (
{
layerId = "E3E67A92-B1FB-4433-B88A-D288516649AC";
paths = (
{
closed = 1;
nodes = (
"88 484 OFFCURVE",
"272 164 OFFCURVE",
"592 -20 OFFCURVE",
"778 -20 QCURVE SMOOTH",
"968 -20 OFFCURVE",
"1289 168 OFFCURVE",
"1470 485 OFFCURVE",
"1470 670 QCURVE SMOOTH",
"1470 859 OFFCURVE",
"1285 1178 OFFCURVE",
"965 1362 OFFCURVE",
"778 1362 QCURVE SMOOTH",
"592 1362 OFFCURVE",
"275 1180 OFFCURVE",
"88 859 OFFCURVE",
"88 670 QCURVE SMOOTH"
);
},
{
closed = 1;
nodes = (
"158 836 OFFCURVE",
"323 1125 OFFCURVE",
"611 1292 OFFCURVE",
"778 1292 QCURVE SMOOTH",
"945 1292 OFFCURVE",
"1231 1128 OFFCURVE",
"1401 838 OFFCURVE",
"1401 670 QCURVE SMOOTH",
"1401 502 OFFCURVE",
"1233 214 OFFCURVE",
"945 49 OFFCURVE",
"778 49 QCURVE SMOOTH",
"612 49 OFFCURVE",
"325 214 OFFCURVE",
"158 503 OFFCURVE",
"158 670 QCURVE SMOOTH"
);
},
{
closed = 1;
nodes = (
"758 625 LINE",
"987 276 LINE",
"1192 276 LINE",
"1192 319 LINE",
"1108 336 LINE",
"895 643 LINE",
"983 671 OFFCURVE",
"1073 783 OFFCURVE",
"1073 860 QCURVE SMOOTH",
"1073 966 OFFCURVE",
"914 1081 OFFCURVE",
"758 1081 QCURVE SMOOTH",
"428 1081 LINE",
"428 1040 LINE",
"532 1024 LINE",
"532 336 LINE",
"436 319 LINE",
"436 276 LINE",
"782 276 LINE",
"782 319 LINE",
"668 336 LINE",
"668 625 LINE"
);
},
{
closed = 1;
nodes = (
"932 762 OFFCURVE",
"841 688 OFFCURVE",
"735 688 QCURVE SMOOTH",
"668 688 LINE",
"668 1020 LINE",
"731 1020 LINE SMOOTH",
"846 1020 OFFCURVE",
"932 947 OFFCURVE",
"932 858 QCURVE SMOOTH"
);
}
);
width = 1556;
}
);
note = registered;
unicode = 00AE;
},
{
glyphname = copyright;
lastChange = "2019-12-18 23:13:52 +0000";
layers = (
{
layerId = "E3E67A92-B1FB-4433-B88A-D288516649AC";
paths = (
{
closed = 1;
nodes = (
"88 484 OFFCURVE",
"272 164 OFFCURVE",
"592 -20 OFFCURVE",
"778 -20 QCURVE SMOOTH",
"968 -20 OFFCURVE",
"1289 168 OFFCURVE",
"1470 485 OFFCURVE",
"1470 670 QCURVE SMOOTH",
"1470 859 OFFCURVE",
"1285 1178 OFFCURVE",
"965 1362 OFFCURVE",
"778 1362 QCURVE SMOOTH",
"592 1362 OFFCURVE",
"275 1180 OFFCURVE",
"88 859 OFFCURVE",
"88 670 QCURVE SMOOTH"
);
},
{
closed = 1;
nodes = (
"158 836 OFFCURVE",
"323 1125 OFFCURVE",
"611 1292 OFFCURVE",
"778 1292 QCURVE SMOOTH",
"945 1292 OFFCURVE",
"1231 1128 OFFCURVE",
"1401 838 OFFCURVE",
"1401 670 QCURVE SMOOTH",
"1401 502 OFFCURVE",
"1233 214 OFFCURVE",
"945 49 OFFCURVE",
"778 49 QCURVE SMOOTH",
"612 49 OFFCURVE",
"325 214 OFFCURVE",
"158 503 OFFCURVE",
"158 670 QCURVE SMOOTH"
);
},
{
closed = 1;
nodes = (
"953 258 OFFCURVE",
"1077 297 QCURVE",
"1081 496 LINE",
"1032 496 LINE",
"1010 377 LINE",
"936 317 OFFCURVE",
"795 317 QCURVE SMOOTH",
"526 317 OFFCURVE",
"526 666 QCURVE SMOOTH",
"526 854 OFFCURVE",
"654 1024 OFFCURVE",
"801 1024 QCURVE SMOOTH",
"919 1024 OFFCURVE",
"1001 973 QCURVE",
"1020 868 LINE",
"1069 868 LINE",
"1065 1055 LINE",
"912 1085 OFFCURVE",
"797 1085 QCURVE SMOOTH",
"590 1085 OFFCURVE",
"379 873 OFFCURVE",
"379 664 QCURVE SMOOTH",
"379 471 OFFCURVE",
"600 258 OFFCURVE",
"795 258 QCURVE SMOOTH"
);
}
);
width = 1556;
}
);
note = copyright;
unicode = 00A9;
},
{
glyphname = trademark;
lastChange = "2019-12-18 23:13:52 +0000";
layers = (
{
layerId = "E3E67A92-B1FB-4433-B88A-D288516649AC";
paths = (
{
closed = 1;
nodes = (
"645 537 LINE",
"645 580 LINE",
"518 596 LINE",
"518 1278 LINE",
"547 1278 LINE SMOOTH",
"704 1278 OFFCURVE",
"748 1268 QCURVE",
"764 1143 LINE",
"805 1143 LINE",
"805 1341 LINE",
"96 1341 LINE",
"96 1143 LINE",
"137 1143 LINE",
"154 1268 LINE",
"204 1280 OFFCURVE",
"350 1280 QCURVE SMOOTH",
"381 1280 LINE",
"381 596 LINE",
"254 580 LINE",
"254 537 LINE"
);
},
{
closed = 1;
nodes = (
"1683 1204 LINE",
"1683 596 LINE",
"1575 580 LINE",
"1575 537 LINE",
"1923 537 LINE",
"1923 580 LINE",
"1821 596 LINE",
"1821 1284 LINE",
"1923 1300 LINE",
"1923 1341 LINE",
"1669 1341 LINE",
"1405 758 LINE",
"1161 1341 LINE",
"891 1341 LINE",
"891 1300 LINE",
"995 1284 LINE",
"995 596 LINE",
"891 580 LINE",
"891 537 LINE",
"1176 537 LINE",
"1176 580 LINE",
"1067 596 LINE",
"1067 1206 LINE",
"1352 537 LINE",
"1380 537 LINE"
);
}
);
width = 2007;
}
);
note = trademark;
unicode = 2122;
},
{
glyphname = acute;
lastChange = "2019-12-18 23:13:52 +0000";
layers = (
{
layerId = "E3E67A92-B1FB-4433-B88A-D288516649AC";
paths = (
{
closed = 1;
nodes = (
"211 1119 LINE",
"565 1387 LINE",
"565 1424 LINE",
"352 1424 LINE",
"156 1152 LINE",
"156 1119 LINE"
);
}
);
width = 682;
}
);
note = acute;
unicode = 00B4;
},
{
glyphname = dieresis;
lastChange = "2019-12-18 23:13:52 +0000";
layers = (
{
layerId = "E3E67A92-B1FB-4433-B88A-D288516649AC";
paths = (
{
closed = 1;
nodes = (
"618 1236 OFFCURVE",
"562 1294 OFFCURVE",
"520 1294 QCURVE SMOOTH",
"478 1294 OFFCURVE",
"420 1236 OFFCURVE",
"420 1194 QCURVE SMOOTH",
"420 1155 OFFCURVE",
"478 1093 OFFCURVE",
"520 1093 QCURVE SMOOTH",
"562 1093 OFFCURVE",
"618 1152 OFFCURVE",
"618 1194 QCURVE SMOOTH"
);
},
{
closed = 1;
nodes = (
"262 1236 OFFCURVE",
"206 1294 OFFCURVE",
"164 1294 QCURVE SMOOTH",
"125 1294 OFFCURVE",
"63 1236 OFFCURVE",
"63 1194 QCURVE SMOOTH",
"63 1153 OFFCURVE",
"123 1093 OFFCURVE",
"164 1093 QCURVE SMOOTH",
"206 1093 OFFCURVE",
"262 1152 OFFCURVE",
"262 1194 QCURVE SMOOTH"
);
}
);
width = 682;
}
);
note = dieresis;
unicode = 00A8;
},
{
glyphname = notequal;
lastChange = "2019-12-18 23:13:52 +0000";
layers = (
{
layerId = "E3E67A92-B1FB-4433-B88A-D288516649AC";
paths = (
{
closed = 1;
nodes = (
"1001 1220 LINE",
"876 1220 LINE",
"678 936 LINE",
"85 936 LINE",
"85 834 LINE",
"607 834 LINE",
"392 526 LINE",
"85 526 LINE",
"85 424 LINE",
"321 424 LINE",
"123 140 LINE",
"246 140 LINE",
"444 424 LINE",
"1038 424 LINE",
"1038 526 LINE",
"516 526 LINE",
"731 834 LINE",
"1038 834 LINE",
"1038 936 LINE",
"802 936 LINE"
);
}
);
width = 1124;
}
);
note = notequal;
unicode = 2260;
},
{
glyphname = AE;
lastChange = "2019-12-18 23:13:52 +0000";
layers = (
{
layerId = "E3E67A92-B1FB-4433-B88A-D288516649AC";
paths = (
{
closed = 1;
nodes = (
"731 0 LINE",
"1700 0 LINE",
"1718 354 LINE",
"1653 354 LINE",
"1595 106 LINE",
"1515 90 OFFCURVE",
"1257 90 QCURVE SMOOTH",
"1075 90 LINE",
"1075 637 LINE",
"1356 637 LINE",
"1386 475 LINE",
"1450 475 LINE",
"1450 887 LINE",
"1386 887 LINE",
"1356 727 LINE",
"1075 727 LINE",
"1075 1251 LINE",
"1212 1251 LINE SMOOTH",
"1424 1251 OFFCURVE",
"1536 1237 QCURVE",
"1569 1020 LINE",
"1634 1020 LINE",
"1634 1341 LINE",
"639 1341 LINE",
"639 1288 LINE",
"803 1270 LINE",
"156 80 LINE",
"20 53 LINE",
"20 0 LINE",
"422 0 LINE",
"422 53 LINE",
"264 80 LINE",
"471 467 LINE",
"883 467 LINE",
"883 80 LINE",
"731 53 LINE"
);
},
{
closed = 1;
nodes = (
"520 557 LINE",
"883 1231 LINE",
"883 557 LINE"
);
}
);
width = 1821;
}
);
note = AE;
unicode = 00C6;
},
{
glyphname = Oslash;
lastChange = "2019-12-18 23:13:52 +0000";
layers = (
{
layerId = "E3E67A92-B1FB-4433-B88A-D288516649AC";
paths = (
{
closed = 1;
nodes = (
"84 326 OFFCURVE",
"256 150 QCURVE",
"86 -55 LINE",
"205 -55 LINE",
"326 90 LINE",
"480 -20 OFFCURVE",
"739 -20 QCURVE SMOOTH",
"1059 -20 OFFCURVE",
"1395 330 OFFCURVE",
"1395 672 QCURVE SMOOTH",
"1395 1008 OFFCURVE",
"1225 1186 QCURVE",
"1395 1391 LINE",
"1280 1391 LINE",
"1157 1243 LINE",
"998 1356 OFFCURVE",
"739 1356 QCURVE SMOOTH",
"84 1356 OFFCURVE",
"84 672 QCURVE SMOOTH"
);
},
{
closed = 1;
nodes = (
"293 993 OFFCURVE",
"508 1276 OFFCURVE",
"739 1276 QCURVE SMOOTH",
"965 1276 OFFCURVE",
"1073 1139 QCURVE",
"358 274 LINE",
"293 419 OFFCURVE",
"293 672 QCURVE SMOOTH"
);
},
{
closed = 1;
nodes = (
"1186 349 OFFCURVE",
"968 59 OFFCURVE",
"739 59 QCURVE SMOOTH",
"516 59 OFFCURVE",
"410 193 QCURVE",
"1122 1059 LINE",
"1186 916 OFFCURVE",
"1186 672 QCURVE SMOOTH"
);
}
);
width = 1479;
}
);
note = Oslash;
unicode = 00D8;
},
{
glyphname = infinity;
lastChange = "2019-12-18 23:13:52 +0000";
layers = (
{
layerId = "E3E67A92-B1FB-4433-B88A-D288516649AC";
paths = (
{
closed = 1;
nodes = (
"1382 762 OFFCURVE",
"1211 977 OFFCURVE",
"1069 977 QCURVE SMOOTH",
"964 977 OFFCURVE",
"807 850 OFFCURVE",
"743 725 QCURVE",
"678 855 OFFCURVE",
"500 983 OFFCURVE",
"395 983 QCURVE SMOOTH",
"255 983 OFFCURVE",
"77 765 OFFCURVE",
"77 596 QCURVE SMOOTH",
"77 421 OFFCURVE",
"253 209 OFFCURVE",
"395 209 QCURVE SMOOTH",
"488 209 OFFCURVE",
"652 340 OFFCURVE",
"716 467 QCURVE",
"857 203 OFFCURVE",
"1067 203 QCURVE SMOOTH",
"1203 203 OFFCURVE",
"1382 425 OFFCURVE",
"1382 590 QCURVE SMOOTH"
);
},
{
closed = 1;
nodes = (
"1185 872 OFFCURVE",
"1307 712 OFFCURVE",
"1307 592 QCURVE SMOOTH",
"1307 467 OFFCURVE",
"1186 307 OFFCURVE",
"1090 307 QCURVE SMOOTH",
"1004 307 OFFCURVE",
"871 449 OFFCURVE",
"811 590 QCURVE",
"875 732 OFFCURVE",
"1008 872 OFFCURVE",
"1088 872 QCURVE SMOOTH"
);
},
{
closed = 1;
nodes = (
"584 454 OFFCURVE",
"450 313 OFFCURVE",
"369 313 QCURVE SMOOTH",
"270 313 OFFCURVE",
"153 468 OFFCURVE",
"153 594 QCURVE SMOOTH",
"153 718 OFFCURVE",
"272 879 OFFCURVE",
"365 879 QCURVE SMOOTH",
"455 879 OFFCURVE",
"588 736 OFFCURVE",
"645 596 QCURVE"
);
}
);
width = 1460;
}
);
note = infinity;
unicode = 221E;
},
{
glyphname = plusminus;
lastChange = "2019-12-18 23:13:52 +0000";
layers = (
{
layerId = "E3E67A92-B1FB-4433-B88A-D288516649AC";
paths = (
{
closed = 1;
nodes = (
"1038 629 LINE",
"1038 731 LINE",
"612 731 LINE",
"612 1157 LINE",
"509 1157 LINE",
"509 731 LINE",
"85 731 LINE",
"85 629 LINE",
"509 629 LINE",
"509 203 LINE",
"612 203 LINE",
"612 629 LINE"
);
},
{
closed = 1;
nodes = (
"85 102 LINE",
"85 0 LINE",
"1038 0 LINE",
"1038 102 LINE"
);
}
);
width = 1124;
}
);
note = plusminus;
unicode = 00B1;
},
{
glyphname = lessequal;
lastChange = "2019-12-18 23:13:52 +0000";
layers = (
{
layerId = "E3E67A92-B1FB-4433-B88A-D288516649AC";
paths = (
{
closed = 1;
nodes = (
"1038 186 LINE",
"1038 289 LINE",
"229 680 LINE",
"1038 1071 LINE",
"1038 1174 LINE",
"85 705 LINE",
"85 655 LINE"
);
},
{
closed = 1;
nodes = (
"85 102 LINE",
"85 0 LINE",
"1038 0 LINE",
"1038 102 LINE"
);
}
);
width = 1124;
}
);
note = lessequal;
unicode = 2264;
},
{
glyphname = greaterequal;
lastChange = "2019-12-18 23:13:52 +0000";
layers = (
{
layerId = "E3E67A92-B1FB-4433-B88A-D288516649AC";
paths = (
{
closed = 1;
nodes = (
"1039 655 LINE",
"1039 705 LINE",
"86 1174 LINE",
"86 1071 LINE",
"895 680 LINE",
"86 289 LINE",
"86 186 LINE"
);
},
{
closed = 1;
nodes = (
"84 102 LINE",
"84 0 LINE",
"1037 0 LINE",
"1037 102 LINE"
);
}
);
width = 1124;
}
);
note = greaterequal;
unicode = 2265;
},
{
glyphname = yen;
lastChange = "2019-12-18 23:13:52 +0000";
layers = (
{
layerId = "E3E67A92-B1FB-4433-B88A-D288516649AC";
paths = (
{
closed = 1;
nodes = (
"606 393 LINE",
"606 528 LINE",
"618 557 LINE",
"885 557 LINE",
"885 639 LINE",
"653 639 LINE",
"918 1262 LINE",
"1022 1288 LINE",
"1022 1341 LINE",
"686 1341 LINE",
"686 1288 LINE",
"809 1262 LINE",
"563 643 LINE",
"324 1262 LINE",
"455 1288 LINE",
"455 1341 LINE",
"2 1341 LINE",
"2 1288 LINE",
"102 1262 LINE",
"365 639 LINE",
"135 639 LINE",
"135 557 LINE",
"399 557 LINE",
"414 522 LINE",
"414 393 LINE",
"135 393 LINE",
"135 311 LINE",
"414 311 LINE",
"414 80 LINE",
"242 53 LINE",
"242 0 LINE",
"778 0 LINE",
"778 53 LINE",
"606 80 LINE",
"606 311 LINE",
"885 311 LINE",
"885 393 LINE"
);
}
);
width = 1024;
}
);
note = yen;
unicode = 00A5;
},
{
glyphname = uni00B5;
lastChange = "2019-12-18 23:13:52 +0000";
layers = (
{
layerId = "E3E67A92-B1FB-4433-B88A-D288516649AC";
paths = (
{
closed = 1;
nodes = (
"835 0 LINE",
"1113 0 LINE",
"1113 45 LINE",
"976 70 LINE",
"976 940 LINE",
"669 940 LINE",
"669 895 LINE",
"811 870 LINE",
"811 183 LINE",
"757 144 OFFCURVE",
"630 96 OFFCURVE",
"579 96 QCURVE SMOOTH",
"483 96 OFFCURVE",
"372 201 OFFCURVE",
"372 288 QCURVE SMOOTH",
"372 940 LINE",
"66 940 LINE",
"66 895 LINE",
"206 870 LINE",
"206 69 LINE SMOOTH",
"206 -50 OFFCURVE",
"175 -324 OFFCURVE",
"154 -391 QCURVE",
"154 -436 LINE",
"332 -436 LINE",
"366 -230 OFFCURVE",
"366 58 QCURVE",
"427 -20 OFFCURVE",
"546 -20 QCURVE SMOOTH",
"603 -20 OFFCURVE",
"725 38 OFFCURVE",
"816 121 QCURVE"
);
}
);
width = 1180;
}
);
note = uni00B5;
unicode = 00B5;
},
{
glyphname = partialdiff;
lastChange = "2019-12-18 23:13:52 +0000";
layers = (
{
layerId = "E3E67A92-B1FB-4433-B88A-D288516649AC";
paths = (
{
closed = 1;
nodes = (
"928 1200 OFFCURVE",
"732 1477 OFFCURVE",
"549 1477 QCURVE SMOOTH",
"471 1477 OFFCURVE",
"392 1442 QCURVE",
"287 1292 LINE",
"323 1259 LINE",
"444 1343 OFFCURVE",
"551 1343 QCURVE SMOOTH",
"693 1343 OFFCURVE",
"842 1101 OFFCURVE",
"842 874 QCURVE SMOOTH",
"838 758 LINE",
"834 758 LINE",
"800 841 OFFCURVE",
"657 940 OFFCURVE",
"564 940 QCURVE SMOOTH",
"428 940 OFFCURVE",
"208 789 OFFCURVE",
"68 487 OFFCURVE",
"68 332 QCURVE SMOOTH",
"68 160 OFFCURVE",
"236 -27 OFFCURVE",
"388 -27 QCURVE SMOOTH",
"512 -27 OFFCURVE",
"713 115 OFFCURVE",
"856 390 OFFCURVE",
"928 768 OFFCURVE",
"928 938 QCURVE SMOOTH"
);
},
{
closed = 1;
nodes = (
"791 466 OFFCURVE",
"679 184 OFFCURVE",
"532 43 OFFCURVE",
"451 43 QCURVE SMOOTH",
"362 43 OFFCURVE",
"258 181 OFFCURVE",
"258 305 QCURVE SMOOTH",
"258 444 OFFCURVE",
"355 718 OFFCURVE",
"505 856 OFFCURVE",
"596 856 QCURVE SMOOTH",
"674 856 OFFCURVE",
"795 735 OFFCURVE",
"813 643 QCURVE"
);
}
);
width = 1012;
}
);
note = partialdiff;
unicode = 2202;
},
{
glyphname = summation;
lastChange = "2019-12-18 23:13:52 +0000";
layers = (
{
layerId = "E3E67A92-B1FB-4433-B88A-D288516649AC";
paths = (
{
closed = 1;
nodes = (
"378 1251 LINE",
"782 1249 LINE SMOOTH",
"805 1249 OFFCURVE",
"1038 1249 OFFCURVE",
"1134 1237 QCURVE",
"1176 990 LINE",
"1242 990 LINE",
"1242 1341 LINE",
"137 1341 LINE",
"137 1262 LINE",
"670 481 LINE",
"92 -362 LINE",
"92 -436 LINE",
"1298 -436 LINE",
"1317 -22 LINE",
"1251 -22 LINE",
"1194 -250 LINE",
"1184 -252 OFFCURVE",
"1128 -256 OFFCURVE",
"1051 -259 OFFCURVE",
"956 -263 OFFCURVE",
"857 -265 OFFCURVE",
"760 -266 OFFCURVE",
"719 -266 QCURVE SMOOTH",
"274 -266 LINE",
"831 548 LINE",
"831 587 LINE"
);
}
);
width = 1460;
}
);
note = summation;
unicode = 2211;
},
{
glyphname = product;
lastChange = "2019-12-18 23:13:52 +0000";
layers = (
{
layerId = "E3E67A92-B1FB-4433-B88A-D288516649AC";
paths = (
{
closed = 1;
nodes = (
"651 -436 LINE",
"651 -383 LINE",
"479 -356 LINE",
"479 1251 LINE",
"1210 1251 LINE",
"1210 -356 LINE",
"1038 -383 LINE",
"1038 -436 LINE",
"1574 -436 LINE",
"1574 -383 LINE",
"1402 -356 LINE",
"1402 1262 LINE",
"1574 1288 LINE",
"1574 1341 LINE",
"114 1341 LINE",
"114 1288 LINE",
"286 1262 LINE",
"286 -356 LINE",
"114 -383 LINE",
"114 -436 LINE"
);
}
);
width = 1686;
}
);
note = product;
unicode = 220F;
},
{
glyphname = integral;
lastChange = "2019-12-18 23:13:52 +0000";
layers = (
{
layerId = "E3E67A92-B1FB-4433-B88A-D288516649AC";
paths = (
{
closed = 1;
nodes = (
"86 -549 OFFCURVE",
"241 -435 OFFCURVE",
"342 -247 OFFCURVE",
"348 -137 QCURVE SMOOTH",
"357 146 OFFCURVE",
"364 468 OFFCURVE",
"364 541 QCURVE SMOOTH",
"360 1079 LINE SMOOTH",
"360 1203 OFFCURVE",
"430 1360 OFFCURVE",
"483 1360 QCURVE SMOOTH",
"540 1360 OFFCURVE",
"610 1290 QCURVE",
"631 1290 LINE",
"647 1355 LINE",
"665 1421 LINE",
"665 1430 LINE",
"650 1442 OFFCURVE",
"561 1462 OFFCURVE",
"536 1462 QCURVE SMOOTH",
"466 1462 OFFCURVE",
"306 1342 OFFCURVE",
"207 1153 OFFCURVE",
"200 1047 QCURVE SMOOTH",
"186 774 OFFCURVE",
"186 506 QCURVE SMOOTH",
"192 -166 LINE SMOOTH",
"192 -289 OFFCURVE",
"122 -446 OFFCURVE",
"69 -446 QCURVE SMOOTH",
"11 -446 OFFCURVE",
"-58 -377 QCURVE",
"-78 -377 LINE",
"-82 -400 OFFCURVE",
"-103 -495 OFFCURVE",
"-107 -508 QCURVE",
"-107 -516 LINE",
"-95 -526 OFFCURVE",
"-13 -549 OFFCURVE",
"16 -549 QCURVE SMOOTH"
);
}
);
width = 561;
}
);
note = integral;
unicode = 222B;
},
{
glyphname = ordfeminine;
lastChange = "2019-12-18 23:13:52 +0000";
layers = (
{
layerId = "E3E67A92-B1FB-4433-B88A-D288516649AC";
paths = (
{
closed = 1;
nodes = (
"182 1362 OFFCURVE",
"100 1341 QCURVE",
"100 1219 LINE",
"143 1219 LINE",
"164 1278 LINE",
"212 1307 OFFCURVE",
"274 1307 QCURVE SMOOTH",
"371 1307 OFFCURVE",
"371 1196 QCURVE SMOOTH",
"371 1116 LINE",
"287 1114 LINE SMOOTH",
"150 1111 OFFCURVE",
"35 1024 OFFCURVE",
"35 942 QCURVE SMOOTH",
"35 859 OFFCURVE",
"111 774 OFFCURVE",
"184 774 QCURVE SMOOTH",
"237 774 OFFCURVE",
"343 816 OFFCURVE",
"375 848 QCURVE",
"387 786 LINE",
"561 786 LINE",
"561 823 LINE",
"492 838 LINE",
"492 1190 LINE SMOOTH",
"492 1273 OFFCURVE",
"391 1362 OFFCURVE",
"281 1362 QCURVE SMOOTH"
);
},
{
closed = 1;
nodes = (
"371 889 LINE",
"300 850 OFFCURVE",
"242 850 QCURVE SMOOTH",
"198 850 OFFCURVE",
"156 892 OFFCURVE",
"156 946 QCURVE SMOOTH",
"156 983 OFFCURVE",
"172 1026 OFFCURVE",
"203 1050 OFFCURVE",
"250 1060 OFFCURVE",
"371 1063 QCURVE"
);
}
);
width = 565;
}
);
note = ordfeminine;
unicode = 00AA;
},
{
glyphname = ordmasculine;
lastChange = "2019-12-18 23:13:52 +0000";
layers = (
{
layerId = "E3E67A92-B1FB-4433-B88A-D288516649AC";
paths = (
{
closed = 1;
nodes = (
"598 1206 OFFCURVE",
"452 1362 OFFCURVE",
"319 1362 QCURVE SMOOTH",
"186 1362 OFFCURVE",
"37 1213 OFFCURVE",
"37 1069 QCURVE SMOOTH",
"37 925 OFFCURVE",
"184 770 OFFCURVE",
"313 770 QCURVE SMOOTH",
"450 770 OFFCURVE",
"598 924 OFFCURVE",
"598 1069 QCURVE SMOOTH"
);
},
{
closed = 1;
nodes = (
"469 938 OFFCURVE",
"395 829 OFFCURVE",
"313 829 QCURVE SMOOTH",
"237 829 OFFCURVE",
"166 934 OFFCURVE",
"166 1069 QCURVE SMOOTH",
"166 1203 OFFCURVE",
"236 1305 OFFCURVE",
"313 1305 QCURVE SMOOTH",
"395 1305 OFFCURVE",
"469 1198 OFFCURVE",
"469 1069 QCURVE SMOOTH"
);
}
);
width = 635;
}
);
note = ordmasculine;
unicode = 00BA;
},
{
glyphname = uni2126;
lastChange = "2019-12-18 23:13:52 +0000";
layers = (
{
layerId = "E3E67A92-B1FB-4433-B88A-D288516649AC";
paths = (
{
closed = 1;
nodes = (
"1012 1276 OFFCURVE",
"1232 1050 OFFCURVE",
"1232 801 QCURVE SMOOTH",
"1232 602 OFFCURVE",
"1049 364 OFFCURVE",
"879 343 QCURVE",
"852 0 LINE",
"1421 0 LINE",
"1440 330 LINE",
"1374 330 LINE",
"1317 186 LINE",
"1237 170 OFFCURVE",
"1033 170 QCURVE SMOOTH",
"961 170 LINE",
"971 271 LINE",
"1185 304 OFFCURVE",
"1441 590 OFFCURVE",
"1441 801 QCURVE SMOOTH",
"1441 1073 OFFCURVE",
"1109 1356 OFFCURVE",
"786 1356 QCURVE SMOOTH",
"463 1356 OFFCURVE",
"131 1073 OFFCURVE",
"131 801 QCURVE SMOOTH",
"131 590 OFFCURVE",
"386 304 OFFCURVE",
"601 271 QCURVE",
"611 170 LINE",
"539 170 LINE SMOOTH",
"335 170 OFFCURVE",
"255 186 QCURVE",
"198 330 LINE",
"132 330 LINE",
"151 0 LINE",
"720 0 LINE",
"693 343 LINE",
"524 364 OFFCURVE",
"340 602 OFFCURVE",
"340 801 QCURVE SMOOTH",
"340 1049 OFFCURVE",
"560 1276 OFFCURVE",
"786 1276 QCURVE SMOOTH"
);
}
);
width = 1573;
}
);
note = uni2126;
unicode = 2126;
},
{
glyphname = ae;
lastChange = "2019-12-18 23:13:52 +0000";
layers = (
{
layerId = "E3E67A92-B1FB-4433-B88A-D288516649AC";
paths = (
{
closed = 1;
nodes = (
"1298 473 LINE",
"1298 555 LINE SMOOTH",
"1298 757 OFFCURVE",
"1121 965 OFFCURVE",
"946 965 QCURVE SMOOTH",
"790 965 OFFCURVE",
"702 887 QCURVE",
"632 961 OFFCURVE",
"465 961 QCURVE SMOOTH",
"342 961 OFFCURVE",
"180 926 QCURVE",
"180 721 LINE",
"236 721 LINE",
"270 838 LINE",
"353 885 OFFCURVE",
"453 885 QCURVE SMOOTH",
"527 885 OFFCURVE",
"598 793 OFFCURVE",
"598 696 QCURVE SMOOTH",
"598 549 LINE",
"457 545 LINE SMOOTH",
"305 542 OFFCURVE",
"145 477 OFFCURVE",
"72 354 OFFCURVE",
"72 260 QCURVE SMOOTH",
"72 -20 OFFCURVE",
"313 -20 QCURVE SMOOTH",
"506 -20 OFFCURVE",
"651 109 QCURVE",
"743 -20 OFFCURVE",
"973 -20 QCURVE SMOOTH",
"1056 -20 OFFCURVE",
"1212 25 OFFCURVE",
"1262 57 QCURVE",
"1262 113 LINE",
"1214 102 OFFCURVE",
"1066 84 OFFCURVE",
"1012 84 QCURVE SMOOTH",
"924 84 OFFCURVE",
"817 143 OFFCURVE",
"766 259 OFFCURVE",
"764 383 QCURVE SMOOTH",
"764 473 LINE"
);
},
{
closed = 1;
nodes = (
"238 90 OFFCURVE",
"238 266 QCURVE SMOOTH",
"238 376 OFFCURVE",
"333 470 OFFCURVE",
"467 475 QCURVE SMOOTH",
"598 479 LINE",
"598 319 LINE SMOOTH",
"598 271 OFFCURVE",
"616 175 OFFCURVE",
"625 158 QCURVE",
"496 90 OFFCURVE",
"381 90 QCURVE SMOOTH"
);
},
{
closed = 1;
nodes = (
"1037 885 OFFCURVE",
"1124 724 OFFCURVE",
"1124 553 QCURVE",
"764 553 LINE",
"764 737 OFFCURVE",
"851 885 OFFCURVE",
"946 885 QCURVE SMOOTH"
);
}
);
width = 1366;
}
);
note = ae;
unicode = 00E6;
},
{
glyphname = oslash;
lastChange = "2019-12-18 23:13:52 +0000";
layers = (
{
layerId = "E3E67A92-B1FB-4433-B88A-D288516649AC";
paths = (
{
closed = 1;
nodes = (
"848 1022 LINE",
"764 901 LINE",
"663 965 OFFCURVE",
"514 965 QCURVE SMOOTH",
"294 965 OFFCURVE",
"78 713 OFFCURVE",
"78 475 QCURVE SMOOTH",
"78 219 OFFCURVE",
"197 94 QCURVE",
"70 -84 LINE",
"178 -84 LINE",
"264 39 LINE",
"361 -20 OFFCURVE",
"506 -20 QCURVE SMOOTH",
"946 -20 OFFCURVE",
"946 475 QCURVE SMOOTH",
"946 721 OFFCURVE",
"829 848 QCURVE",
"952 1022 LINE"
);
},
{
closed = 1;
nodes = (
"258 699 OFFCURVE",
"375 885 OFFCURVE",
"506 885 QCURVE SMOOTH",
"630 885 OFFCURVE",
"692 801 QCURVE",
"287 223 LINE",
"258 314 OFFCURVE",
"258 475 QCURVE SMOOTH"
);
},
{
closed = 1;
nodes = (
"766 255 OFFCURVE",
"638 59 OFFCURVE",
"506 59 QCURVE SMOOTH",
"390 59 OFFCURVE",
"330 135 QCURVE",
"735 715 LINE",
"766 622 OFFCURVE",
"766 475 QCURVE SMOOTH"
);
}
);
width = 1024;
}
);
note = oslash;
unicode = 00F8;
},
{
glyphname = questiondown;
lastChange = "2019-12-18 23:13:52 +0000";
layers = (
{
layerId = "E3E67A92-B1FB-4433-B88A-D288516649AC";
paths = (
{
closed = 1;
nodes = (
"457 322 LINE",
"399 309 LINE SMOOTH",
"245 277 OFFCURVE",
"84 77 OFFCURVE",
"84 -84 QCURVE SMOOTH",
"84 -424 OFFCURVE",
"508 -424 QCURVE SMOOTH",
"655 -424 OFFCURVE",
"803 -381 QCURVE",
"803 -127 LINE",
"737 -127 LINE",
"702 -291 LINE",
"620 -340 OFFCURVE",
"508 -340 QCURVE SMOOTH",
"376 -340 OFFCURVE",
"268 -220 OFFCURVE",
"268 -72 QCURVE SMOOTH",
"268 62 OFFCURVE",
"346 202 OFFCURVE",
"432 219 QCURVE SMOOTH",
"575 248 LINE",
"549 582 LINE",
"469 582 LINE"
);
},
{
closed = 1;
nodes = (
"379 789 OFFCURVE",
"449 719 OFFCURVE",
"500 719 QCURVE SMOOTH",
"549 719 OFFCURVE",
"621 788 OFFCURVE",
"621 840 QCURVE SMOOTH",
"621 890 OFFCURVE",
"550 961 OFFCURVE",
"500 961 QCURVE SMOOTH",
"448 961 OFFCURVE",
"379 889 OFFCURVE",
"379 840 QCURVE SMOOTH"
);
}
);
width = 909;
}
);
note = questiondown;
unicode = 00BF;
},
{
glyphname = exclamdown;
lastChange = "2019-12-18 23:13:52 +0000";
layers = (
{
layerId = "E3E67A92-B1FB-4433-B88A-D288516649AC";
paths = (
{
closed = 1;
nodes = (
"219 789 OFFCURVE",
"289 719 OFFCURVE",
"340 719 QCURVE SMOOTH",
"391 719 OFFCURVE",
"461 789 OFFCURVE",
"461 840 QCURVE SMOOTH",
"461 889 OFFCURVE",
"392 961 OFFCURVE",
"340 961 QCURVE SMOOTH",
"288 961 OFFCURVE",
"219 889 OFFCURVE",
"219 840 QCURVE SMOOTH"
);
},
{
closed = 1;
nodes = (
"387 543 LINE",
"293 543 LINE",
"231 -410 LINE",
"449 -410 LINE"
);
}
);
width = 682;
}
);
note = exclamdown;
unicode = 00A1;
},
{
glyphname = logicalnot;
lastChange = "2019-12-18 23:13:52 +0000";
layers = (
{
layerId = "E3E67A92-B1FB-4433-B88A-D288516649AC";
paths = (
{
closed = 1;
nodes = (
"102 731 LINE",
"102 629 LINE",
"952 629 LINE",
"952 203 LINE",
"1055 203 LINE",
"1055 731 LINE"
);
}
);
width = 1155;
}
);
note = logicalnot;
unicode = 00AC;
},
{
glyphname = radical;
lastChange = "2019-12-18 23:13:52 +0000";
layers = (
{
layerId = "E3E67A92-B1FB-4433-B88A-D288516649AC";
paths = (
{
closed = 1;
nodes = (
"1122 1620 LINE",
"1032 1620 LINE",
"580 158 LINE",
"322 895 LINE",
"51 895 LINE",
"51 815 LINE",
"219 815 LINE",
"516 -14 LINE",
"623 -14 LINE"
);
}
);
width = 1124;
}
);
note = radical;
unicode = 221A;
},
{
glyphname = florin;
lastChange = "2019-12-18 23:13:52 +0000";
layers = (
{
layerId = "E3E67A92-B1FB-4433-B88A-D288516649AC";
paths = (
{
closed = 1;
nodes = (
"362 -285 LINE",
"528 -285 LINE",
"528 702 LINE",
"778 702 LINE",
"778 786 LINE",
"528 786 LINE",
"528 1016 LINE SMOOTH",
"528 1167 OFFCURVE",
"579 1282 OFFCURVE",
"643 1282 QCURVE SMOOTH",
"671 1282 OFFCURVE",
"709 1271 OFFCURVE",
"725 1261 QCURVE",
"770 1138 LINE",
"819 1138 LINE",
"819 1343 LINE",
"791 1351 OFFCURVE",
"721 1362 OFFCURVE",
"676 1362 QCURVE SMOOTH",
"527 1362 OFFCURVE",
"362 1138 OFFCURVE",
"362 930 QCURVE SMOOTH",
"362 790 LINE",
"200 751 LINE",
"200 702 LINE",
"362 702 LINE"
);
}
);
width = 1024;
}
);
note = florin;
unicode = 0192;
},
{
glyphname = approxequal;
lastChange = "2019-12-18 23:13:52 +0000";
layers = (
{
layerId = "E3E67A92-B1FB-4433-B88A-D288516649AC";
paths = (
{
closed = 1;
nodes = (
"862 711 OFFCURVE",
"968 787 OFFCURVE",
"1032 925 OFFCURVE",
"1049 1055 QCURVE",
"946 1055 LINE",
"927 918 OFFCURVE",
"849 813 OFFCURVE",
"780 813 QCURVE SMOOTH",
"745 813 OFFCURVE",
"662 862 OFFCURVE",
"576 934 QCURVE SMOOTH",
"501 997 OFFCURVE",
"382 1055 OFFCURVE",
"326 1055 QCURVE SMOOTH",
"208 1055 OFFCURVE",
"75 898 OFFCURVE",
"57 711 QCURVE",
"158 711 LINE",
"171 843 OFFCURVE",
"249 952 OFFCURVE",
"326 952 QCURVE SMOOTH",
"364 952 OFFCURVE",
"461 895 OFFCURVE",
"535 832 QCURVE SMOOTH",
"674 711 OFFCURVE",
"780 711 QCURVE SMOOTH"
);
},
{
closed = 1;
nodes = (
"862 301 OFFCURVE",
"968 377 OFFCURVE",
"1032 515 OFFCURVE",
"1049 645 QCURVE",
"946 645 LINE",
"927 508 OFFCURVE",
"849 403 OFFCURVE",
"780 403 QCURVE SMOOTH",
"745 403 OFFCURVE",
"662 452 OFFCURVE",
"576 524 QCURVE SMOOTH",
"501 587 OFFCURVE",
"382 645 OFFCURVE",
"326 645 QCURVE SMOOTH",
"208 645 OFFCURVE",
"75 488 OFFCURVE",
"57 301 QCURVE",
"158 301 LINE",
"171 433 OFFCURVE",
"249 542 OFFCURVE",
"326 542 QCURVE SMOOTH",
"364 542 OFFCURVE",
"461 485 OFFCURVE",
"535 422 QCURVE SMOOTH",
"674 301 OFFCURVE",
"780 301 QCURVE SMOOTH"
);
}
);
width = 1124;
}
);
note = approxequal;
unicode = 2248;
},
{
glyphname = uni2206;
lastChange = "2019-12-18 23:13:52 +0000";
layers = (
{
layerId = "E3E67A92-B1FB-4433-B88A-D288516649AC";
paths = (
{
closed = 1;
nodes = (
"1207 80 LINE",
"712 1352 LINE",
"522 1352 LINE",
"45 80 LINE",
"46 0 LINE",
"1207 0 LINE"
);
},
{
closed = 1;
nodes = (
"979 109 LINE",
"173 109 LINE",
"573 1196 LINE"
);
}
);
width = 1253;
}
);
note = uni2206;
unicode = 2206;
},
{
glyphname = guillemotleft;
lastChange = "2019-12-18 23:13:52 +0000";
layers = (
{
layerId = "E3E67A92-B1FB-4433-B88A-D288516649AC";
paths = (
{
closed = 1;
nodes = (
"117 430 LINE",
"451 74 LINE",
"532 74 LINE",
"305 463 LINE",
"532 852 LINE",
"451 852 LINE",
"117 496 LINE"
);
},
{
closed = 1;
nodes = (
"526 430 LINE",
"861 74 LINE",
"942 74 LINE",
"714 463 LINE",
"942 852 LINE",
"861 852 LINE",
"526 496 LINE"
);
}
);
width = 1024;
}
);
note = guillemotleft;
unicode = 00AB;
},
{
glyphname = guillemotright;
lastChange = "2019-12-18 23:13:52 +0000";
layers = (
{
layerId = "E3E67A92-B1FB-4433-B88A-D288516649AC";
paths = (
{
closed = 1;
nodes = (
"907 496 LINE",
"573 852 LINE",
"492 852 LINE",
"719 463 LINE",
"492 74 LINE",
"573 74 LINE",
"907 430 LINE"
);
},
{
closed = 1;
nodes = (
"498 496 LINE",
"163 852 LINE",
"82 852 LINE",
"310 463 LINE",
"82 74 LINE",
"163 74 LINE",
"498 430 LINE"
);
}
);
width = 1024;
}
);
note = guillemotright;
unicode = 00BB;
},
{
glyphname = ellipsis;
lastChange = "2019-12-18 23:13:52 +0000";
layers = (
{
layerId = "E3E67A92-B1FB-4433-B88A-D288516649AC";
paths = (
{
closed = 1;
nodes = (
"459 143 OFFCURVE",
"389 213 OFFCURVE",
"338 213 QCURVE SMOOTH",
"287 213 OFFCURVE",
"217 143 OFFCURVE",
"217 92 QCURVE SMOOTH",
"217 43 OFFCURVE",
"286 -29 OFFCURVE",
"338 -29 QCURVE SMOOTH",
"390 -29 OFFCURVE",
"459 43 OFFCURVE",
"459 92 QCURVE SMOOTH"
);
},
{
closed = 1;
nodes = (
"1145 143 OFFCURVE",
"1075 213 OFFCURVE",
"1024 213 QCURVE SMOOTH",
"973 213 OFFCURVE",
"903 143 OFFCURVE",
"903 92 QCURVE SMOOTH",
"903 43 OFFCURVE",
"972 -29 OFFCURVE",
"1024 -29 QCURVE SMOOTH",
"1076 -29 OFFCURVE",
"1145 43 OFFCURVE",
"1145 92 QCURVE SMOOTH"
);
},
{
closed = 1;
nodes = (
"1831 143 OFFCURVE",
"1761 213 OFFCURVE",
"1710 213 QCURVE SMOOTH",
"1659 213 OFFCURVE",
"1589 143 OFFCURVE",
"1589 92 QCURVE SMOOTH",
"1589 43 OFFCURVE",
"1658 -29 OFFCURVE",
"1710 -29 QCURVE SMOOTH",
"1762 -29 OFFCURVE",
"1831 43 OFFCURVE",
"1831 92 QCURVE SMOOTH"
);
}
);
width = 2048;
}
);
note = ellipsis;
unicode = 2026;
},
{
glyphname = OE;
lastChange = "2019-12-18 23:13:52 +0000";
layers = (
{
layerId = "E3E67A92-B1FB-4433-B88A-D288516649AC";
paths = (
{
closed = 1;
nodes = (
"1700 0 LINE",
"1718 354 LINE",
"1653 354 LINE",
"1595 106 LINE",
"1515 90 OFFCURVE",
"1257 90 QCURVE SMOOTH",
"1075 90 LINE",
"1075 637 LINE",
"1356 637 LINE",
"1386 475 LINE",
"1450 475 LINE",
"1450 887 LINE",
"1386 887 LINE",
"1356 727 LINE",
"1075 727 LINE",
"1075 1251 LINE",
"1212 1251 LINE SMOOTH",
"1424 1251 OFFCURVE",
"1536 1237 QCURVE",
"1569 1020 LINE",
"1634 1020 LINE",
"1634 1341 LINE",
"1012 1341 LINE",
"739 1348 LINE SMOOTH",
"408 1348 OFFCURVE",
"84 1011 OFFCURVE",
"84 672 QCURVE SMOOTH",
"84 335 OFFCURVE",
"414 -6 OFFCURVE",
"739 -6 QCURVE SMOOTH",
"1016 0 LINE"
);
},
{
closed = 1;
nodes = (
"508 74 OFFCURVE",
"293 352 OFFCURVE",
"293 672 QCURVE SMOOTH",
"293 991 OFFCURVE",
"508 1268 OFFCURVE",
"739 1268 QCURVE SMOOTH",
"831 1268 OFFCURVE",
"881 1257 QCURVE",
"881 84 LINE",
"817 74 OFFCURVE",
"739 74 QCURVE SMOOTH"
);
}
);
width = 1821;
}
);
note = OE;
unicode = 0152;
},
{
glyphname = oe;
lastChange = "2019-12-18 23:13:52 +0000";
layers = (
{
layerId = "E3E67A92-B1FB-4433-B88A-D288516649AC";
paths = (
{
closed = 1;
nodes = (
"1407 473 LINE",
"1407 555 LINE SMOOTH",
"1407 965 OFFCURVE",
"1063 965 QCURVE SMOOTH",
"867 965 OFFCURVE",
"772 829 QCURVE",
"673 965 OFFCURVE",
"473 965 QCURVE SMOOTH",
"273 965 OFFCURVE",
"78 713 OFFCURVE",
"78 475 QCURVE SMOOTH",
"78 233 OFFCURVE",
"272 -20 OFFCURVE",
"465 -20 QCURVE SMOOTH",
"671 -20 OFFCURVE",
"770 111 QCURVE",
"867 -20 OFFCURVE",
"1085 -20 QCURVE SMOOTH",
"1163 -20 OFFCURVE",
"1323 25 OFFCURVE",
"1370 57 QCURVE",
"1370 113 LINE",
"1327 102 OFFCURVE",
"1188 84 OFFCURVE",
"1137 84 QCURVE SMOOTH",
"1000 84 OFFCURVE",
"864 255 OFFCURVE",
"864 455 QCURVE SMOOTH",
"864 473 LINE"
);
},
{
closed = 1;
nodes = (
"573 885 OFFCURVE",
"679 709 OFFCURVE",
"684 502 QCURVE SMOOTH",
"684 475 LINE SMOOTH",
"684 259 OFFCURVE",
"578 59 OFFCURVE",
"465 59 QCURVE SMOOTH",
"356 59 OFFCURVE",
"258 251 OFFCURVE",
"258 475 QCURVE SMOOTH",
"258 698 OFFCURVE",
"355 885 OFFCURVE",
"465 885 QCURVE SMOOTH"
);
},
{
closed = 1;
nodes = (
"1150 885 OFFCURVE",
"1233 729 OFFCURVE",
"1233 553 QCURVE",
"866 553 LINE",
"866 717 OFFCURVE",
"967 885 OFFCURVE",
"1063 885 QCURVE SMOOTH"
);
}
);
width = 1479;
}
);
note = oe;
unicode = 0153;
},
{
glyphname = endash;
lastChange = "2019-12-18 23:13:52 +0000";
layers = (
{
layerId = "E3E67A92-B1FB-4433-B88A-D288516649AC";
paths = (
{
closed = 1;
nodes = (
"-14 528 LINE",
"-14 426 LINE",
"1038 426 LINE",
"1038 528 LINE"
);
}
);
width = 1024;
}
);
note = endash;
unicode = 2013;
},
{
glyphname = emdash;
lastChange = "2019-12-18 23:13:52 +0000";
layers = (
{
layerId = "E3E67A92-B1FB-4433-B88A-D288516649AC";
paths = (
{
closed = 1;
nodes = (
"-14 528 LINE",
"-14 426 LINE",
"2062 426 LINE",
"2062 528 LINE"
);
}
);
width = 2048;
}
);
note = emdash;
unicode = 2014;
},
{
glyphname = quotedblleft;
lastChange = "2019-12-18 23:13:52 +0000";
layers = (
{
layerId = "E3E67A92-B1FB-4433-B88A-D288516649AC";
paths = (
{
closed = 1;
nodes = (
"518 929 OFFCURVE",
"598 838 OFFCURVE",
"662 838 QCURVE SMOOTH",
"714 838 OFFCURVE",
"782 894 OFFCURVE",
"782 948 QCURVE SMOOTH",
"782 1013 OFFCURVE",
"715 1048 QCURVE SMOOTH",
"677 1068 OFFCURVE",
"647 1097 OFFCURVE",
"647 1118 QCURVE SMOOTH",
"647 1230 OFFCURVE",
"823 1286 QCURVE",
"823 1364 LINE",
"674 1319 OFFCURVE",
"518 1134 OFFCURVE",
"518 999 QCURVE SMOOTH"
);
},
{
closed = 1;
nodes = (
"98 929 OFFCURVE",
"178 838 OFFCURVE",
"242 838 QCURVE SMOOTH",
"294 838 OFFCURVE",
"362 894 OFFCURVE",
"362 948 QCURVE SMOOTH",
"362 1013 OFFCURVE",
"295 1048 QCURVE SMOOTH",
"257 1068 OFFCURVE",
"227 1097 OFFCURVE",
"227 1118 QCURVE SMOOTH",
"227 1230 OFFCURVE",
"403 1286 QCURVE",
"403 1364 LINE",
"254 1319 OFFCURVE",
"98 1134 OFFCURVE",
"98 999 QCURVE SMOOTH"
);
}
);
width = 909;
}
);
note = quotedblleft;
unicode = 201C;
},
{
glyphname = quotedblright;
lastChange = "2019-12-18 23:13:52 +0000";
layers = (
{
layerId = "E3E67A92-B1FB-4433-B88A-D288516649AC";
paths = (
{
closed = 1;
nodes = (
"391 1275 OFFCURVE",
"309 1362 OFFCURVE",
"248 1362 QCURVE SMOOTH",
"195 1362 OFFCURVE",
"127 1305 OFFCURVE",
"127 1251 QCURVE SMOOTH",
"127 1187 OFFCURVE",
"195 1152 QCURVE SMOOTH",
"232 1133 OFFCURVE",
"262 1101 OFFCURVE",
"262 1081 QCURVE SMOOTH",
"262 969 OFFCURVE",
"86 913 QCURVE",
"86 836 LINE",
"232 878 OFFCURVE",
"391 1063 OFFCURVE",
"391 1200 QCURVE SMOOTH"
);
},
{
closed = 1;
nodes = (
"811 1270 OFFCURVE",
"732 1362 OFFCURVE",
"668 1362 QCURVE SMOOTH",
"615 1362 OFFCURVE",
"547 1305 OFFCURVE",
"547 1251 QCURVE SMOOTH",
"547 1187 OFFCURVE",
"615 1152 QCURVE SMOOTH",
"652 1133 OFFCURVE",
"682 1101 OFFCURVE",
"682 1081 QCURVE SMOOTH",
"682 969 OFFCURVE",
"506 913 QCURVE",
"506 836 LINE",
"652 878 OFFCURVE",
"811 1063 OFFCURVE",
"811 1200 QCURVE SMOOTH"
);
}
);
width = 909;
}
);
note = quotedblright;
unicode = 201D;
},
{
glyphname = quoteleft;
lastChange = "2019-12-18 23:13:52 +0000";
layers = (
{
layerId = "E3E67A92-B1FB-4433-B88A-D288516649AC";
paths = (
{
closed = 1;
nodes = (
"197 925 OFFCURVE",
"279 838 OFFCURVE",
"340 838 QCURVE SMOOTH",
"393 838 OFFCURVE",
"461 894 OFFCURVE",
"461 948 QCURVE SMOOTH",
"461 1013 OFFCURVE",
"394 1048 QCURVE SMOOTH",
"356 1068 OFFCURVE",
"326 1097 OFFCURVE",
"326 1118 QCURVE SMOOTH",
"326 1230 OFFCURVE",
"502 1286 QCURVE",
"502 1364 LINE",
"353 1319 OFFCURVE",
"197 1134 OFFCURVE",
"197 999 QCURVE SMOOTH"
);
}
);
width = 682;
}
);
note = quoteleft;
unicode = 2018;
},
{
glyphname = quoteright;
lastChange = "2019-12-18 23:13:52 +0000";
layers = (
{
layerId = "E3E67A92-B1FB-4433-B88A-D288516649AC";
paths = (
{
closed = 1;
nodes = (
"485 1275 OFFCURVE",
"403 1362 OFFCURVE",
"342 1362 QCURVE SMOOTH",
"289 1362 OFFCURVE",
"221 1305 OFFCURVE",
"221 1251 QCURVE SMOOTH",
"221 1187 OFFCURVE",
"289 1152 QCURVE SMOOTH",
"326 1133 OFFCURVE",
"356 1101 OFFCURVE",
"356 1081 QCURVE SMOOTH",
"356 969 OFFCURVE",
"180 913 QCURVE",
"180 836 LINE",
"326 878 OFFCURVE",
"485 1063 OFFCURVE",
"485 1200 QCURVE SMOOTH"
);
}
);
width = 682;
}
);
note = quoteright;
unicode = 2019;
},
{
glyphname = divide;
lastChange = "2019-12-18 23:13:52 +0000";
layers = (
{
layerId = "E3E67A92-B1FB-4433-B88A-D288516649AC";
paths = (
{
closed = 1;
nodes = (
"657 1103 OFFCURVE",
"601 1159 OFFCURVE",
"561 1159 QCURVE SMOOTH",
"520 1159 OFFCURVE",
"464 1103 OFFCURVE",
"464 1063 QCURVE SMOOTH",
"464 1023 OFFCURVE",
"520 967 OFFCURVE",
"561 967 QCURVE SMOOTH",
"601 967 OFFCURVE",
"657 1023 OFFCURVE",
"657 1063 QCURVE SMOOTH"
);
},
{
closed = 1;
nodes = (
"657 337 OFFCURVE",
"601 393 OFFCURVE",
"561 393 QCURVE SMOOTH",
"520 393 OFFCURVE",
"464 337 OFFCURVE",
"464 297 QCURVE SMOOTH",
"464 257 OFFCURVE",
"520 201 OFFCURVE",
"561 201 QCURVE SMOOTH",
"601 201 OFFCURVE",
"657 257 OFFCURVE",
"657 297 QCURVE SMOOTH"
);
},
{
closed = 1;
nodes = (
"85 731 LINE",
"85 629 LINE",
"1038 629 LINE",
"1038 731 LINE"
);
}
);
width = 1124;
}
);
note = divide;
unicode = 00F7;
},
{
glyphname = lozenge;
lastChange = "2019-12-18 23:13:52 +0000";
layers = (
{
layerId = "E3E67A92-B1FB-4433-B88A-D288516649AC";
paths = (
{
closed = 1;
nodes = (
"1006 721 LINE",
"547 1440 LINE",
"465 1440 LINE",
"8 719 LINE",
"465 0 LINE",
"547 0 LINE"
);
},
{
closed = 1;
nodes = (
"860 721 LINE",
"508 147 LINE",
"154 721 LINE",
"508 1286 LINE"
);
}
);
width = 1012;
}
);
note = lozenge;
unicode = 25CA;
},
{
glyphname = fraction;
lastChange = "2019-12-18 23:13:52 +0000";
layers = (
{
layerId = "E3E67A92-B1FB-4433-B88A-D288516649AC";
paths = (
{
closed = 1;
nodes = (
"702 1341 LINE",
"602 1341 LINE",
"-362 0 LINE",
"-260 0 LINE"
);
}
);
width = 342;
}
);
note = fraction;
unicode = "2044,2215";
},
{
glyphname = Euro;
lastChange = "2019-12-18 23:13:52 +0000";
layers = (
{
layerId = "E3E67A92-B1FB-4433-B88A-D288516649AC";
paths = (
{
closed = 1;
nodes = (
"31 829 LINE",
"31 748 LINE",
"137 748 LINE",
"135 725 OFFCURVE",
"135 655 QCURVE SMOOTH",
"135 637 OFFCURVE",
"137 584 QCURVE",
"31 584 LINE",
"31 502 LINE",
"143 502 LINE",
"174 250 OFFCURVE",
"433 -20 OFFCURVE",
"641 -20 QCURVE SMOOTH",
"821 -20 OFFCURVE",
"989 43 QCURVE",
"993 317 LINE",
"926 317 LINE",
"901 158 LINE",
"863 113 OFFCURVE",
"734 57 OFFCURVE",
"657 57 QCURVE SMOOTH",
"529 57 OFFCURVE",
"370 276 OFFCURVE",
"350 502 QCURVE",
"700 502 LINE",
"700 584 LINE",
"346 584 LINE",
"344 601 OFFCURVE",
"344 657 QCURVE SMOOTH",
"344 680 OFFCURVE",
"346 748 QCURVE",
"700 748 LINE",
"700 829 LINE",
"350 829 LINE",
"368 1053 OFFCURVE",
"518 1276 OFFCURVE",
"662 1276 QCURVE SMOOTH",
"722 1276 OFFCURVE",
"840 1229 OFFCURVE",
"885 1186 QCURVE",
"905 1053 LINE",
"973 1053 LINE",
"969 1305 LINE",
"866 1335 OFFCURVE",
"715 1356 OFFCURVE",
"641 1356 QCURVE SMOOTH",
"430 1356 OFFCURVE",
"174 1098 OFFCURVE",
"143 829 QCURVE"
);
}
);
width = 1024;
}
);
note = Euro;
unicode = 20AC;
},
{
glyphname = guilsinglleft;
lastChange = "2019-12-18 23:13:52 +0000";
layers = (
{
layerId = "E3E67A92-B1FB-4433-B88A-D288516649AC";
paths = (
{
closed = 1;
nodes = (
"133 430 LINE",
"467 74 LINE",
"549 74 LINE",
"321 463 LINE",
"549 852 LINE",
"467 852 LINE",
"133 496 LINE"
);
}
);
width = 682;
}
);
note = guilsinglleft;
unicode = 2039;
},
{
glyphname = guilsinglright;
lastChange = "2019-12-18 23:13:52 +0000";
layers = (
{
layerId = "E3E67A92-B1FB-4433-B88A-D288516649AC";
paths = (
{
closed = 1;
nodes = (
"549 496 LINE",
"215 852 LINE",
"133 852 LINE",
"361 463 LINE",
"133 74 LINE",
"215 74 LINE",
"549 430 LINE"
);
}
);
width = 682;
}
);
note = guilsinglright;
unicode = 203A;
},
{
glyphname = uniFB01;
lastChange = "2019-12-18 23:13:52 +0000";
layers = (
{
layerId = "E3E67A92-B1FB-4433-B88A-D288516649AC";
paths = (
{
closed = 1;
nodes = (
"938 940 LINE",
"391 940 LINE",
"391 1053 LINE SMOOTH",
"391 1207 OFFCURVE",
"500 1362 OFFCURVE",
"600 1362 QCURVE SMOOTH",
"701 1362 OFFCURVE",
"776 1319 QCURVE",
"834 1208 LINE",
"885 1208 LINE",
"885 1405 LINE",
"745 1442 OFFCURVE",
"631 1442 QCURVE SMOOTH",
"225 1442 OFFCURVE",
"225 1010 QCURVE SMOOTH",
"225 944 LINE",
"63 905 LINE",
"63 856 LINE",
"225 856 LINE",
"225 78 LINE",
"86 45 LINE",
"86 0 LINE",
"532 0 LINE",
"532 45 LINE",
"391 78 LINE",
"391 856 LINE",
"772 856 LINE",
"772 70 LINE",
"633 45 LINE",
"633 0 LINE",
"1100 0 LINE",
"1100 45 LINE",
"938 70 LINE"
);
}
);
width = 1139;
}
);
note = uniFB01;
unicode = "F001,FB01";
},
{
glyphname = uniFB02;
lastChange = "2019-12-18 23:13:52 +0000";
layers = (
{
layerId = "E3E67A92-B1FB-4433-B88A-D288516649AC";
paths = (
{
closed = 1;
nodes = (
"936 1421 LINE",
"815 1421 LINE",
"597 1437 OFFCURVE",
"576 1438 OFFCURVE",
"567 1438 QCURVE SMOOTH",
"408 1438 OFFCURVE",
"225 1217 OFFCURVE",
"225 1020 QCURVE SMOOTH",
"225 944 LINE",
"63 905 LINE",
"63 856 LINE",
"225 856 LINE",
"225 78 LINE",
"86 45 LINE",
"86 0 LINE",
"532 0 LINE",
"532 45 LINE",
"391 78 LINE",
"391 856 LINE",
"641 856 LINE",
"641 940 LINE",
"391 940 LINE",
"391 1096 LINE SMOOTH",
"391 1235 OFFCURVE",
"455 1358 OFFCURVE",
"524 1358 QCURVE SMOOTH",
"633 1358 OFFCURVE",
"770 1296 QCURVE",
"770 70 LINE",
"631 45 LINE",
"631 0 LINE",
"1098 0 LINE",
"1098 45 LINE",
"936 70 LINE"
);
}
);
width = 1139;
}
);
note = uniFB02;
unicode = "F002,FB02";
},
{
glyphname = daggerdbl;
lastChange = "2019-12-18 23:13:52 +0000";
layers = (
{
layerId = "E3E67A92-B1FB-4433-B88A-D288516649AC";
paths = (
{
closed = 1;
nodes = (
"479 242 LINE",
"63 289 LINE",
"63 133 LINE",
"479 176 LINE",
"436 -240 LINE",
"592 -240 LINE",
"545 176 LINE",
"961 133 LINE",
"961 289 LINE",
"545 242 LINE",
"612 401 LINE",
"535 590 LINE",
"612 780 LINE",
"545 940 LINE",
"961 893 LINE",
"961 1049 LINE",
"545 1006 LINE",
"592 1421 LINE",
"436 1421 LINE",
"479 1006 LINE",
"63 1049 LINE",
"63 893 LINE",
"479 940 LINE",
"416 780 LINE",
"489 590 LINE",
"416 401 LINE"
);
}
);
width = 1024;
}
);
note = daggerdbl;
unicode = 2021;
},
{
glyphname = periodcentered;
lastChange = "2019-12-18 23:13:52 +0000";
layers = (
{
layerId = "E3E67A92-B1FB-4433-B88A-D288516649AC";
paths = (
{
closed = 1;
nodes = (
"377 727 OFFCURVE",
"308 799 OFFCURVE",
"256 799 QCURVE SMOOTH",
"204 799 OFFCURVE",
"135 727 OFFCURVE",
"135 678 QCURVE SMOOTH",
"135 627 OFFCURVE",
"205 557 OFFCURVE",
"256 557 QCURVE SMOOTH",
"307 557 OFFCURVE",
"377 627 OFFCURVE",
"377 678 QCURVE SMOOTH"
);
}
);
width = 512;
}
);
note = periodcentered;
unicode = 2219;
},
{
glyphname = quotesinglbase;
lastChange = "2019-12-18 23:13:52 +0000";
layers = (
{
layerId = "E3E67A92-B1FB-4433-B88A-D288516649AC";
paths = (
{
closed = 1;
nodes = (
"483 124 OFFCURVE",
"401 211 OFFCURVE",
"340 211 QCURVE SMOOTH",
"287 211 OFFCURVE",
"219 154 OFFCURVE",
"219 100 QCURVE SMOOTH",
"219 36 OFFCURVE",
"287 1 QCURVE SMOOTH",
"324 -18 OFFCURVE",
"354 -50 OFFCURVE",
"354 -70 QCURVE SMOOTH",
"354 -182 OFFCURVE",
"178 -238 QCURVE",
"178 -315 LINE",
"324 -273 OFFCURVE",
"483 -88 OFFCURVE",
"483 49 QCURVE SMOOTH"
);
}
);
width = 682;
}
);
note = quotesinglbase;
unicode = 201A;
},
{
glyphname = quotedblbase;
lastChange = "2019-12-18 23:13:52 +0000";
layers = (
{
layerId = "E3E67A92-B1FB-4433-B88A-D288516649AC";
paths = (
{
closed = 1;
nodes = (
"391 124 OFFCURVE",
"309 211 OFFCURVE",
"248 211 QCURVE SMOOTH",
"195 211 OFFCURVE",
"127 154 OFFCURVE",
"127 100 QCURVE SMOOTH",
"127 36 OFFCURVE",
"195 1 QCURVE SMOOTH",
"232 -18 OFFCURVE",
"262 -50 OFFCURVE",
"262 -70 QCURVE SMOOTH",
"262 -182 OFFCURVE",
"86 -238 QCURVE",
"86 -315 LINE",
"232 -273 OFFCURVE",
"391 -88 OFFCURVE",
"391 49 QCURVE SMOOTH"
);
},
{
closed = 1;
nodes = (
"811 119 OFFCURVE",
"732 211 OFFCURVE",
"668 211 QCURVE SMOOTH",
"615 211 OFFCURVE",
"547 154 OFFCURVE",
"547 100 QCURVE SMOOTH",
"547 36 OFFCURVE",
"615 1 QCURVE SMOOTH",
"652 -18 OFFCURVE",
"682 -50 OFFCURVE",
"682 -70 QCURVE SMOOTH",
"682 -182 OFFCURVE",
"506 -238 QCURVE",
"506 -315 LINE",
"652 -273 OFFCURVE",
"811 -88 OFFCURVE",
"811 49 QCURVE SMOOTH"
);
}
);
width = 909;
}
);
note = quotedblbase;
unicode = 201E;
},
{
glyphname = perthousand;
lastChange = "2019-12-18 23:13:52 +0000";
layers = (
{
layerId = "E3E67A92-B1FB-4433-B88A-D288516649AC";
paths = (
{
closed = 1;
nodes = (
"676 1362 OFFCURVE",
"373 1362 QCURVE SMOOTH",
"207 1362 OFFCURVE",
"45 1194 OFFCURVE",
"45 1016 QCURVE SMOOTH",
"45 664 OFFCURVE",
"367 664 QCURVE SMOOTH",
"526 664 OFFCURVE",
"676 839 OFFCURVE",
"676 1016 QCURVE SMOOTH"
);
},
{
closed = 1;
nodes = (
"520 879 OFFCURVE",
"452 737 OFFCURVE",
"367 737 QCURVE SMOOTH",
"279 737 OFFCURVE",
"201 861 OFFCURVE",
"201 1016 QCURVE SMOOTH",
"201 1169 OFFCURVE",
"278 1288 OFFCURVE",
"367 1288 QCURVE SMOOTH",
"452 1288 OFFCURVE",
"520 1155 OFFCURVE",
"520 1016 QCURVE SMOOTH"
);
},
{
closed = 1;
nodes = (
"1323 505 OFFCURVE",
"1168 670 OFFCURVE",
"1020 670 QCURVE SMOOTH",
"854 670 OFFCURVE",
"692 502 OFFCURVE",
"692 324 QCURVE SMOOTH",
"692 -29 OFFCURVE",
"1014 -29 QCURVE SMOOTH",
"1173 -29 OFFCURVE",
"1323 147 OFFCURVE",
"1323 324 QCURVE SMOOTH"
);
},
{
closed = 1;
nodes = (
"1167 187 OFFCURVE",
"1099 45 OFFCURVE",
"1014 45 QCURVE SMOOTH",
"926 45 OFFCURVE",
"848 169 OFFCURVE",
"848 324 QCURVE SMOOTH",
"848 477 OFFCURVE",
"925 596 OFFCURVE",
"1014 596 QCURVE SMOOTH",
"1099 596 OFFCURVE",
"1167 463 OFFCURVE",
"1167 324 QCURVE SMOOTH"
);
},
{
closed = 1;
nodes = (
"2001 670 OFFCURVE",
"1698 670 QCURVE SMOOTH",
"1532 670 OFFCURVE",
"1370 502 OFFCURVE",
"1370 324 QCURVE SMOOTH",
"1370 -29 OFFCURVE",
"1692 -29 QCURVE SMOOTH",
"1851 -29 OFFCURVE",
"2001 147 OFFCURVE",
"2001 324 QCURVE SMOOTH"
);
},
{
closed = 1;
nodes = (
"1845 187 OFFCURVE",
"1777 45 OFFCURVE",
"1692 45 QCURVE SMOOTH",
"1604 45 OFFCURVE",
"1526 169 OFFCURVE",
"1526 324 QCURVE SMOOTH",
"1526 477 OFFCURVE",
"1603 596 OFFCURVE",
"1692 596 QCURVE SMOOTH",
"1777 596 OFFCURVE",
"1845 463 OFFCURVE",
"1845 324 QCURVE SMOOTH"
);
},
{
closed = 1;
nodes = (
"1214 1362 LINE",
"1104 1362 LINE",
"156 -20 LINE",
"266 -20 LINE"
);
}
);
width = 2048;
}
);
note = perthousand;
unicode = 2030;
},
{
glyphname = dotlessi;
lastChange = "2019-12-18 23:13:52 +0000";
layers = (
{
layerId = "E3E67A92-B1FB-4433-B88A-D288516649AC";
paths = (
{
closed = 1;
nodes = (
"369 940 LINE",
"70 940 LINE",
"70 895 LINE",
"203 870 LINE",
"203 70 LINE",
"43 45 LINE",
"43 0 LINE",
"530 0 LINE",
"530 45 LINE",
"369 70 LINE"
);
}
);
width = 569;
}
);
note = dotlessi;
unicode = 0131;
},
{
glyphname = circumflex;
lastChange = "2019-12-18 23:13:52 +0000";
layers = (
{
layerId = "E3E67A92-B1FB-4433-B88A-D288516649AC";
paths = (
{
closed = 1;
nodes = (
"74 1119 LINE",
"342 1302 LINE",
"610 1119 LINE",
"666 1119 LINE",
"666 1152 LINE",
"449 1425 LINE",
"236 1425 LINE",
"18 1152 LINE",
"18 1119 LINE"
);
}
);
width = 682;
}
);
note = circumflex;
unicode = 02C6;
},
{
glyphname = tilde;
lastChange = "2019-12-18 23:13:52 +0000";
layers = (
{
layerId = "E3E67A92-B1FB-4433-B88A-D288516649AC";
paths = (
{
closed = 1;
nodes = (
"651 1118 OFFCURVE",
"666 1359 QCURVE",
"614 1359 LINE",
"605 1291 OFFCURVE",
"557 1241 OFFCURVE",
"514 1241 QCURVE SMOOTH",
"482 1241 OFFCURVE",
"415 1284 OFFCURVE",
"342 1337 OFFCURVE",
"261 1380 OFFCURVE",
"213 1380 QCURVE SMOOTH",
"33 1380 OFFCURVE",
"18 1138 QCURVE",
"70 1138 LINE",
"77 1188 OFFCURVE",
"99 1233 OFFCURVE",
"138 1257 OFFCURVE",
"170 1257 QCURVE SMOOTH",
"203 1257 OFFCURVE",
"270 1214 OFFCURVE",
"342 1161 OFFCURVE",
"423 1118 OFFCURVE",
"471 1118 QCURVE SMOOTH"
);
}
);
width = 682;
}
);
note = tilde;
unicode = 02DC;
},
{
glyphname = uni02C9;
lastChange = "2019-12-18 23:13:52 +0000";
layers = (
{
layerId = "E3E67A92-B1FB-4433-B88A-D288516649AC";
paths = (
{
closed = 1;
nodes = (
"655 1141 LINE",
"655 1250 LINE",
"27 1250 LINE",
"27 1141 LINE"
);
}
);
width = 682;
}
);
note = uni02C9;
unicode = 02C9;
},
{
glyphname = breve;
lastChange = "2019-12-18 23:13:52 +0000";
layers = (
{
layerId = "E3E67A92-B1FB-4433-B88A-D288516649AC";
paths = (
{
closed = 1;
nodes = (
"472 1119 OFFCURVE",
"622 1268 OFFCURVE",
"627 1399 QCURVE",
"553 1399 LINE",
"536 1332 OFFCURVE",
"424 1260 OFFCURVE",
"340 1260 QCURVE SMOOTH",
"256 1260 OFFCURVE",
"143 1332 OFFCURVE",
"127 1399 QCURVE",
"53 1399 LINE",
"56 1272 OFFCURVE",
"206 1119 OFFCURVE",
"340 1119 QCURVE SMOOTH"
);
}
);
width = 682;
}
);
note = breve;
unicode = 02D8;
},
{
glyphname = dotaccent;
lastChange = "2019-12-18 23:13:52 +0000";
layers = (
{
layerId = "E3E67A92-B1FB-4433-B88A-D288516649AC";
paths = (
{
closed = 1;
nodes = (
"452 1292 OFFCURVE",
"388 1356 OFFCURVE",
"343 1356 QCURVE SMOOTH",
"299 1356 OFFCURVE",
"235 1292 OFFCURVE",
"235 1247 QCURVE SMOOTH",
"235 1203 OFFCURVE",
"299 1139 OFFCURVE",
"343 1139 QCURVE SMOOTH",
"388 1139 OFFCURVE",
"452 1203 OFFCURVE",
"452 1247 QCURVE SMOOTH"
);
}
);
width = 682;
}
);
note = dotaccent;
unicode = 02D9;
},
{
glyphname = ring;
lastChange = "2019-12-18 23:13:52 +0000";
layers = (
{
layerId = "E3E67A92-B1FB-4433-B88A-D288516649AC";
paths = (
{
closed = 1;
nodes = (
"543 1364 OFFCURVE",
"424 1483 OFFCURVE",
"340 1483 QCURVE SMOOTH",
"256 1483 OFFCURVE",
"137 1364 OFFCURVE",
"137 1280 QCURVE SMOOTH",
"137 1196 OFFCURVE",
"256 1077 OFFCURVE",
"340 1077 QCURVE SMOOTH",
"424 1077 OFFCURVE",
"543 1196 OFFCURVE",
"543 1280 QCURVE SMOOTH"
);
},
{
closed = 1;
nodes = (
"463 1227 OFFCURVE",
"388 1157 OFFCURVE",
"340 1157 QCURVE SMOOTH",
"291 1157 OFFCURVE",
"217 1228 OFFCURVE",
"217 1280 QCURVE SMOOTH",
"217 1331 OFFCURVE",
"289 1403 OFFCURVE",
"340 1403 QCURVE SMOOTH",
"391 1403 OFFCURVE",
"463 1331 OFFCURVE",
"463 1280 QCURVE SMOOTH"
);
}
);
width = 682;
}
);
note = ring;
unicode = 02DA;
},
{
glyphname = cedilla;
lastChange = "2019-12-18 23:13:52 +0000";
layers = (
{
layerId = "E3E67A92-B1FB-4433-B88A-D288516649AC";
paths = (
{
closed = 1;
nodes = (
"528 -161 OFFCURVE",
"425 -73 OFFCURVE",
"334 -64 QCURVE",
"352 18 LINE",
"266 18 LINE",
"225 -135 LINE",
"297 -141 OFFCURVE",
"377 -203 OFFCURVE",
"377 -252 QCURVE SMOOTH",
"377 -297 OFFCURVE",
"323 -356 OFFCURVE",
"263 -356 QCURVE SMOOTH",
"241 -356 OFFCURVE",
"165 -347 OFFCURVE",
"143 -340 QCURVE",
"143 -414 LINE",
"205 -436 OFFCURVE",
"281 -436 QCURVE SMOOTH",
"389 -436 OFFCURVE",
"528 -326 OFFCURVE",
"528 -234 QCURVE SMOOTH"
);
}
);
width = 682;
}
);
note = cedilla;
unicode = 00B8;
},
{
glyphname = hungarumlaut;
lastChange = "2019-12-18 23:13:52 +0000";
layers = (
{
layerId = "E3E67A92-B1FB-4433-B88A-D288516649AC";
paths = (
{
closed = 1;
nodes = (
"47 1119 LINE",
"340 1387 LINE",
"340 1424 LINE",
"148 1424 LINE",
"-8 1152 LINE",
"-8 1119 LINE"
);
},
{
closed = 1;
nodes = (
"398 1119 LINE",
"690 1387 LINE",
"690 1424 LINE",
"498 1424 LINE",
"342 1152 LINE",
"342 1119 LINE"
);
}
);
width = 682;
}
);
note = hungarumlaut;
unicode = 02DD;
},
{
glyphname = ogonek;
lastChange = "2019-12-18 23:13:52 +0000";
layers = (
{
layerId = "E3E67A92-B1FB-4433-B88A-D288516649AC";
paths = (
{
closed = 1;
nodes = (
"456 -403 OFFCURVE",
"524 -357 QCURVE",
"524 -293 LINE",
"468 -315 OFFCURVE",
"408 -315 QCURVE SMOOTH",
"341 -315 OFFCURVE",
"270 -236 OFFCURVE",
"270 -162 QCURVE SMOOTH",
"270 -121 OFFCURVE",
"301 -17 OFFCURVE",
"324 16 QCURVE",
"215 16 LINE",
"172 -28 OFFCURVE",
"125 -133 OFFCURVE",
"125 -186 QCURVE SMOOTH",
"125 -288 OFFCURVE",
"245 -403 OFFCURVE",
"356 -403 QCURVE SMOOTH"
);
}
);
width = 682;
}
);
note = ogonek;
unicode = 02DB;
},
{
glyphname = caron;
lastChange = "2019-12-18 23:13:52 +0000";
layers = (
{
layerId = "E3E67A92-B1FB-4433-B88A-D288516649AC";
paths = (
{
closed = 1;
nodes = (
"18 1425 LINE",
"18 1392 LINE",
"236 1119 LINE",
"449 1119 LINE",
"666 1392 LINE",
"666 1425 LINE",
"610 1425 LINE",
"342 1242 LINE",
"74 1425 LINE"
);
}
);
width = 682;
}
);
note = caron;
unicode = 02C7;
},
{
glyphname = Lslash;
lastChange = "2019-12-18 23:13:52 +0000";
layers = (
{
layerId = "E3E67A92-B1FB-4433-B88A-D288516649AC";
paths = (
{
closed = 1;
nodes = (
"43 422 LINE",
"231 532 LINE",
"231 80 LINE",
"59 53 LINE",
"59 0 LINE",
"1110 0 LINE",
"1128 385 LINE",
"1063 385 LINE",
"1001 106 LINE",
"901 86 OFFCURVE",
"688 86 QCURVE SMOOTH",
"424 86 LINE",
"424 643 LINE",
"731 821 LINE",
"731 915 LINE",
"424 737 LINE",
"424 1262 LINE",
"631 1288 LINE",
"631 1341 LINE",
"59 1341 LINE",
"59 1288 LINE",
"231 1262 LINE",
"231 627 LINE",
"43 518 LINE"
);
}
);
width = 1251;
}
);
note = Lslash;
unicode = 0141;
},
{
glyphname = lslash;
lastChange = "2019-12-18 23:13:52 +0000";
layers = (
{
layerId = "E3E67A92-B1FB-4433-B88A-D288516649AC";
paths = (
{
closed = 1;
nodes = (
"20 422 LINE",
"201 526 LINE",
"201 70 LINE",
"41 45 LINE",
"41 0 LINE",
"528 0 LINE",
"528 45 LINE",
"367 70 LINE",
"367 623 LINE",
"559 735 LINE",
"559 829 LINE",
"367 717 LINE",
"367 1421 LINE",
"41 1421 LINE",
"41 1376 LINE",
"201 1352 LINE",
"201 621 LINE",
"20 518 LINE"
);
}
);
width = 569;
}
);
note = lslash;
unicode = 0142;
},
{
glyphname = brokenbar;
lastChange = "2019-12-18 23:13:52 +0000";
layers = (
{
layerId = "E3E67A92-B1FB-4433-B88A-D288516649AC";
paths = (
{
closed = 1;
nodes = (
"256 801 LINE",
"256 1421 LINE",
"154 1421 LINE",
"154 801 LINE"
);
},
{
closed = 1;
nodes = (
"256 -442 LINE",
"256 180 LINE",
"154 180 LINE",
"154 -442 LINE"
);
}
);
width = 410;
}
);
note = brokenbar;
unicode = 00A6;
},
{
glyphname = Eth;
lastChange = "2019-12-18 23:13:52 +0000";
layers = (
{
layerId = "E3E67A92-B1FB-4433-B88A-D288516649AC";
paths = (
{
closed = 1;
nodes = (
"59 1341 LINE",
"59 1288 LINE",
"231 1262 LINE",
"231 711 LINE",
"53 711 LINE",
"53 629 LINE",
"231 629 LINE",
"231 80 LINE",
"59 53 LINE",
"59 0 LINE",
"733 -4 LINE SMOOTH",
"1067 -4 OFFCURVE",
"1397 333 OFFCURVE",
"1397 678 QCURVE SMOOTH",
"1397 1002 OFFCURVE",
"1010 1341 OFFCURVE",
"631 1341 QCURVE SMOOTH"
);
},
{
closed = 1;
nodes = (
"424 711 LINE",
"424 1251 LINE",
"586 1251 LINE SMOOTH",
"891 1251 OFFCURVE",
"1188 959 OFFCURVE",
"1188 670 QCURVE SMOOTH",
"1188 367 OFFCURVE",
"956 86 OFFCURVE",
"709 86 QCURVE SMOOTH",
"544 86 OFFCURVE",
"424 94 QCURVE",
"424 629 LINE",
"801 629 LINE",
"801 711 LINE"
);
}
);
width = 1479;
}
);
note = Eth;
unicode = 00D0;
},
{
glyphname = eth;
lastChange = "2019-12-18 23:13:52 +0000";
layers = (
{
layerId = "E3E67A92-B1FB-4433-B88A-D288516649AC";
paths = (
{
closed = 1;
nodes = (
"229 1006 LINE",
"524 1178 LINE",
"663 1046 OFFCURVE",
"711 868 QCURVE",
"623 903 OFFCURVE",
"514 903 QCURVE SMOOTH",
"294 903 OFFCURVE",
"78 667 OFFCURVE",
"78 444 QCURVE SMOOTH",
"78 218 OFFCURVE",
"294 -20 OFFCURVE",
"506 -20 QCURVE SMOOTH",
"946 -20 OFFCURVE",
"946 444 QCURVE",
"944 479 LINE SMOOTH",
"940 734 OFFCURVE",
"776 1113 OFFCURVE",
"625 1235 QCURVE",
"819 1350 LINE",
"819 1444 LINE",
"553 1288 LINE",
"419 1377 OFFCURVE",
"238 1421 QCURVE",
"238 1343 LINE",
"354 1307 OFFCURVE",
"457 1233 QCURVE",
"229 1102 LINE"
);
},
{
closed = 1;
nodes = (
"766 241 OFFCURVE",
"638 59 OFFCURVE",
"506 59 QCURVE SMOOTH",
"377 59 OFFCURVE",
"258 233 OFFCURVE",
"258 444 QCURVE SMOOTH",
"258 653 OFFCURVE",
"376 823 OFFCURVE",
"506 823 QCURVE SMOOTH",
"640 823 OFFCURVE",
"766 644 OFFCURVE",
"766 444 QCURVE SMOOTH"
);
}
);
width = 1024;
}
);
note = eth;
unicode = 00F0;
},
{
glyphname = Thorn;
lastChange = "2019-12-18 23:13:52 +0000";
layers = (
{
layerId = "E3E67A92-B1FB-4433-B88A-D288516649AC";
paths = (
{
closed = 1;
nodes = (
"858 509 OFFCURVE",
"694 346 OFFCURVE",
"528 346 QCURVE SMOOTH",
"424 346 LINE",
"424 1006 LINE",
"522 1006 LINE SMOOTH",
"699 1006 OFFCURVE",
"858 856 OFFCURVE",
"858 686 QCURVE SMOOTH"
);
},
{
closed = 1;
nodes = (
"424 1083 LINE",
"424 1262 LINE",
"596 1288 LINE",
"596 1341 LINE",
"72 1341 LINE",
"72 1288 LINE",
"231 1262 LINE",
"231 80 LINE",
"72 53 LINE",
"72 0 LINE",
"596 0 LINE",
"596 53 LINE",
"424 80 LINE",
"424 268 LINE",
"575 268 LINE SMOOTH",
"808 268 OFFCURVE",
"1057 482 OFFCURVE",
"1057 688 QCURVE SMOOTH",
"1057 1083 OFFCURVE",
"565 1083 QCURVE SMOOTH"
);
}
);
width = 1139;
}
);
note = Thorn;
unicode = 00DE;
},
{
glyphname = thorn;
lastChange = "2019-12-18 23:13:52 +0000";
layers = (
{
layerId = "E3E67A92-B1FB-4433-B88A-D288516649AC";
paths = (
{
closed = 1;
nodes = (
"758 266 OFFCURVE",
"636 59 OFFCURVE",
"512 59 QCURVE SMOOTH",
"406 59 OFFCURVE",
"317 76 QCURVE",
"317 827 LINE",
"395 860 OFFCURVE",
"512 860 QCURVE SMOOTH",
"637 860 OFFCURVE",
"758 676 OFFCURVE",
"758 481 QCURVE SMOOTH"
);
},
{
closed = 1;
nodes = (
"152 -365 LINE",
"33 -389 LINE",
"33 -436 LINE",
"481 -436 LINE",
"481 -389 LINE",
"317 -365 LINE",
"317 -111 LINE SMOOTH",
"317 -70 OFFCURVE",
"311 2 QCURVE",
"413 -20 OFFCURVE",
"526 -20 QCURVE SMOOTH",
"729 -20 OFFCURVE",
"944 242 OFFCURVE",
"944 481 QCURVE SMOOTH",
"944 715 OFFCURVE",
"747 965 OFFCURVE",
"567 965 QCURVE SMOOTH",
"494 965 OFFCURVE",
"353 921 OFFCURVE",
"311 885 QCURVE",
"317 1029 OFFCURVE",
"317 1085 QCURVE SMOOTH",
"317 1421 LINE",
"14 1421 LINE",
"14 1376 LINE",
"152 1352 LINE"
);
}
);
width = 1024;
}
);
note = thorn;
unicode = 00FE;
},
{
glyphname = minus;
lastChange = "2019-12-18 23:13:52 +0000";
layers = (
{
layerId = "E3E67A92-B1FB-4433-B88A-D288516649AC";
paths = (
{
closed = 1;
nodes = (
"102 731 LINE",
"102 629 LINE",
"1055 629 LINE",
"1055 731 LINE"
);
}
);
width = 1155;
}
);
note = minus;
unicode = 2212;
},
{
glyphname = multiply;
lastChange = "2019-12-18 23:13:52 +0000";
layers = (
{
layerId = "E3E67A92-B1FB-4433-B88A-D288516649AC";
paths = (
{
closed = 1;
nodes = (
"924 264 LINE",
"995 336 LINE",
"651 682 LINE",
"995 1026 LINE",
"924 1098 LINE",
"578 754 LINE",
"236 1098 LINE",
"162 1024 LINE",
"506 682 LINE",
"162 336 LINE",
"233 264 LINE",
"578 608 LINE"
);
}
);
width = 1155;
}
);
note = multiply;
unicode = 00D7;
},
{
glyphname = uni00B9;
lastChange = "2019-12-18 23:13:52 +0000";
layers = (
{
layerId = "E3E67A92-B1FB-4433-B88A-D288516649AC";
paths = (
{
closed = 1;
nodes = (
"375 1346 LINE",
"303 1346 LINE",
"70 1212 LINE",
"70 1165 LINE",
"231 1223 LINE",
"231 598 LINE",
"66 584 LINE",
"66 535 LINE",
"541 535 LINE",
"541 584 LINE",
"375 598 LINE"
);
}
);
width = 614;
}
);
note = uni00B9;
unicode = 00B9;
},
{
glyphname = uni00B2;
lastChange = "2019-12-18 23:13:52 +0000";
layers = (
{
layerId = "E3E67A92-B1FB-4433-B88A-D288516649AC";
paths = (
{
closed = 1;
nodes = (
"567 643 LINE",
"180 643 LINE",
"339 785 LINE SMOOTH",
"460 890 OFFCURVE",
"551 1042 OFFCURVE",
"551 1139 QCURVE SMOOTH",
"551 1239 OFFCURVE",
"410 1350 OFFCURVE",
"276 1350 QCURVE SMOOTH",
"196 1350 OFFCURVE",
"86 1323 QCURVE",
"86 1151 LINE",
"141 1151 LINE",
"162 1249 LINE",
"215 1282 OFFCURVE",
"276 1282 QCURVE SMOOTH",
"408 1282 OFFCURVE",
"408 1139 QCURVE SMOOTH",
"408 1058 OFFCURVE",
"369 935 OFFCURVE",
"278 822 OFFCURVE",
"178 731 QCURVE SMOOTH",
"68 631 LINE",
"68 535 LINE",
"567 535 LINE"
);
}
);
width = 614;
}
);
note = uni00B2;
unicode = 00B2;
},
{
glyphname = uni00B3;
lastChange = "2019-12-18 23:13:52 +0000";
layers = (
{
layerId = "E3E67A92-B1FB-4433-B88A-D288516649AC";
paths = (
{
closed = 1;
nodes = (
"575 931 OFFCURVE",
"350 956 QCURVE",
"441 970 OFFCURVE",
"539 1076 OFFCURVE",
"539 1151 QCURVE SMOOTH",
"539 1247 OFFCURVE",
"388 1350 OFFCURVE",
"256 1350 QCURVE SMOOTH",
"179 1350 OFFCURVE",
"68 1323 QCURVE",
"68 1151 LINE",
"123 1151 LINE",
"143 1253 LINE",
"192 1282 OFFCURVE",
"256 1282 QCURVE SMOOTH",
"336 1282 OFFCURVE",
"395 1220 OFFCURVE",
"395 1143 QCURVE SMOOTH",
"395 1065 OFFCURVE",
"338 996 OFFCURVE",
"270 993 QCURVE SMOOTH",
"184 989 LINE",
"184 924 LINE",
"270 918 LINE SMOOTH",
"360 913 OFFCURVE",
"432 838 OFFCURVE",
"432 760 QCURVE SMOOTH",
"432 663 OFFCURVE",
"352 590 OFFCURVE",
"256 590 QCURVE SMOOTH",
"219 590 OFFCURVE",
"147 610 OFFCURVE",
"125 623 QCURVE",
"98 735 LINE",
"43 735 LINE",
"49 549 LINE",
"159 522 OFFCURVE",
"264 522 QCURVE SMOOTH",
"405 522 OFFCURVE",
"575 648 OFFCURVE",
"575 754 QCURVE SMOOTH"
);
}
);
width = 614;
}
);
note = uni00B3;
unicode = 00B3;
},
{
glyphname = franc;
lastChange = "2019-12-18 23:13:52 +0000";
layers = (
{
layerId = "E3E67A92-B1FB-4433-B88A-D288516649AC";
paths = (
{
closed = 1;
nodes = (
"759 612 LINE",
"790 450 LINE",
"851 450 LINE",
"851 862 LINE",
"790 862 LINE",
"759 702 LINE",
"394 702 LINE",
"394 1251 LINE",
"507 1251 LINE SMOOTH",
"719 1251 OFFCURVE",
"831 1237 QCURVE",
"863 1020 LINE",
"929 1020 LINE",
"929 1341 LINE",
"29 1341 LINE",
"29 1288 LINE",
"201 1262 LINE",
"201 384 LINE",
"28 384 LINE",
"28 302 LINE",
"201 302 LINE",
"201 80 LINE",
"42 53 LINE",
"42 0 LINE",
"597 0 LINE",
"597 53 LINE",
"394 80 LINE",
"394 302 LINE",
"668 302 LINE",
"668 384 LINE",
"394 384 LINE",
"394 612 LINE"
);
}
);
width = 1024;
}
);
note = franc;
unicode = 20A3;
},
{
glyphname = uni0111;
lastChange = "2019-12-18 23:13:52 +0000";
layers = (
{
layerId = "E3E67A92-B1FB-4433-B88A-D288516649AC";
paths = (
{
closed = 1;
nodes = (
"735 0 LINE",
"999 0 LINE",
"999 45 LINE",
"883 70 LINE",
"883 1112 LINE",
"1020 1112 LINE",
"1020 1196 LINE",
"883 1196 LINE",
"883 1421 LINE",
"559 1421 LINE",
"559 1376 LINE",
"717 1352 LINE",
"717 1196 LINE",
"442 1196 LINE",
"442 1112 LINE",
"717 1112 LINE",
"717 1088 LINE SMOOTH",
"717 975 OFFCURVE",
"723 942 QCURVE",
"612 965 OFFCURVE",
"504 965 QCURVE SMOOTH",
"292 965 OFFCURVE",
"74 708 OFFCURVE",
"74 461 QCURVE SMOOTH",
"74 -20 OFFCURVE",
"459 -20 QCURVE SMOOTH",
"610 -20 OFFCURVE",
"723 70 QCURVE"
);
},
{
closed = 1;
nodes = (
"254 883 OFFCURVE",
"514 883 QCURVE SMOOTH",
"628 883 OFFCURVE",
"717 866 QCURVE",
"717 123 LINE",
"627 84 OFFCURVE",
"514 84 QCURVE SMOOTH",
"382 84 OFFCURVE",
"254 271 OFFCURVE",
"254 461 QCURVE SMOOTH"
);
}
);
width = 1024;
}
);
note = uni0111;
unicode = 0111;
},
{
glyphname = uni00AF;
lastChange = "2019-12-18 23:13:52 +0000";
layers = (
{
layerId = "E3E67A92-B1FB-4433-B88A-D288516649AC";
paths = (
{
closed = 1;
nodes = (
"1042 1546 LINE",
"-17 1546 LINE",
"-17 1452 LINE",
"1042 1452 LINE"
);
}
);
width = 1024;
}
);
note = uni00AF;
unicode = 00AF;
},
{
glyphname = uni00B7;
lastChange = "2019-12-18 23:13:52 +0000";
layers = (
{
layerId = "E3E67A92-B1FB-4433-B88A-D288516649AC";
paths = (
{
closed = 1;
nodes = (
"462 727 OFFCURVE",
"393 799 OFFCURVE",
"341 799 QCURVE SMOOTH",
"289 799 OFFCURVE",
"220 727 OFFCURVE",
"220 678 QCURVE SMOOTH",
"220 627 OFFCURVE",
"290 557 OFFCURVE",
"341 557 QCURVE SMOOTH",
"392 557 OFFCURVE",
"462 627 OFFCURVE",
"462 678 QCURVE SMOOTH"
);
}
);
width = 682;
}
);
note = uni00B7;
unicode = 00B7;
},
{
glyphname = Gamma;
lastChange = "2019-12-18 23:13:52 +0000";
layers = (
{
layerId = "E3E67A92-B1FB-4433-B88A-D288516649AC";
paths = (
{
closed = 1;
nodes = (
"631 53 LINE",
"424 79 LINE",
"424 1255 LINE",
"678 1255 LINE SMOOTH",
"891 1255 OFFCURVE",
"991 1235 QCURVE",
"1053 956 LINE",
"1118 956 LINE",
"1100 1341 LINE",
"59 1341 LINE",
"59 1288 LINE",
"231 1261 LINE",
"231 79 LINE",
"59 53 LINE",
"59 0 LINE",
"631 0 LINE"
);
}
);
width = 1184;
}
);
note = Gamma;
unicode = 0393;
},
{
glyphname = Theta;
lastChange = "2019-12-18 23:13:52 +0000";
layers = (
{
layerId = "E3E67A92-B1FB-4433-B88A-D288516649AC";
paths = (
{
closed = 1;
nodes = (
"293 993 OFFCURVE",
"508 1276 OFFCURVE",
"739 1276 QCURVE SMOOTH",
"969 1276 OFFCURVE",
"1186 993 OFFCURVE",
"1186 672 QCURVE SMOOTH",
"1186 349 OFFCURVE",
"968 59 OFFCURVE",
"739 59 QCURVE SMOOTH",
"509 59 OFFCURVE",
"293 349 OFFCURVE",
"293 672 QCURVE SMOOTH"
);
},
{
closed = 1;
nodes = (
"84 329 OFFCURVE",
"420 -20 OFFCURVE",
"739 -20 QCURVE SMOOTH",
"1059 -20 OFFCURVE",
"1395 330 OFFCURVE",
"1395 672 QCURVE SMOOTH",
"1395 1009 OFFCURVE",
"1063 1356 OFFCURVE",
"739 1356 QCURVE SMOOTH",
"84 1356 OFFCURVE",
"84 672 QCURVE SMOOTH"
);
},
{
closed = 1;
nodes = (
"920 610 LINE",
"951 468 LINE",
"1015 468 LINE",
"1015 880 LINE",
"951 880 LINE",
"920 740 LINE",
"558 740 LINE",
"527 880 LINE",
"463 880 LINE",
"463 468 LINE",
"527 468 LINE",
"558 610 LINE"
);
}
);
width = 1479;
}
);
note = Theta;
unicode = 0398;
},
{
glyphname = Phi;
lastChange = "2019-12-18 23:13:52 +0000";
layers = (
{
layerId = "E3E67A92-B1FB-4433-B88A-D288516649AC";
paths = (
{
closed = 1;
nodes = (
"839 222 LINE",
"953 222 LINE SMOOTH",
"1100 222 OFFCURVE",
"1314 329 OFFCURVE",
"1435 547 OFFCURVE",
"1435 692 QCURVE SMOOTH",
"1435 906 OFFCURVE",
"1177 1137 OFFCURVE",
"943 1137 QCURVE SMOOTH",
"839 1137 LINE",
"839 1262 LINE",
"1011 1288 LINE",
"1011 1341 LINE",
"485 1341 LINE",
"485 1288 LINE",
"657 1262 LINE",
"657 1137 LINE",
"554 1137 LINE SMOOTH",
"320 1137 OFFCURVE",
"62 906 OFFCURVE",
"62 692 QCURVE SMOOTH",
"62 546 OFFCURVE",
"184 328 OFFCURVE",
"398 222 OFFCURVE",
"544 222 QCURVE SMOOTH",
"657 222 LINE",
"657 80 LINE",
"485 53 LINE",
"485 0 LINE",
"1011 0 LINE",
"1011 53 LINE",
"839 80 LINE"
);
},
{
closed = 1;
nodes = (
"839 300 LINE",
"839 1060 LINE",
"900 1060 LINE SMOOTH",
"1066 1060 OFFCURVE",
"1236 874 OFFCURVE",
"1236 690 QCURVE SMOOTH",
"1236 499 OFFCURVE",
"1066 300 OFFCURVE",
"906 300 QCURVE SMOOTH"
);
},
{
closed = 1;
nodes = (
"261 874 OFFCURVE",
"431 1060 OFFCURVE",
"597 1060 QCURVE SMOOTH",
"657 1060 LINE",
"657 300 LINE",
"591 300 LINE SMOOTH",
"431 300 OFFCURVE",
"261 499 OFFCURVE",
"261 690 QCURVE SMOOTH"
);
}
);
width = 1497;
}
);
note = Phi;
unicode = 03A6;
},
{
glyphname = alpha;
lastChange = "2019-12-18 23:13:52 +0000";
layers = (
{
layerId = "E3E67A92-B1FB-4433-B88A-D288516649AC";
paths = (
{
closed = 1;
nodes = (
"976 60 LINE",
"909 237 OFFCURVE",
"852 483 QCURVE",
"942 722 OFFCURVE",
"1004 864 OFFCURVE",
"1027 900 QCURVE",
"1027 940 LINE",
"870 940 LINE",
"800 690 LINE",
"794 690 LINE",
"747 838 OFFCURVE",
"597 966 OFFCURVE",
"469 966 QCURVE SMOOTH",
"283 966 OFFCURVE",
"78 695 OFFCURVE",
"78 453 QCURVE SMOOTH",
"78 226 OFFCURVE",
"241 -20 OFFCURVE",
"391 -20 QCURVE SMOOTH",
"464 -20 OFFCURVE",
"576 32 OFFCURVE",
"668 137 OFFCURVE",
"740 274 QCURVE",
"746 274 LINE",
"775 118 OFFCURVE",
"812 0 QCURVE",
"1024 0 LINE",
"1024 45 LINE"
);
},
{
closed = 1;
nodes = (
"665 294 OFFCURVE",
"586 154 OFFCURVE",
"491 78 OFFCURVE",
"431 78 QCURVE SMOOTH",
"353 78 OFFCURVE",
"259 269 OFFCURVE",
"259 453 QCURVE SMOOTH",
"259 886 OFFCURVE",
"484 886 QCURVE SMOOTH",
"584 886 OFFCURVE",
"698 689 OFFCURVE",
"724 463 QCURVE"
);
}
);
width = 1073;
}
);
note = alpha;
unicode = 03B1;
},
{
glyphname = delta;
lastChange = "2019-12-18 23:13:52 +0000";
layers = (
{
layerId = "E3E67A92-B1FB-4433-B88A-D288516649AC";
paths = (
{
closed = 1;
nodes = (
"251 1112 OFFCURVE",
"335 969 OFFCURVE",
"444 873 QCURVE",
"267 827 OFFCURVE",
"77 583 OFFCURVE",
"77 399 QCURVE SMOOTH",
"77 196 OFFCURVE",
"290 -20 OFFCURVE",
"486 -20 QCURVE SMOOTH",
"679 -20 OFFCURVE",
"888 229 OFFCURVE",
"888 450 QCURVE SMOOTH",
"888 585 OFFCURVE",
"773 798 OFFCURVE",
"631 915 QCURVE SMOOTH",
"485 1033 OFFCURVE",
"400 1148 OFFCURVE",
"400 1203 QCURVE SMOOTH",
"400 1271 OFFCURVE",
"485 1351 OFFCURVE",
"566 1351 QCURVE SMOOTH",
"668 1351 OFFCURVE",
"721 1304 QCURVE",
"763 1195 LINE",
"810 1195 LINE",
"810 1400 LINE",
"661 1431 OFFCURVE",
"564 1431 QCURVE SMOOTH",
"421 1431 OFFCURVE",
"251 1300 OFFCURVE",
"251 1188 QCURVE SMOOTH"
);
},
{
closed = 1;
nodes = (
"249 560 OFFCURVE",
"366 773 OFFCURVE",
"504 821 QCURVE",
"529 801 LINE SMOOTH",
"628 717 OFFCURVE",
"714 540 OFFCURVE",
"714 422 QCURVE SMOOTH",
"714 238 OFFCURVE",
"596 59 OFFCURVE",
"487 59 QCURVE SMOOTH",
"373 59 OFFCURVE",
"249 231 OFFCURVE",
"249 391 QCURVE SMOOTH"
);
}
);
width = 965;
}
);
note = delta;
unicode = 03B4;
},
{
glyphname = epsilon;
lastChange = "2019-12-18 23:13:52 +0000";
layers = (
{
layerId = "E3E67A92-B1FB-4433-B88A-D288516649AC";
paths = (
{
closed = 1;
nodes = (
"801 135 LINE",
"709 104 OFFCURVE",
"575 84 OFFCURVE",
"506 84 QCURVE SMOOTH",
"387 84 OFFCURVE",
"252 188 OFFCURVE",
"252 278 QCURVE SMOOTH",
"252 348 OFFCURVE",
"324 449 OFFCURVE",
"393 469 QCURVE",
"568 456 OFFCURVE",
"636 456 QCURVE SMOOTH",
"668 456 LINE",
"668 552 LINE",
"636 552 LINE SMOOTH",
"610 552 OFFCURVE",
"451 545 OFFCURVE",
"411 541 QCURVE",
"355 557 OFFCURVE",
"288 650 OFFCURVE",
"288 718 QCURVE SMOOTH",
"288 798 OFFCURVE",
"397 887 OFFCURVE",
"497 887 QCURVE SMOOTH",
"543 887 OFFCURVE",
"640 862 OFFCURVE",
"667 846 QCURVE",
"724 733 LINE",
"772 733 LINE",
"773 929 LINE",
"646 965 OFFCURVE",
"504 965 QCURVE SMOOTH",
"327 965 OFFCURVE",
"119 837 OFFCURVE",
"119 725 QCURVE SMOOTH",
"119 574 OFFCURVE",
"303 513 QCURVE",
"303 506 LINE",
"200 485 OFFCURVE",
"79 360 OFFCURVE",
"79 269 QCURVE SMOOTH",
"79 131 OFFCURVE",
"274 -20 OFFCURVE",
"457 -20 QCURVE SMOOTH",
"664 -20 OFFCURVE",
"801 70 QCURVE"
);
}
);
width = 860;
}
);
note = epsilon;
unicode = 03B5;
},
{
glyphname = sigma;
lastChange = "2019-12-18 23:13:52 +0000";
layers = (
{
layerId = "E3E67A92-B1FB-4433-B88A-D288516649AC";
paths = (
{
closed = 1;
nodes = (
"960 940 LINE",
"611 940 LINE SMOOTH",
"363 940 OFFCURVE",
"78 692 OFFCURVE",
"78 473 QCURVE SMOOTH",
"78 250 OFFCURVE",
"320 -20 OFFCURVE",
"523 -20 QCURVE SMOOTH",
"721 -20 OFFCURVE",
"956 225 OFFCURVE",
"956 438 QCURVE SMOOTH",
"956 553 OFFCURVE",
"857 768 OFFCURVE",
"764 849 QCURVE",
"764 856 LINE",
"1055 856 LINE",
"1073 1048 LINE",
"1016 1048 LINE"
);
},
{
closed = 1;
nodes = (
"407 59 OFFCURVE",
"258 266 OFFCURVE",
"258 451 QCURVE SMOOTH",
"258 649 OFFCURVE",
"460 856 OFFCURVE",
"650 856 QCURVE",
"708 796 OFFCURVE",
"774 581 OFFCURVE",
"774 444 QCURVE SMOOTH",
"774 261 OFFCURVE",
"646 59 OFFCURVE",
"533 59 QCURVE SMOOTH"
);
}
);
width = 1104;
}
);
note = sigma;
unicode = 03C3;
},
{
glyphname = tau;
lastChange = "2019-12-18 23:13:52 +0000";
layers = (
{
layerId = "E3E67A92-B1FB-4433-B88A-D288516649AC";
paths = (
{
closed = 1;
nodes = (
"318 856 LINE",
"318 197 LINE SMOOTH",
"318 87 OFFCURVE",
"424 -20 OFFCURVE",
"512 -20 QCURVE SMOOTH",
"562 -20 OFFCURVE",
"672 15 OFFCURVE",
"696 35 QCURVE",
"696 100 LINE",
"629 84 OFFCURVE",
"588 84 QCURVE SMOOTH",
"484 84 OFFCURVE",
"484 214 QCURVE SMOOTH",
"484 856 LINE",
"778 856 LINE",
"778 940 LINE",
"66 940 LINE",
"45 728 LINE",
"102 728 LINE",
"150 856 LINE"
);
}
);
width = 823;
}
);
note = tau;
unicode = 03C4;
},
{
glyphname = phi;
lastChange = "2019-12-18 23:13:52 +0000";
layers = (
{
layerId = "E3E67A92-B1FB-4433-B88A-D288516649AC";
paths = (
{
closed = 1;
nodes = (
"644 -17 LINE",
"866 3 OFFCURVE",
"1102 265 OFFCURVE",
"1102 492 QCURVE SMOOTH",
"1102 725 OFFCURVE",
"930 966 OFFCURVE",
"773 966 QCURVE SMOOTH",
"660 966 OFFCURVE",
"538 812 OFFCURVE",
"538 670 QCURVE SMOOTH",
"538 58 LINE",
"394 81 OFFCURVE",
"260 280 OFFCURVE",
"260 472 QCURVE SMOOTH",
"260 666 OFFCURVE",
"343 855 OFFCURVE",
"439 891 QCURVE",
"440 964 LINE",
"245 930 OFFCURVE",
"79 689 OFFCURVE",
"79 466 QCURVE SMOOTH",
"79 236 OFFCURVE",
"306 1 OFFCURVE",
"538 -16 QCURVE",
"538 -436 LINE",
"644 -436 LINE"
);
},
{
closed = 1;
nodes = (
"923 284 OFFCURVE",
"787 81 OFFCURVE",
"644 60 QCURVE",
"644 670 LINE SMOOTH",
"644 885 OFFCURVE",
"755 885 QCURVE SMOOTH",
"835 885 OFFCURVE",
"923 677 OFFCURVE",
"923 478 QCURVE SMOOTH"
);
}
);
width = 1182;
}
);
note = phi;
unicode = 03C6;
},
{
glyphname = uni207F;
lastChange = "2019-12-18 23:13:52 +0000";
layers = (
{
layerId = "E3E67A92-B1FB-4433-B88A-D288516649AC";
paths = (
{
closed = 1;
nodes = (
"216 1099 LINE",
"35 1099 LINE",
"35 1062 LINE",
"103 1047 LINE",
"103 587 LINE",
"35 572 LINE",
"35 535 LINE",
"279 535 LINE",
"279 572 LINE",
"222 587 LINE",
"222 1017 LINE",
"300 1034 OFFCURVE",
"342 1034 QCURVE SMOOTH",
"393 1034 OFFCURVE",
"427 987 OFFCURVE",
"427 937 QCURVE SMOOTH",
"427 587 LINE",
"372 572 LINE",
"372 535 LINE",
"615 535 LINE",
"615 572 LINE",
"547 587 LINE",
"547 948 LINE SMOOTH",
"547 1029 OFFCURVE",
"468 1114 OFFCURVE",
"394 1114 QCURVE SMOOTH",
"334 1114 OFFCURVE",
"221 1054 QCURVE"
);
}
);
width = 645;
}
);
note = uni207F;
unicode = 207F;
},
{
glyphname = peseta;
lastChange = "2019-12-18 23:13:52 +0000";
layers = (
{
layerId = "E3E67A92-B1FB-4433-B88A-D288516649AC";
paths = (
{
closed = 1;
nodes = (
"760 770 OFFCURVE",
"599 616 OFFCURVE",
"430 616 QCURVE SMOOTH",
"386 616 LINE",
"386 1251 LINE",
"424 1251 LINE SMOOTH",
"606 1251 OFFCURVE",
"760 1109 OFFCURVE",
"760 944 QCURVE SMOOTH"
);
},
{
closed = 1;
nodes = (
"949 1148 OFFCURVE",
"707 1341 OFFCURVE",
"467 1341 QCURVE SMOOTH",
"51 1341 LINE",
"51 1288 LINE",
"203 1262 LINE",
"203 80 LINE",
"44 53 LINE",
"44 0 LINE",
"559 0 LINE",
"559 53 LINE",
"386 80 LINE",
"386 526 LINE",
"477 526 LINE SMOOTH",
"710 526 OFFCURVE",
"949 738 OFFCURVE",
"949 946 QCURVE SMOOTH"
);
},
{
closed = 1;
nodes = (
"1199 -20 OFFCURVE",
"1309 10 OFFCURVE",
"1344 35 QCURVE",
"1344 90 LINE",
"1277 74 OFFCURVE",
"1231 74 QCURVE SMOOTH",
"1193 74 OFFCURVE",
"1146 140 OFFCURVE",
"1146 205 QCURVE SMOOTH",
"1146 616 LINE",
"1311 616 LINE",
"1311 690 LINE",
"1146 690 LINE",
"1146 873 LINE",
"1083 873 LINE",
"980 690 LINE",
"887 651 LINE",
"887 616 LINE",
"980 616 LINE",
"980 197 LINE SMOOTH",
"980 94 OFFCURVE",
"1063 -20 OFFCURVE",
"1148 -20 QCURVE SMOOTH"
);
},
{
closed = 1;
nodes = (
"1893 282 OFFCURVE",
"1797 387 OFFCURVE",
"1703 419 QCURVE SMOOTH",
"1585 458 OFFCURVE",
"1513 505 OFFCURVE",
"1513 541 QCURVE SMOOTH",
"1513 586 OFFCURVE",
"1572 640 OFFCURVE",
"1626 640 QCURVE SMOOTH",
"1664 640 OFFCURVE",
"1737 616 OFFCURVE",
"1756 593 QCURVE",
"1798 484 LINE",
"1845 484 LINE",
"1845 679 LINE",
"1713 710 OFFCURVE",
"1628 710 QCURVE SMOOTH",
"1506 710 OFFCURVE",
"1364 607 OFFCURVE",
"1364 518 QCURVE SMOOTH",
"1364 444 OFFCURVE",
"1446 345 OFFCURVE",
"1552 309 QCURVE SMOOTH",
"1621 286 LINE SMOOTH",
"1682 264 OFFCURVE",
"1739 206 OFFCURVE",
"1739 164 QCURVE SMOOTH",
"1739 108 OFFCURVE",
"1669 49 OFFCURVE",
"1605 49 QCURVE SMOOTH",
"1511 49 OFFCURVE",
"1450 117 QCURVE",
"1411 227 LINE",
"1366 227 LINE",
"1366 20 LINE",
"1406 5 OFFCURVE",
"1563 -20 OFFCURVE",
"1623 -20 QCURVE SMOOTH",
"1752 -20 OFFCURVE",
"1893 95 OFFCURVE",
"1893 206 QCURVE SMOOTH"
);
}
);
width = 1984;
}
);
note = peseta;
unicode = 20A7;
},
{
glyphname = arrowleft;
lastChange = "2019-12-18 23:13:52 +0000";
layers = (
{
layerId = "E3E67A92-B1FB-4433-B88A-D288516649AC";
paths = (
{
closed = 1;
nodes = (
"1630 427 LINE",
"1630 513 LINE",
"641 513 LINE",
"698 580 OFFCURVE",
"760 710 QCURVE",
"688 710 LINE",
"561 561 OFFCURVE",
"418 488 QCURVE",
"418 452 LINE",
"561 379 OFFCURVE",
"688 230 QCURVE",
"760 230 LINE",
"698 360 OFFCURVE",
"641 427 QCURVE"
);
}
);
width = 2048;
}
);
note = arrowleft;
unicode = 2190;
},
{
glyphname = arrowup;
lastChange = "2019-12-18 23:13:52 +0000";
layers = (
{
layerId = "E3E67A92-B1FB-4433-B88A-D288516649AC";
paths = (
{
closed = 1;
nodes = (
"469 -61 LINE",
"555 -61 LINE",
"555 928 LINE",
"622 871 OFFCURVE",
"752 809 QCURVE",
"752 881 LINE",
"603 1008 OFFCURVE",
"530 1151 QCURVE",
"494 1151 LINE",
"421 1008 OFFCURVE",
"272 881 QCURVE",
"272 809 LINE",
"402 871 OFFCURVE",
"469 928 QCURVE"
);
}
);
width = 1024;
}
);
note = arrowup;
unicode = 2191;
},
{
glyphname = arrowright;
lastChange = "2019-12-18 23:13:52 +0000";
layers = (
{
layerId = "E3E67A92-B1FB-4433-B88A-D288516649AC";
paths = (
{
closed = 1;
nodes = (
"418 513 LINE",
"418 427 LINE",
"1407 427 LINE",
"1350 360 OFFCURVE",
"1288 230 QCURVE",
"1360 230 LINE",
"1487 379 OFFCURVE",
"1630 452 QCURVE",
"1630 488 LINE",
"1487 561 OFFCURVE",
"1360 710 QCURVE",
"1288 710 LINE",
"1350 580 OFFCURVE",
"1407 513 QCURVE"
);
}
);
width = 2048;
}
);
note = arrowright;
unicode = 2192;
},
{
glyphname = arrowdown;
lastChange = "2019-12-18 23:13:52 +0000";
layers = (
{
layerId = "E3E67A92-B1FB-4433-B88A-D288516649AC";
paths = (
{
closed = 1;
nodes = (
"555 1151 LINE",
"469 1151 LINE",
"469 162 LINE",
"402 219 OFFCURVE",
"272 281 QCURVE",
"272 209 LINE",
"421 82 OFFCURVE",
"494 -61 QCURVE",
"530 -61 LINE",
"603 82 OFFCURVE",
"752 209 QCURVE",
"752 281 LINE",
"622 219 OFFCURVE",
"555 162 QCURVE"
);
}
);
width = 1024;
}
);
note = arrowdown;
unicode = 2193;
},
{
glyphname = arrowboth;
lastChange = "2019-12-18 23:13:52 +0000";
layers = (
{
layerId = "E3E67A92-B1FB-4433-B88A-D288516649AC";
paths = (
{
closed = 1;
nodes = (
"1407 427 LINE",
"1350 360 OFFCURVE",
"1288 230 QCURVE",
"1360 230 LINE",
"1487 379 OFFCURVE",
"1630 452 QCURVE",
"1630 488 LINE",
"1487 561 OFFCURVE",
"1360 710 QCURVE",
"1288 710 LINE",
"1350 580 OFFCURVE",
"1407 513 QCURVE",
"641 513 LINE",
"698 580 OFFCURVE",
"760 710 QCURVE",
"688 710 LINE",
"561 561 OFFCURVE",
"418 488 QCURVE",
"418 452 LINE",
"561 379 OFFCURVE",
"688 230 QCURVE",
"760 230 LINE",
"698 360 OFFCURVE",
"641 427 QCURVE"
);
}
);
width = 2048;
}
);
note = arrowboth;
unicode = 2194;
},
{
glyphname = arrowupdn;
lastChange = "2019-12-18 23:13:52 +0000";
layers = (
{
layerId = "E3E67A92-B1FB-4433-B88A-D288516649AC";
paths = (
{
closed = 1;
nodes = (
"469 162 LINE",
"402 219 OFFCURVE",
"272 281 QCURVE",
"272 209 LINE",
"421 82 OFFCURVE",
"494 -61 QCURVE",
"530 -61 LINE",
"603 82 OFFCURVE",
"752 209 QCURVE",
"752 281 LINE",
"622 219 OFFCURVE",
"555 162 QCURVE",
"555 928 LINE",
"622 871 OFFCURVE",
"752 809 QCURVE",
"752 881 LINE",
"603 1008 OFFCURVE",
"530 1151 QCURVE",
"494 1151 LINE",
"421 1008 OFFCURVE",
"272 881 QCURVE",
"272 809 LINE",
"402 871 OFFCURVE",
"469 928 QCURVE"
);
}
);
width = 1024;
}
);
note = arrowupdn;
unicode = 2195;
},
{
glyphname = arrowupdnbse;
lastChange = "2019-12-18 23:13:52 +0000";
layers = (
{
layerId = "E3E67A92-B1FB-4433-B88A-D288516649AC";
paths = (
{
closed = 1;
nodes = (
"272 -184 LINE",
"752 -184 LINE",
"752 -104 LINE",
"272 -104 LINE"
);
},
{
closed = 1;
nodes = (
"469 162 LINE",
"402 219 OFFCURVE",
"272 281 QCURVE",
"272 209 LINE",
"421 82 OFFCURVE",
"494 -61 QCURVE",
"530 -61 LINE",
"603 82 OFFCURVE",
"752 209 QCURVE",
"752 281 LINE",
"622 219 OFFCURVE",
"555 162 QCURVE",
"555 928 LINE",
"622 871 OFFCURVE",
"752 809 QCURVE",
"752 881 LINE",
"603 1008 OFFCURVE",
"530 1151 QCURVE",
"494 1151 LINE",
"421 1008 OFFCURVE",
"272 881 QCURVE",
"272 809 LINE",
"402 871 OFFCURVE",
"469 928 QCURVE"
);
}
);
width = 1024;
}
);
note = arrowupdnbse;
unicode = 21A8;
},
{
glyphname = orthogonal;
lastChange = "2019-12-18 23:13:52 +0000";
layers = (
{
layerId = "E3E67A92-B1FB-4433-B88A-D288516649AC";
paths = (
{
closed = 1;
nodes = (
"408 0 LINE",
"1632 0 LINE",
"1632 94 LINE",
"502 94 LINE",
"502 1223 LINE",
"408 1223 LINE"
);
}
);
width = 2005;
}
);
note = orthogonal;
unicode = 221F;
},
{
glyphname = intersection;
lastChange = "2019-12-18 23:13:52 +0000";
layers = (
{
layerId = "E3E67A92-B1FB-4433-B88A-D288516649AC";
paths = (
{
closed = 1;
nodes = (
"385 -2 LINE",
"385 510 LINE SMOOTH",
"385 704 OFFCURVE",
"577 930 OFFCURVE",
"739 930 QCURVE SMOOTH",
"899 930 OFFCURVE",
"1095 702 OFFCURVE",
"1095 512 QCURVE SMOOTH",
"1095 -2 LINE",
"1198 -2 LINE",
"1198 510 LINE SMOOTH",
"1198 658 OFFCURVE",
"1079 900 OFFCURVE",
"868 1032 OFFCURVE",
"737 1032 QCURVE SMOOTH",
"607 1032 OFFCURVE",
"398 899 OFFCURVE",
"282 660 OFFCURVE",
"282 510 QCURVE SMOOTH",
"282 -2 LINE"
);
}
);
width = 1479;
}
);
note = intersection;
unicode = 2229;
},
{
glyphname = equivalence;
lastChange = "2019-12-18 23:13:52 +0000";
layers = (
{
layerId = "E3E67A92-B1FB-4433-B88A-D288516649AC";
paths = (
{
closed = 1;
nodes = (
"102 436 LINE",
"102 334 LINE",
"1055 334 LINE",
"1055 436 LINE"
);
},
{
closed = 1;
nodes = (
"102 1026 LINE",
"102 924 LINE",
"1055 924 LINE",
"1055 1026 LINE"
);
},
{
closed = 1;
nodes = (
"102 731 LINE",
"102 629 LINE",
"1055 629 LINE",
"1055 731 LINE"
);
}
);
width = 1155;
}
);
note = equivalence;
unicode = 2261;
},
{
glyphname = house;
lastChange = "2019-12-18 23:13:52 +0000";
layers = (
{
layerId = "E3E67A92-B1FB-4433-B88A-D288516649AC";
paths = (
{
closed = 1;
nodes = (
"1076 0 LINE",
"1076 635 LINE",
"615 1153 LINE",
"154 635 LINE",
"154 0 LINE"
);
},
{
closed = 1;
nodes = (
"234 600 LINE",
"615 1026 LINE",
"996 600 LINE",
"996 82 LINE",
"234 82 LINE"
);
}
);
width = 1229;
}
);
note = house;
unicode = 2302;
},
{
glyphname = revlogicalnot;
lastChange = "2019-12-18 23:13:52 +0000";
layers = (
{
layerId = "E3E67A92-B1FB-4433-B88A-D288516649AC";
paths = (
{
closed = 1;
nodes = (
"1055 629 LINE",
"1055 731 LINE",
"102 731 LINE",
"102 203 LINE",
"205 203 LINE",
"205 629 LINE"
);
}
);
width = 1155;
}
);
note = revlogicalnot;
unicode = 2310;
},
{
glyphname = integraltp;
lastChange = "2019-12-18 23:13:52 +0000";
layers = (
{
layerId = "E3E67A92-B1FB-4433-B88A-D288516649AC";
paths = (
{
closed = 1;
nodes = (
"693 1423 LINE SMOOTH",
"693 1528 OFFCURVE",
"699 1563 QCURVE SMOOTH",
"708 1602 OFFCURVE",
"744 1602 QCURVE SMOOTH",
"760 1602 OFFCURVE",
"793 1563 QCURVE SMOOTH",
"831 1521 OFFCURVE",
"847 1513 QCURVE",
"860 1503 OFFCURVE",
"890 1503 QCURVE SMOOTH",
"927 1503 OFFCURVE",
"978 1555 OFFCURVE",
"978 1595 QCURVE SMOOTH",
"978 1643 OFFCURVE",
"903 1706 OFFCURVE",
"840 1706 QCURVE SMOOTH",
"714 1706 OFFCURVE",
"546 1460 OFFCURVE",
"546 1264 QCURVE SMOOTH",
"546 -614 LINE",
"693 -614 LINE"
);
}
);
width = 1237;
}
);
note = integraltp;
unicode = 2320;
},
{
glyphname = integralbt;
lastChange = "2019-12-18 23:13:52 +0000";
layers = (
{
layerId = "E3E67A92-B1FB-4433-B88A-D288516649AC";
paths = (
{
closed = 1;
nodes = (
"546 -334 LINE SMOOTH",
"546 -461 OFFCURVE",
"523 -512 OFFCURVE",
"494 -512 QCURVE SMOOTH",
"478 -512 OFFCURVE",
"447 -475 QCURVE SMOOTH",
"416 -434 OFFCURVE",
"406 -430 QCURVE",
"380 -414 OFFCURVE",
"347 -414 QCURVE SMOOTH",
"311 -414 OFFCURVE",
"261 -467 OFFCURVE",
"261 -506 QCURVE SMOOTH",
"261 -553 OFFCURVE",
"339 -614 OFFCURVE",
"398 -614 QCURVE SMOOTH",
"530 -614 OFFCURVE",
"693 -369 OFFCURVE",
"693 -174 QCURVE SMOOTH",
"693 1706 LINE",
"546 1706 LINE"
);
}
);
width = 1237;
}
);
note = integralbt;
unicode = 2321;
},
{
glyphname = uni2500;
lastChange = "2019-12-18 23:13:52 +0000";
layers = (
{
layerId = "E3E67A92-B1FB-4433-B88A-D288516649AC";
paths = (
{
closed = 1;
nodes = (
"1461 549 LINE",
"1461 694 LINE",
"-10 694 LINE",
"-10 549 LINE"
);
}
);
width = 1451;
}
);
note = uni2500;
unicode = 2500;
},
{
glyphname = uni2502;
lastChange = "2019-12-18 23:13:52 +0000";
layers = (
{
layerId = "E3E67A92-B1FB-4433-B88A-D288516649AC";
paths = (
{
closed = 1;
nodes = (
"653 -621 LINE",
"798 -621 LINE",
"798 1864 LINE",
"653 1864 LINE"
);
}
);
width = 1451;
}
);
note = uni2502;
unicode = 2502;
},
{
glyphname = uni250C;
lastChange = "2019-12-18 23:13:52 +0000";
layers = (
{
layerId = "E3E67A92-B1FB-4433-B88A-D288516649AC";
paths = (
{
closed = 1;
nodes = (
"653 -621 LINE",
"798 -621 LINE",
"798 549 LINE",
"1461 549 LINE",
"1461 694 LINE",
"653 694 LINE"
);
}
);
width = 1451;
}
);
note = uni250C;
unicode = 250C;
},
{
glyphname = uni2510;
lastChange = "2019-12-18 23:13:52 +0000";
layers = (
{
layerId = "E3E67A92-B1FB-4433-B88A-D288516649AC";
paths = (
{
closed = 1;
nodes = (
"653 549 LINE",
"653 -621 LINE",
"798 -621 LINE",
"798 694 LINE",
"-10 694 LINE",
"-10 549 LINE"
);
}
);
width = 1451;
}
);
note = uni2510;
unicode = 2510;
},
{
glyphname = uni2514;
lastChange = "2019-12-18 23:13:52 +0000";
layers = (
{
layerId = "E3E67A92-B1FB-4433-B88A-D288516649AC";
paths = (
{
closed = 1;
nodes = (
"653 549 LINE",
"1461 549 LINE",
"1461 694 LINE",
"798 694 LINE",
"798 1864 LINE",
"653 1864 LINE"
);
}
);
width = 1451;
}
);
note = uni2514;
unicode = 2514;
},
{
glyphname = uni2518;
lastChange = "2019-12-18 23:13:52 +0000";
layers = (
{
layerId = "E3E67A92-B1FB-4433-B88A-D288516649AC";
paths = (
{
closed = 1;
nodes = (
"798 549 LINE",
"798 1864 LINE",
"653 1864 LINE",
"653 694 LINE",
"-10 694 LINE",
"-10 549 LINE"
);
}
);
width = 1451;
}
);
note = uni2518;
unicode = 2518;
},
{
glyphname = uni251C;
lastChange = "2019-12-18 23:13:52 +0000";
layers = (
{
layerId = "E3E67A92-B1FB-4433-B88A-D288516649AC";
paths = (
{
closed = 1;
nodes = (
"653 -621 LINE",
"798 -621 LINE",
"798 549 LINE",
"1461 549 LINE",
"1461 694 LINE",
"798 694 LINE",
"798 1864 LINE",
"653 1864 LINE"
);
}
);
width = 1451;
}
);
note = uni251C;
unicode = 251C;
},
{
glyphname = uni2524;
lastChange = "2019-12-18 23:13:52 +0000";
layers = (
{
layerId = "E3E67A92-B1FB-4433-B88A-D288516649AC";
paths = (
{
closed = 1;
nodes = (
"653 549 LINE",
"653 -621 LINE",
"798 -621 LINE",
"798 1864 LINE",
"653 1864 LINE",
"653 694 LINE",
"-10 694 LINE",
"-10 549 LINE"
);
}
);
width = 1451;
}
);
note = uni2524;
unicode = 2524;
},
{
glyphname = uni252C;
lastChange = "2019-12-18 23:13:52 +0000";
layers = (
{
layerId = "E3E67A92-B1FB-4433-B88A-D288516649AC";
paths = (
{
closed = 1;
nodes = (
"653 549 LINE",
"653 -621 LINE",
"798 -621 LINE",
"798 549 LINE",
"1461 549 LINE",
"1461 694 LINE",
"-10 694 LINE",
"-10 549 LINE"
);
}
);
width = 1451;
}
);
note = uni252C;
unicode = 252C;
},
{
glyphname = uni2534;
lastChange = "2019-12-18 23:13:52 +0000";
layers = (
{
layerId = "E3E67A92-B1FB-4433-B88A-D288516649AC";
paths = (
{
closed = 1;
nodes = (
"1461 549 LINE",
"1461 694 LINE",
"798 694 LINE",
"798 1864 LINE",
"653 1864 LINE",
"653 694 LINE",
"-10 694 LINE",
"-10 549 LINE"
);
}
);
width = 1451;
}
);
note = uni2534;
unicode = 2534;
},
{
glyphname = uni253C;
lastChange = "2019-12-18 23:13:52 +0000";
layers = (
{
layerId = "E3E67A92-B1FB-4433-B88A-D288516649AC";
paths = (
{
closed = 1;
nodes = (
"653 549 LINE",
"653 -621 LINE",
"798 -621 LINE",
"798 549 LINE",
"1461 549 LINE",
"1461 694 LINE",
"798 694 LINE",
"798 1864 LINE",
"653 1864 LINE",
"653 694 LINE",
"-10 694 LINE",
"-10 549 LINE"
);
}
);
width = 1451;
}
);
note = uni253C;
unicode = 253C;
},
{
glyphname = uni2550;
lastChange = "2019-12-18 23:13:52 +0000";
layers = (
{
layerId = "E3E67A92-B1FB-4433-B88A-D288516649AC";
paths = (
{
closed = 1;
nodes = (
"1461 729 LINE",
"1461 874 LINE",
"-10 874 LINE",
"-10 729 LINE"
);
},
{
closed = 1;
nodes = (
"1461 369 LINE",
"1461 514 LINE",
"-10 514 LINE",
"-10 369 LINE"
);
}
);
width = 1451;
}
);
note = uni2550;
unicode = 2550;
},
{
glyphname = uni2551;
lastChange = "2019-12-18 23:13:52 +0000";
layers = (
{
layerId = "E3E67A92-B1FB-4433-B88A-D288516649AC";
paths = (
{
closed = 1;
nodes = (
"473 -621 LINE",
"618 -621 LINE",
"618 1864 LINE",
"473 1864 LINE"
);
},
{
closed = 1;
nodes = (
"833 -621 LINE",
"978 -621 LINE",
"978 1864 LINE",
"833 1864 LINE"
);
}
);
width = 1451;
}
);
note = uni2551;
unicode = 2551;
},
{
glyphname = uni2552;
lastChange = "2019-12-18 23:13:52 +0000";
layers = (
{
layerId = "E3E67A92-B1FB-4433-B88A-D288516649AC";
paths = (
{
closed = 1;
nodes = (
"653 -621 LINE",
"798 -621 LINE",
"798 369 LINE",
"1461 369 LINE",
"1461 514 LINE",
"798 514 LINE",
"798 729 LINE",
"1461 729 LINE",
"1461 874 LINE",
"653 874 LINE"
);
}
);
width = 1451;
}
);
note = uni2552;
unicode = 2552;
},
{
glyphname = uni2553;
lastChange = "2019-12-18 23:13:52 +0000";
layers = (
{
layerId = "E3E67A92-B1FB-4433-B88A-D288516649AC";
paths = (
{
closed = 1;
nodes = (
"473 694 LINE",
"473 -621 LINE",
"618 -621 LINE",
"618 549 LINE",
"833 549 LINE",
"833 -621 LINE",
"978 -621 LINE",
"978 549 LINE",
"1461 549 LINE",
"1461 694 LINE"
);
}
);
width = 1451;
}
);
note = uni2553;
unicode = 2553;
},
{
glyphname = uni2554;
lastChange = "2019-12-18 23:13:52 +0000";
layers = (
{
layerId = "E3E67A92-B1FB-4433-B88A-D288516649AC";
paths = (
{
closed = 1;
nodes = (
"473 -621 LINE",
"618 -621 LINE",
"618 729 LINE",
"1461 729 LINE",
"1461 874 LINE",
"473 874 LINE"
);
},
{
closed = 1;
nodes = (
"833 -621 LINE",
"978 -621 LINE",
"978 369 LINE",
"1461 369 LINE",
"1461 514 LINE",
"833 514 LINE"
);
}
);
width = 1451;
}
);
note = uni2554;
unicode = 2554;
},
{
glyphname = uni2555;
lastChange = "2019-12-18 23:13:52 +0000";
layers = (
{
layerId = "E3E67A92-B1FB-4433-B88A-D288516649AC";
paths = (
{
closed = 1;
nodes = (
"653 369 LINE",
"653 -621 LINE",
"798 -621 LINE",
"798 874 LINE",
"-10 874 LINE",
"-10 729 LINE",
"653 729 LINE",
"653 514 LINE",
"-10 514 LINE",
"-10 369 LINE"
);
}
);
width = 1451;
}
);
note = uni2555;
unicode = 2555;
},
{
glyphname = uni2556;
lastChange = "2019-12-18 23:13:52 +0000";
layers = (
{
layerId = "E3E67A92-B1FB-4433-B88A-D288516649AC";
paths = (
{
closed = 1;
nodes = (
"473 549 LINE",
"473 -621 LINE",
"618 -621 LINE",
"618 549 LINE",
"833 549 LINE",
"833 -621 LINE",
"978 -621 LINE",
"978 694 LINE",
"-10 694 LINE",
"-10 549 LINE"
);
}
);
width = 1451;
}
);
note = uni2556;
unicode = 2556;
},
{
glyphname = uni2557;
lastChange = "2019-12-18 23:13:52 +0000";
layers = (
{
layerId = "E3E67A92-B1FB-4433-B88A-D288516649AC";
paths = (
{
closed = 1;
nodes = (
"-10 874 LINE",
"-10 729 LINE",
"833 729 LINE",
"833 -621 LINE",
"978 -621 LINE",
"978 874 LINE"
);
},
{
closed = 1;
nodes = (
"618 514 LINE",
"-10 514 LINE",
"-10 369 LINE",
"473 369 LINE",
"473 -621 LINE",
"618 -621 LINE"
);
}
);
width = 1451;
}
);
note = uni2557;
unicode = 2557;
},
{
glyphname = uni2558;
lastChange = "2019-12-18 23:13:52 +0000";
layers = (
{
layerId = "E3E67A92-B1FB-4433-B88A-D288516649AC";
paths = (
{
closed = 1;
nodes = (
"653 369 LINE",
"1461 369 LINE",
"1461 514 LINE",
"798 514 LINE",
"798 729 LINE",
"1461 729 LINE",
"1461 874 LINE",
"798 874 LINE",
"798 1864 LINE",
"653 1864 LINE"
);
}
);
width = 1451;
}
);
note = uni2558;
unicode = 2558;
},
{
glyphname = uni2559;
lastChange = "2019-12-18 23:13:52 +0000";
layers = (
{
layerId = "E3E67A92-B1FB-4433-B88A-D288516649AC";
paths = (
{
closed = 1;
nodes = (
"833 694 LINE",
"618 694 LINE",
"618 1864 LINE",
"473 1864 LINE",
"473 549 LINE",
"1461 549 LINE",
"1461 694 LINE",
"978 694 LINE",
"978 1864 LINE",
"833 1864 LINE"
);
}
);
width = 1451;
}
);
note = uni2559;
unicode = 2559;
},
{
glyphname = uni255A;
lastChange = "2019-12-18 23:13:52 +0000";
layers = (
{
layerId = "E3E67A92-B1FB-4433-B88A-D288516649AC";
paths = (
{
closed = 1;
nodes = (
"473 369 LINE",
"1461 369 LINE",
"1461 514 LINE",
"618 514 LINE",
"618 1864 LINE",
"473 1864 LINE"
);
},
{
closed = 1;
nodes = (
"833 729 LINE",
"1461 729 LINE",
"1461 874 LINE",
"978 874 LINE",
"978 1864 LINE",
"833 1864 LINE"
);
}
);
width = 1451;
}
);
note = uni255A;
unicode = 255A;
},
{
glyphname = uni255B;
lastChange = "2019-12-18 23:13:52 +0000";
layers = (
{
layerId = "E3E67A92-B1FB-4433-B88A-D288516649AC";
paths = (
{
closed = 1;
nodes = (
"798 369 LINE",
"798 1864 LINE",
"653 1864 LINE",
"653 874 LINE",
"-10 874 LINE",
"-10 729 LINE",
"653 729 LINE",
"653 514 LINE",
"-10 514 LINE",
"-10 369 LINE"
);
}
);
width = 1451;
}
);
note = uni255B;
unicode = 255B;
},
{
glyphname = uni255C;
lastChange = "2019-12-18 23:13:52 +0000";
layers = (
{
layerId = "E3E67A92-B1FB-4433-B88A-D288516649AC";
paths = (
{
closed = 1;
nodes = (
"978 1864 LINE",
"833 1864 LINE",
"833 694 LINE",
"618 694 LINE",
"618 1864 LINE",
"473 1864 LINE",
"473 694 LINE",
"-10 694 LINE",
"-10 549 LINE",
"978 549 LINE"
);
}
);
width = 1451;
}
);
note = uni255C;
unicode = 255C;
},
{
glyphname = uni255D;
lastChange = "2019-12-18 23:13:52 +0000";
layers = (
{
layerId = "E3E67A92-B1FB-4433-B88A-D288516649AC";
paths = (
{
closed = 1;
nodes = (
"978 1864 LINE",
"833 1864 LINE",
"833 514 LINE",
"-10 514 LINE",
"-10 369 LINE",
"978 369 LINE"
);
},
{
closed = 1;
nodes = (
"473 874 LINE",
"-10 874 LINE",
"-10 729 LINE",
"618 729 LINE",
"618 1864 LINE",
"473 1864 LINE"
);
}
);
width = 1451;
}
);
note = uni255D;
unicode = 255D;
},
{
glyphname = uni255E;
lastChange = "2019-12-18 23:13:52 +0000";
layers = (
{
layerId = "E3E67A92-B1FB-4433-B88A-D288516649AC";
paths = (
{
closed = 1;
nodes = (
"653 -621 LINE",
"798 -621 LINE",
"798 369 LINE",
"1461 369 LINE",
"1461 514 LINE",
"798 514 LINE",
"798 729 LINE",
"1461 729 LINE",
"1461 874 LINE",
"798 874 LINE",
"798 1864 LINE",
"653 1864 LINE"
);
}
);
width = 1451;
}
);
note = uni255E;
unicode = 255E;
},
{
glyphname = uni255F;
lastChange = "2019-12-18 23:13:52 +0000";
layers = (
{
layerId = "E3E67A92-B1FB-4433-B88A-D288516649AC";
paths = (
{
closed = 1;
nodes = (
"833 -621 LINE",
"978 -621 LINE",
"978 549 LINE",
"1461 549 LINE",
"1461 694 LINE",
"978 694 LINE",
"978 1864 LINE",
"833 1864 LINE"
);
},
{
closed = 1;
nodes = (
"473 -621 LINE",
"618 -621 LINE",
"618 1864 LINE",
"473 1864 LINE"
);
}
);
width = 1451;
}
);
note = uni255F;
unicode = 255F;
},
{
glyphname = uni2560;
lastChange = "2019-12-18 23:13:52 +0000";
layers = (
{
layerId = "E3E67A92-B1FB-4433-B88A-D288516649AC";
paths = (
{
closed = 1;
nodes = (
"618 1864 LINE",
"473 1864 LINE",
"473 -621 LINE",
"618 -621 LINE"
);
},
{
closed = 1;
nodes = (
"833 -621 LINE",
"978 -621 LINE",
"978 369 LINE",
"1461 369 LINE",
"1461 514 LINE",
"833 514 LINE"
);
},
{
closed = 1;
nodes = (
"833 729 LINE",
"1461 729 LINE",
"1461 874 LINE",
"978 874 LINE",
"978 1864 LINE",
"833 1864 LINE"
);
}
);
width = 1451;
}
);
note = uni2560;
unicode = 2560;
},
{
glyphname = uni2561;
lastChange = "2019-12-18 23:13:52 +0000";
layers = (
{
layerId = "E3E67A92-B1FB-4433-B88A-D288516649AC";
paths = (
{
closed = 1;
nodes = (
"653 369 LINE",
"653 -621 LINE",
"798 -621 LINE",
"798 1864 LINE",
"653 1864 LINE",
"653 874 LINE",
"-10 874 LINE",
"-10 729 LINE",
"653 729 LINE",
"653 514 LINE",
"-10 514 LINE",
"-10 369 LINE"
);
}
);
width = 1451;
}
);
note = uni2561;
unicode = 2561;
},
{
glyphname = uni2562;
lastChange = "2019-12-18 23:13:52 +0000";
layers = (
{
layerId = "E3E67A92-B1FB-4433-B88A-D288516649AC";
paths = (
{
closed = 1;
nodes = (
"473 549 LINE",
"473 -621 LINE",
"618 -621 LINE",
"618 1864 LINE",
"473 1864 LINE",
"473 694 LINE",
"-10 694 LINE",
"-10 549 LINE"
);
},
{
closed = 1;
nodes = (
"833 -621 LINE",
"978 -621 LINE",
"978 1864 LINE",
"833 1864 LINE"
);
}
);
width = 1451;
}
);
note = uni2562;
unicode = 2562;
},
{
glyphname = uni2563;
lastChange = "2019-12-18 23:13:52 +0000";
layers = (
{
layerId = "E3E67A92-B1FB-4433-B88A-D288516649AC";
paths = (
{
closed = 1;
nodes = (
"833 -621 LINE",
"978 -621 LINE",
"978 1864 LINE",
"833 1864 LINE"
);
},
{
closed = 1;
nodes = (
"473 874 LINE",
"-10 874 LINE",
"-10 729 LINE",
"618 729 LINE",
"618 1864 LINE",
"473 1864 LINE"
);
},
{
closed = 1;
nodes = (
"618 514 LINE",
"-10 514 LINE",
"-10 369 LINE",
"473 369 LINE",
"473 -621 LINE",
"618 -621 LINE"
);
}
);
width = 1451;
}
);
note = uni2563;
unicode = 2563;
},
{
glyphname = uni2564;
lastChange = "2019-12-18 23:13:52 +0000";
layers = (
{
layerId = "E3E67A92-B1FB-4433-B88A-D288516649AC";
paths = (
{
closed = 1;
nodes = (
"653 369 LINE",
"653 -621 LINE",
"798 -621 LINE",
"798 369 LINE",
"1461 369 LINE",
"1461 514 LINE",
"-10 514 LINE",
"-10 369 LINE"
);
},
{
closed = 1;
nodes = (
"1461 729 LINE",
"1461 874 LINE",
"-10 874 LINE",
"-10 729 LINE"
);
}
);
width = 1451;
}
);
note = uni2564;
unicode = 2564;
},
{
glyphname = uni2565;
lastChange = "2019-12-18 23:13:52 +0000";
layers = (
{
layerId = "E3E67A92-B1FB-4433-B88A-D288516649AC";
paths = (
{
closed = 1;
nodes = (
"473 549 LINE",
"473 -621 LINE",
"618 -621 LINE",
"618 549 LINE",
"833 549 LINE",
"833 -621 LINE",
"978 -621 LINE",
"978 549 LINE",
"1461 549 LINE",
"1461 694 LINE",
"-10 694 LINE",
"-10 549 LINE"
);
}
);
width = 1451;
}
);
note = uni2565;
unicode = 2565;
},
{
glyphname = uni2566;
lastChange = "2019-12-18 23:13:52 +0000";
layers = (
{
layerId = "E3E67A92-B1FB-4433-B88A-D288516649AC";
paths = (
{
closed = 1;
nodes = (
"618 514 LINE",
"-10 514 LINE",
"-10 369 LINE",
"473 369 LINE",
"473 -621 LINE",
"618 -621 LINE"
);
},
{
closed = 1;
nodes = (
"833 -621 LINE",
"978 -621 LINE",
"978 369 LINE",
"1461 369 LINE",
"1461 514 LINE",
"833 514 LINE"
);
},
{
closed = 1;
nodes = (
"-10 874 LINE",
"-10 729 LINE",
"1461 729 LINE",
"1461 874 LINE"
);
}
);
width = 1451;
}
);
note = uni2566;
unicode = 2566;
},
{
glyphname = uni2567;
lastChange = "2019-12-18 23:13:52 +0000";
layers = (
{
layerId = "E3E67A92-B1FB-4433-B88A-D288516649AC";
paths = (
{
closed = 1;
nodes = (
"1461 729 LINE",
"1461 874 LINE",
"798 874 LINE",
"798 1864 LINE",
"653 1864 LINE",
"653 874 LINE",
"-10 874 LINE",
"-10 729 LINE"
);
},
{
closed = 1;
nodes = (
"1461 369 LINE",
"1461 514 LINE",
"-10 514 LINE",
"-10 369 LINE"
);
}
);
width = 1451;
}
);
note = uni2567;
unicode = 2567;
},
{
glyphname = uni2568;
lastChange = "2019-12-18 23:13:52 +0000";
layers = (
{
layerId = "E3E67A92-B1FB-4433-B88A-D288516649AC";
paths = (
{
closed = 1;
nodes = (
"1461 549 LINE",
"1461 694 LINE",
"978 694 LINE",
"978 1864 LINE",
"833 1864 LINE",
"833 694 LINE",
"618 694 LINE",
"618 1864 LINE",
"473 1864 LINE",
"473 694 LINE",
"-10 694 LINE",
"-10 549 LINE"
);
}
);
width = 1451;
}
);
note = uni2568;
unicode = 2568;
},
{
glyphname = uni2569;
lastChange = "2019-12-18 23:13:52 +0000";
layers = (
{
layerId = "E3E67A92-B1FB-4433-B88A-D288516649AC";
paths = (
{
closed = 1;
nodes = (
"833 729 LINE",
"1461 729 LINE",
"1461 874 LINE",
"978 874 LINE",
"978 1864 LINE",
"833 1864 LINE"
);
},
{
closed = 1;
nodes = (
"473 874 LINE",
"-10 874 LINE",
"-10 729 LINE",
"618 729 LINE",
"618 1864 LINE",
"473 1864 LINE"
);
},
{
closed = 1;
nodes = (
"1461 369 LINE",
"1461 514 LINE",
"-10 514 LINE",
"-10 369 LINE"
);
}
);
width = 1451;
}
);
note = uni2569;
unicode = 2569;
},
{
glyphname = uni256A;
lastChange = "2019-12-18 23:13:52 +0000";
layers = (
{
layerId = "E3E67A92-B1FB-4433-B88A-D288516649AC";
paths = (
{
closed = 1;
nodes = (
"653 369 LINE",
"653 -621 LINE",
"798 -621 LINE",
"798 369 LINE",
"1461 369 LINE",
"1461 514 LINE",
"798 514 LINE",
"798 729 LINE",
"1461 729 LINE",
"1461 874 LINE",
"798 874 LINE",
"798 1864 LINE",
"653 1864 LINE",
"653 874 LINE",
"-10 874 LINE",
"-10 729 LINE",
"653 729 LINE",
"653 514 LINE",
"-10 514 LINE",
"-10 369 LINE"
);
}
);
width = 1451;
}
);
note = uni256A;
unicode = 256A;
},
{
glyphname = uni256B;
lastChange = "2019-12-18 23:13:52 +0000";
layers = (
{
layerId = "E3E67A92-B1FB-4433-B88A-D288516649AC";
paths = (
{
closed = 1;
nodes = (
"833 694 LINE",
"618 694 LINE",
"618 1864 LINE",
"473 1864 LINE",
"473 694 LINE",
"-10 694 LINE",
"-10 549 LINE",
"473 549 LINE",
"473 -621 LINE",
"618 -621 LINE",
"618 549 LINE",
"833 549 LINE",
"833 -621 LINE",
"978 -621 LINE",
"978 549 LINE",
"1461 549 LINE",
"1461 694 LINE",
"978 694 LINE",
"978 1864 LINE",
"833 1864 LINE"
);
}
);
width = 1451;
}
);
note = uni256B;
unicode = 256B;
},
{
glyphname = uni256C;
lastChange = "2019-12-18 23:13:52 +0000";
layers = (
{
layerId = "E3E67A92-B1FB-4433-B88A-D288516649AC";
paths = (
{
closed = 1;
nodes = (
"833 729 LINE",
"1461 729 LINE",
"1461 874 LINE",
"978 874 LINE",
"978 1864 LINE",
"833 1864 LINE"
);
},
{
closed = 1;
nodes = (
"618 514 LINE",
"-10 514 LINE",
"-10 369 LINE",
"473 369 LINE",
"473 -621 LINE",
"618 -621 LINE"
);
},
{
closed = 1;
nodes = (
"833 -621 LINE",
"978 -621 LINE",
"978 369 LINE",
"1461 369 LINE",
"1461 514 LINE",
"833 514 LINE"
);
},
{
closed = 1;
nodes = (
"473 874 LINE",
"-10 874 LINE",
"-10 729 LINE",
"618 729 LINE",
"618 1864 LINE",
"473 1864 LINE"
);
}
);
width = 1451;
}
);
note = uni256C;
unicode = 256C;
},
{
glyphname = upblock;
lastChange = "2019-12-18 23:13:52 +0000";
layers = (
{
layerId = "E3E67A92-B1FB-4433-B88A-D288516649AC";
paths = (
{
closed = 1;
nodes = (
"1451 1864 LINE",
"0 1864 LINE",
"0 621 LINE",
"1451 621 LINE"
);
}
);
width = 1451;
}
);
note = upblock;
unicode = 2580;
},
{
glyphname = dnblock;
lastChange = "2019-12-18 23:13:52 +0000";
layers = (
{
layerId = "E3E67A92-B1FB-4433-B88A-D288516649AC";
paths = (
{
closed = 1;
nodes = (
"1451 621 LINE",
"0 621 LINE",
"0 -621 LINE",
"1451 -621 LINE"
);
}
);
width = 1451;
}
);
note = dnblock;
unicode = 2584;
},
{
glyphname = block;
lastChange = "2019-12-18 23:13:52 +0000";
layers = (
{
layerId = "E3E67A92-B1FB-4433-B88A-D288516649AC";
paths = (
{
closed = 1;
nodes = (
"1451 1864 LINE",
"0 1864 LINE",
"0 -621 LINE",
"1451 -621 LINE"
);
}
);
width = 1451;
}
);
note = block;
unicode = 2588;
},
{
glyphname = lfblock;
lastChange = "2019-12-18 23:13:52 +0000";
layers = (
{
layerId = "E3E67A92-B1FB-4433-B88A-D288516649AC";
paths = (
{
closed = 1;
nodes = (
"726 1864 LINE",
"0 1864 LINE",
"0 -621 LINE",
"726 -621 LINE"
);
}
);
width = 1451;
}
);
note = lfblock;
unicode = 258C;
},
{
glyphname = rtblock;
lastChange = "2019-12-18 23:13:52 +0000";
layers = (
{
layerId = "E3E67A92-B1FB-4433-B88A-D288516649AC";
paths = (
{
closed = 1;
nodes = (
"1451 1864 LINE",
"725 1864 LINE",
"725 -621 LINE",
"1451 -621 LINE"
);
}
);
width = 1451;
}
);
note = rtblock;
unicode = 2590;
},
{
glyphname = ltshade;
lastChange = "2019-12-18 23:13:52 +0000";
layers = (
{
layerId = "E3E67A92-B1FB-4433-B88A-D288516649AC";
paths = (
{
closed = 1;
nodes = (
"103 1216 LINE",
"207 1216 LINE",
"207 1314 LINE",
"103 1314 LINE"
);
},
{
closed = 1;
nodes = (
"517 1216 LINE",
"621 1216 LINE",
"621 1314 LINE",
"517 1314 LINE"
);
},
{
closed = 1;
nodes = (
"933 1216 LINE",
"1036 1216 LINE",
"1036 1314 LINE",
"933 1314 LINE"
);
},
{
closed = 1;
nodes = (
"310 1023 LINE",
"414 1023 LINE",
"414 1119 LINE",
"310 1119 LINE"
);
},
{
closed = 1;
nodes = (
"725 1023 LINE",
"829 1023 LINE",
"829 1119 LINE",
"725 1119 LINE"
);
},
{
closed = 1;
nodes = (
"1140 1023 LINE",
"1244 1023 LINE",
"1244 1119 LINE",
"1140 1119 LINE"
);
},
{
closed = 1;
nodes = (
"933 831 LINE",
"1036 831 LINE",
"1036 927 LINE",
"933 927 LINE"
);
},
{
closed = 1;
nodes = (
"517 831 LINE",
"621 831 LINE",
"621 927 LINE",
"517 927 LINE"
);
},
{
closed = 1;
nodes = (
"103 831 LINE",
"207 831 LINE",
"207 927 LINE",
"103 927 LINE"
);
},
{
closed = 1;
nodes = (
"1140 636 LINE",
"1244 636 LINE",
"1244 732 LINE",
"1140 732 LINE"
);
},
{
closed = 1;
nodes = (
"725 636 LINE",
"829 636 LINE",
"829 732 LINE",
"725 732 LINE"
);
},
{
closed = 1;
nodes = (
"310 636 LINE",
"414 636 LINE",
"414 732 LINE",
"310 732 LINE"
);
},
{
closed = 1;
nodes = (
"103 444 LINE",
"207 444 LINE",
"207 540 LINE",
"103 540 LINE"
);
},
{
closed = 1;
nodes = (
"517 444 LINE",
"621 444 LINE",
"621 540 LINE",
"517 540 LINE"
);
},
{
closed = 1;
nodes = (
"933 444 LINE",
"1036 444 LINE",
"1036 540 LINE",
"933 540 LINE"
);
},
{
closed = 1;
nodes = (
"1140 249 LINE",
"1244 249 LINE",
"1244 345 LINE",
"1140 345 LINE"
);
},
{
closed = 1;
nodes = (
"725 249 LINE",
"829 249 LINE",
"829 345 LINE",
"725 345 LINE"
);
},
{
closed = 1;
nodes = (
"310 249 LINE",
"414 249 LINE",
"414 345 LINE",
"310 345 LINE"
);
},
{
closed = 1;
nodes = (
"103 56 LINE",
"207 56 LINE",
"207 153 LINE",
"103 153 LINE"
);
},
{
closed = 1;
nodes = (
"517 56 LINE",
"621 56 LINE",
"621 153 LINE",
"517 153 LINE"
);
},
{
closed = 1;
nodes = (
"933 56 LINE",
"1036 56 LINE",
"1036 153 LINE",
"933 153 LINE"
);
},
{
closed = 1;
nodes = (
"310 -136 LINE",
"414 -136 LINE",
"414 -42 LINE",
"310 -42 LINE"
);
},
{
closed = 1;
nodes = (
"725 -136 LINE",
"829 -136 LINE",
"829 -42 LINE",
"725 -42 LINE"
);
},
{
closed = 1;
nodes = (
"1140 -136 LINE",
"1244 -136 LINE",
"1244 -42 LINE",
"1140 -42 LINE"
);
},
{
closed = 1;
nodes = (
"933 -331 LINE",
"1036 -331 LINE",
"1036 -234 LINE",
"933 -234 LINE"
);
},
{
closed = 1;
nodes = (
"517 -331 LINE",
"621 -331 LINE",
"621 -234 LINE",
"517 -234 LINE"
);
},
{
closed = 1;
nodes = (
"103 -331 LINE",
"207 -331 LINE",
"207 -234 LINE",
"103 -234 LINE"
);
},
{
closed = 1;
nodes = (
"310 -523 LINE",
"414 -523 LINE",
"414 -427 LINE",
"310 -427 LINE"
);
},
{
closed = 1;
nodes = (
"725 -523 LINE",
"829 -523 LINE",
"829 -427 LINE",
"725 -427 LINE"
);
},
{
closed = 1;
nodes = (
"1140 -523 LINE",
"1244 -523 LINE",
"1244 -427 LINE",
"1140 -427 LINE"
);
},
{
closed = 1;
nodes = (
"310 1408 LINE",
"414 1408 LINE",
"414 1506 LINE",
"310 1506 LINE"
);
},
{
closed = 1;
nodes = (
"725 1408 LINE",
"829 1408 LINE",
"829 1506 LINE",
"725 1506 LINE"
);
},
{
closed = 1;
nodes = (
"1140 1408 LINE",
"1244 1408 LINE",
"1244 1506 LINE",
"1140 1506 LINE"
);
},
{
closed = 1;
nodes = (
"103 1603 LINE",
"207 1603 LINE",
"207 1699 LINE",
"103 1699 LINE"
);
},
{
closed = 1;
nodes = (
"517 1603 LINE",
"621 1603 LINE",
"621 1699 LINE",
"517 1699 LINE"
);
},
{
closed = 1;
nodes = (
"933 1603 LINE",
"1036 1603 LINE",
"1036 1699 LINE",
"933 1699 LINE"
);
},
{
closed = 1;
nodes = (
"1347 1216 LINE",
"1451 1216 LINE",
"1451 1314 LINE",
"1347 1314 LINE"
);
},
{
closed = 1;
nodes = (
"1347 831 LINE",
"1451 831 LINE",
"1451 927 LINE",
"1347 927 LINE"
);
},
{
closed = 1;
nodes = (
"1347 444 LINE",
"1451 444 LINE",
"1451 540 LINE",
"1347 540 LINE"
);
},
{
closed = 1;
nodes = (
"1347 56 LINE",
"1451 56 LINE",
"1451 153 LINE",
"1347 153 LINE"
);
},
{
closed = 1;
nodes = (
"1347 -331 LINE",
"1451 -331 LINE",
"1451 -234 LINE",
"1347 -234 LINE"
);
},
{
closed = 1;
nodes = (
"1347 1603 LINE",
"1451 1603 LINE",
"1451 1699 LINE",
"1347 1699 LINE"
);
}
);
width = 1451;
}
);
note = ltshade;
unicode = 2591;
},
{
glyphname = shade;
lastChange = "2019-12-18 23:13:52 +0000";
layers = (
{
layerId = "E3E67A92-B1FB-4433-B88A-D288516649AC";
paths = (
{
closed = 1;
nodes = (
"103 1216 LINE",
"207 1216 LINE",
"207 1314 LINE",
"103 1314 LINE"
);
},
{
closed = 1;
nodes = (
"310 1216 LINE",
"414 1216 LINE",
"414 1314 LINE",
"310 1314 LINE"
);
},
{
closed = 1;
nodes = (
"517 1216 LINE",
"621 1216 LINE",
"621 1314 LINE",
"517 1314 LINE"
);
},
{
closed = 1;
nodes = (
"725 1216 LINE",
"829 1216 LINE",
"829 1314 LINE",
"725 1314 LINE"
);
},
{
closed = 1;
nodes = (
"933 1216 LINE",
"1037 1216 LINE",
"1037 1314 LINE",
"933 1314 LINE"
);
},
{
closed = 1;
nodes = (
"1140 1216 LINE",
"1244 1216 LINE",
"1244 1314 LINE",
"1140 1314 LINE"
);
},
{
closed = 1;
nodes = (
"0 1023 LINE",
"103 1023 LINE",
"103 1119 LINE",
"0 1119 LINE"
);
},
{
closed = 1;
nodes = (
"207 1023 LINE",
"310 1023 LINE",
"310 1119 LINE",
"207 1119 LINE"
);
},
{
closed = 1;
nodes = (
"414 1023 LINE",
"517 1023 LINE",
"517 1119 LINE",
"414 1119 LINE"
);
},
{
closed = 1;
nodes = (
"621 1023 LINE",
"725 1023 LINE",
"725 1119 LINE",
"621 1119 LINE"
);
},
{
closed = 1;
nodes = (
"829 1023 LINE",
"933 1023 LINE",
"933 1119 LINE",
"829 1119 LINE"
);
},
{
closed = 1;
nodes = (
"1037 1023 LINE",
"1140 1023 LINE",
"1140 1119 LINE",
"1037 1119 LINE"
);
},
{
closed = 1;
nodes = (
"103 831 LINE",
"207 831 LINE",
"207 927 LINE",
"103 927 LINE"
);
},
{
closed = 1;
nodes = (
"310 831 LINE",
"414 831 LINE",
"414 927 LINE",
"310 927 LINE"
);
},
{
closed = 1;
nodes = (
"517 831 LINE",
"621 831 LINE",
"621 927 LINE",
"517 927 LINE"
);
},
{
closed = 1;
nodes = (
"725 831 LINE",
"829 831 LINE",
"829 927 LINE",
"725 927 LINE"
);
},
{
closed = 1;
nodes = (
"933 831 LINE",
"1037 831 LINE",
"1037 927 LINE",
"933 927 LINE"
);
},
{
closed = 1;
nodes = (
"1140 831 LINE",
"1244 831 LINE",
"1244 927 LINE",
"1140 927 LINE"
);
},
{
closed = 1;
nodes = (
"0 636 LINE",
"103 636 LINE",
"103 732 LINE",
"0 732 LINE"
);
},
{
closed = 1;
nodes = (
"207 636 LINE",
"310 636 LINE",
"310 732 LINE",
"207 732 LINE"
);
},
{
closed = 1;
nodes = (
"414 636 LINE",
"517 636 LINE",
"517 732 LINE",
"414 732 LINE"
);
},
{
closed = 1;
nodes = (
"621 636 LINE",
"725 636 LINE",
"725 732 LINE",
"621 732 LINE"
);
},
{
closed = 1;
nodes = (
"829 636 LINE",
"933 636 LINE",
"933 732 LINE",
"829 732 LINE"
);
},
{
closed = 1;
nodes = (
"1037 636 LINE",
"1140 636 LINE",
"1140 732 LINE",
"1037 732 LINE"
);
},
{
closed = 1;
nodes = (
"103 444 LINE",
"207 444 LINE",
"207 540 LINE",
"103 540 LINE"
);
},
{
closed = 1;
nodes = (
"310 444 LINE",
"414 444 LINE",
"414 540 LINE",
"310 540 LINE"
);
},
{
closed = 1;
nodes = (
"517 444 LINE",
"621 444 LINE",
"621 540 LINE",
"517 540 LINE"
);
},
{
closed = 1;
nodes = (
"725 444 LINE",
"829 444 LINE",
"829 540 LINE",
"725 540 LINE"
);
},
{
closed = 1;
nodes = (
"933 444 LINE",
"1037 444 LINE",
"1037 540 LINE",
"933 540 LINE"
);
},
{
closed = 1;
nodes = (
"1140 444 LINE",
"1244 444 LINE",
"1244 540 LINE",
"1140 540 LINE"
);
},
{
closed = 1;
nodes = (
"0 249 LINE",
"103 249 LINE",
"103 345 LINE",
"0 345 LINE"
);
},
{
closed = 1;
nodes = (
"414 249 LINE",
"517 249 LINE",
"517 345 LINE",
"414 345 LINE"
);
},
{
closed = 1;
nodes = (
"621 249 LINE",
"725 249 LINE",
"725 345 LINE",
"621 345 LINE"
);
},
{
closed = 1;
nodes = (
"829 249 LINE",
"933 249 LINE",
"933 345 LINE",
"829 345 LINE"
);
},
{
closed = 1;
nodes = (
"1037 249 LINE",
"1140 249 LINE",
"1140 345 LINE",
"1037 345 LINE"
);
},
{
closed = 1;
nodes = (
"207 249 LINE",
"310 249 LINE",
"310 345 LINE",
"207 345 LINE"
);
},
{
closed = 1;
nodes = (
"1140 56 LINE",
"1244 56 LINE",
"1244 153 LINE",
"1140 153 LINE"
);
},
{
closed = 1;
nodes = (
"933 56 LINE",
"1037 56 LINE",
"1037 153 LINE",
"933 153 LINE"
);
},
{
closed = 1;
nodes = (
"725 56 LINE",
"829 56 LINE",
"829 153 LINE",
"725 153 LINE"
);
},
{
closed = 1;
nodes = (
"517 56 LINE",
"621 56 LINE",
"621 153 LINE",
"517 153 LINE"
);
},
{
closed = 1;
nodes = (
"310 56 LINE",
"414 56 LINE",
"414 153 LINE",
"310 153 LINE"
);
},
{
closed = 1;
nodes = (
"103 56 LINE",
"207 56 LINE",
"207 153 LINE",
"103 153 LINE"
);
},
{
closed = 1;
nodes = (
"0 -136 LINE",
"103 -136 LINE",
"103 -42 LINE",
"0 -42 LINE"
);
},
{
closed = 1;
nodes = (
"207 -136 LINE",
"310 -136 LINE",
"310 -42 LINE",
"207 -42 LINE"
);
},
{
closed = 1;
nodes = (
"414 -136 LINE",
"517 -136 LINE",
"517 -42 LINE",
"414 -42 LINE"
);
},
{
closed = 1;
nodes = (
"621 -136 LINE",
"725 -136 LINE",
"725 -42 LINE",
"621 -42 LINE"
);
},
{
closed = 1;
nodes = (
"829 -136 LINE",
"933 -136 LINE",
"933 -42 LINE",
"829 -42 LINE"
);
},
{
closed = 1;
nodes = (
"1037 -136 LINE",
"1140 -136 LINE",
"1140 -42 LINE",
"1037 -42 LINE"
);
},
{
closed = 1;
nodes = (
"1140 -331 LINE",
"1244 -331 LINE",
"1244 -234 LINE",
"1140 -234 LINE"
);
},
{
closed = 1;
nodes = (
"933 -331 LINE",
"1037 -331 LINE",
"1037 -234 LINE",
"933 -234 LINE"
);
},
{
closed = 1;
nodes = (
"725 -331 LINE",
"829 -331 LINE",
"829 -234 LINE",
"725 -234 LINE"
);
},
{
closed = 1;
nodes = (
"517 -331 LINE",
"621 -331 LINE",
"621 -234 LINE",
"517 -234 LINE"
);
},
{
closed = 1;
nodes = (
"310 -331 LINE",
"414 -331 LINE",
"414 -234 LINE",
"310 -234 LINE"
);
},
{
closed = 1;
nodes = (
"103 -331 LINE",
"207 -331 LINE",
"207 -234 LINE",
"103 -234 LINE"
);
},
{
closed = 1;
nodes = (
"0 -523 LINE",
"103 -523 LINE",
"103 -427 LINE",
"0 -427 LINE"
);
},
{
closed = 1;
nodes = (
"207 -523 LINE",
"310 -523 LINE",
"310 -427 LINE",
"207 -427 LINE"
);
},
{
closed = 1;
nodes = (
"414 -523 LINE",
"517 -523 LINE",
"517 -427 LINE",
"414 -427 LINE"
);
},
{
closed = 1;
nodes = (
"621 -523 LINE",
"725 -523 LINE",
"725 -427 LINE",
"621 -427 LINE"
);
},
{
closed = 1;
nodes = (
"829 -523 LINE",
"933 -523 LINE",
"933 -427 LINE",
"829 -427 LINE"
);
},
{
closed = 1;
nodes = (
"1037 -523 LINE",
"1140 -523 LINE",
"1140 -427 LINE",
"1037 -427 LINE"
);
},
{
closed = 1;
nodes = (
"0 1408 LINE",
"103 1408 LINE",
"103 1506 LINE",
"0 1506 LINE"
);
},
{
closed = 1;
nodes = (
"207 1408 LINE",
"310 1408 LINE",
"310 1506 LINE",
"207 1506 LINE"
);
},
{
closed = 1;
nodes = (
"414 1408 LINE",
"517 1408 LINE",
"517 1506 LINE",
"414 1506 LINE"
);
},
{
closed = 1;
nodes = (
"621 1408 LINE",
"725 1408 LINE",
"725 1506 LINE",
"621 1506 LINE"
);
},
{
closed = 1;
nodes = (
"829 1408 LINE",
"933 1408 LINE",
"933 1506 LINE",
"829 1506 LINE"
);
},
{
closed = 1;
nodes = (
"1037 1408 LINE",
"1140 1408 LINE",
"1140 1506 LINE",
"1037 1506 LINE"
);
},
{
closed = 1;
nodes = (
"103 1603 LINE",
"207 1603 LINE",
"207 1699 LINE",
"103 1699 LINE"
);
},
{
closed = 1;
nodes = (
"310 1603 LINE",
"414 1603 LINE",
"414 1699 LINE",
"310 1699 LINE"
);
},
{
closed = 1;
nodes = (
"517 1603 LINE",
"621 1603 LINE",
"621 1699 LINE",
"517 1699 LINE"
);
},
{
closed = 1;
nodes = (
"725 1603 LINE",
"829 1603 LINE",
"829 1699 LINE",
"725 1699 LINE"
);
},
{
closed = 1;
nodes = (
"933 1603 LINE",
"1037 1603 LINE",
"1037 1699 LINE",
"933 1699 LINE"
);
},
{
closed = 1;
nodes = (
"1140 1603 LINE",
"1244 1603 LINE",
"1244 1699 LINE",
"1140 1699 LINE"
);
},
{
closed = 1;
nodes = (
"1347 1216 LINE",
"1451 1216 LINE",
"1451 1314 LINE",
"1347 1314 LINE"
);
},
{
closed = 1;
nodes = (
"1244 1023 LINE",
"1347 1023 LINE",
"1347 1119 LINE",
"1244 1119 LINE"
);
},
{
closed = 1;
nodes = (
"1347 831 LINE",
"1451 831 LINE",
"1451 927 LINE",
"1347 927 LINE"
);
},
{
closed = 1;
nodes = (
"1244 636 LINE",
"1347 636 LINE",
"1347 732 LINE",
"1244 732 LINE"
);
},
{
closed = 1;
nodes = (
"1347 444 LINE",
"1451 444 LINE",
"1451 540 LINE",
"1347 540 LINE"
);
},
{
closed = 1;
nodes = (
"1244 249 LINE",
"1347 249 LINE",
"1347 345 LINE",
"1244 345 LINE"
);
},
{
closed = 1;
nodes = (
"1347 56 LINE",
"1451 56 LINE",
"1451 153 LINE",
"1347 153 LINE"
);
},
{
closed = 1;
nodes = (
"1244 -136 LINE",
"1347 -136 LINE",
"1347 -42 LINE",
"1244 -42 LINE"
);
},
{
closed = 1;
nodes = (
"1347 -331 LINE",
"1451 -331 LINE",
"1451 -234 LINE",
"1347 -234 LINE"
);
},
{
closed = 1;
nodes = (
"1244 -523 LINE",
"1347 -523 LINE",
"1347 -427 LINE",
"1244 -427 LINE"
);
},
{
closed = 1;
nodes = (
"1244 1408 LINE",
"1347 1408 LINE",
"1347 1506 LINE",
"1244 1506 LINE"
);
},
{
closed = 1;
nodes = (
"1347 1603 LINE",
"1451 1603 LINE",
"1451 1699 LINE",
"1347 1699 LINE"
);
}
);
width = 1451;
}
);
note = shade;
unicode = 2592;
},
{
glyphname = dkshade;
lastChange = "2019-12-18 23:13:52 +0000";
layers = (
{
layerId = "E3E67A92-B1FB-4433-B88A-D288516649AC";
paths = (
{
closed = 1;
nodes = (
"1493 -523 LINE",
"1386 -523 LINE",
"1386 -427 LINE",
"1493 -427 LINE",
"1493 -136 LINE",
"1386 -136 LINE",
"1386 -42 LINE",
"1493 -42 LINE",
"1493 249 LINE",
"1386 249 LINE",
"1386 345 LINE",
"1493 345 LINE",
"1493 636 LINE",
"1386 636 LINE",
"1386 732 LINE",
"1493 732 LINE",
"1493 1023 LINE",
"1386 1023 LINE",
"1386 1119 LINE",
"1493 1119 LINE",
"1493 1408 LINE",
"1386 1408 LINE",
"1386 1506 LINE",
"1493 1506 LINE",
"1493 1699 LINE",
"1386 1699 LINE",
"1386 1603 LINE",
"1280 1603 LINE",
"1280 1699 LINE",
"1173 1699 LINE",
"1173 1603 LINE",
"1067 1603 LINE",
"1067 1699 LINE",
"960 1699 LINE",
"960 1603 LINE",
"853 1603 LINE",
"853 1699 LINE",
"746 1699 LINE",
"746 1603 LINE",
"639 1603 LINE",
"639 1699 LINE",
"532 1699 LINE",
"532 1603 LINE",
"426 1603 LINE",
"426 1699 LINE",
"319 1699 LINE",
"319 1603 LINE",
"213 1603 LINE",
"213 1699 LINE",
"106 1699 LINE",
"106 1603 LINE",
"0 1603 LINE",
"0 1314 LINE",
"106 1314 LINE",
"106 1216 LINE",
"0 1216 LINE",
"0 927 LINE",
"106 927 LINE",
"106 829 LINE",
"0 829 LINE",
"0 540 LINE",
"106 540 LINE",
"106 444 LINE",
"0 444 LINE",
"0 153 LINE",
"106 153 LINE",
"106 56 LINE",
"0 56 LINE",
"0 -234 LINE",
"106 -234 LINE",
"106 -331 LINE",
"0 -331 LINE",
"0 -621 LINE",
"1493 -621 LINE"
);
},
{
closed = 1;
nodes = (
"213 1119 LINE",
"213 1023 LINE",
"106 1023 LINE",
"106 1119 LINE"
);
},
{
closed = 1;
nodes = (
"426 1119 LINE",
"426 1023 LINE",
"319 1023 LINE",
"319 1119 LINE"
);
},
{
closed = 1;
nodes = (
"639 1119 LINE",
"639 1023 LINE",
"532 1023 LINE",
"532 1119 LINE"
);
},
{
closed = 1;
nodes = (
"853 1119 LINE",
"853 1023 LINE",
"746 1023 LINE",
"746 1119 LINE"
);
},
{
closed = 1;
nodes = (
"960 829 LINE",
"853 829 LINE",
"853 927 LINE",
"960 927 LINE"
);
},
{
closed = 1;
nodes = (
"746 829 LINE",
"639 829 LINE",
"639 927 LINE",
"746 927 LINE"
);
},
{
closed = 1;
nodes = (
"532 829 LINE",
"426 829 LINE",
"426 927 LINE",
"532 927 LINE"
);
},
{
closed = 1;
nodes = (
"319 829 LINE",
"213 829 LINE",
"213 927 LINE",
"319 927 LINE"
);
},
{
closed = 1;
nodes = (
"213 732 LINE",
"213 636 LINE",
"106 636 LINE",
"106 732 LINE"
);
},
{
closed = 1;
nodes = (
"426 732 LINE",
"426 636 LINE",
"319 636 LINE",
"319 732 LINE"
);
},
{
closed = 1;
nodes = (
"639 732 LINE",
"639 636 LINE",
"532 636 LINE",
"532 732 LINE"
);
},
{
closed = 1;
nodes = (
"853 732 LINE",
"853 636 LINE",
"746 636 LINE",
"746 732 LINE"
);
},
{
closed = 1;
nodes = (
"319 444 LINE",
"213 444 LINE",
"213 540 LINE",
"319 540 LINE"
);
},
{
closed = 1;
nodes = (
"532 540 LINE",
"532 444 LINE",
"426 444 LINE",
"426 540 LINE"
);
},
{
closed = 1;
nodes = (
"746 540 LINE",
"746 444 LINE",
"639 444 LINE",
"639 540 LINE"
);
},
{
closed = 1;
nodes = (
"960 540 LINE",
"960 444 LINE",
"853 444 LINE",
"853 540 LINE"
);
},
{
closed = 1;
nodes = (
"213 345 LINE",
"213 249 LINE",
"106 249 LINE",
"106 345 LINE"
);
},
{
closed = 1;
nodes = (
"639 345 LINE",
"639 249 LINE",
"532 249 LINE",
"532 345 LINE"
);
},
{
closed = 1;
nodes = (
"319 249 LINE",
"319 345 LINE",
"426 345 LINE",
"426 249 LINE"
);
},
{
closed = 1;
nodes = (
"853 345 LINE",
"853 249 LINE",
"746 249 LINE",
"746 345 LINE"
);
},
{
closed = 1;
nodes = (
"853 56 LINE",
"853 153 LINE",
"960 153 LINE",
"960 56 LINE"
);
},
{
closed = 1;
nodes = (
"639 56 LINE",
"639 153 LINE",
"746 153 LINE",
"746 56 LINE"
);
},
{
closed = 1;
nodes = (
"426 56 LINE",
"426 153 LINE",
"532 153 LINE",
"532 56 LINE"
);
},
{
closed = 1;
nodes = (
"213 56 LINE",
"213 153 LINE",
"319 153 LINE",
"319 56 LINE"
);
},
{
closed = 1;
nodes = (
"213 -42 LINE",
"213 -136 LINE",
"106 -136 LINE",
"106 -42 LINE"
);
},
{
closed = 1;
nodes = (
"426 -42 LINE",
"426 -136 LINE",
"319 -136 LINE",
"319 -42 LINE"
);
},
{
closed = 1;
nodes = (
"639 -42 LINE",
"639 -136 LINE",
"532 -136 LINE",
"532 -42 LINE"
);
},
{
closed = 1;
nodes = (
"853 -42 LINE",
"853 -136 LINE",
"746 -136 LINE",
"746 -42 LINE"
);
},
{
closed = 1;
nodes = (
"853 -331 LINE",
"853 -234 LINE",
"960 -234 LINE",
"960 -331 LINE"
);
},
{
closed = 1;
nodes = (
"639 -331 LINE",
"639 -234 LINE",
"746 -234 LINE",
"746 -331 LINE"
);
},
{
closed = 1;
nodes = (
"426 -331 LINE",
"426 -234 LINE",
"532 -234 LINE",
"532 -331 LINE"
);
},
{
closed = 1;
nodes = (
"213 -331 LINE",
"213 -234 LINE",
"319 -234 LINE",
"319 -331 LINE"
);
},
{
closed = 1;
nodes = (
"213 -427 LINE",
"213 -523 LINE",
"106 -523 LINE",
"106 -427 LINE"
);
},
{
closed = 1;
nodes = (
"426 -427 LINE",
"426 -523 LINE",
"319 -523 LINE",
"319 -427 LINE"
);
},
{
closed = 1;
nodes = (
"639 -427 LINE",
"639 -523 LINE",
"532 -523 LINE",
"532 -427 LINE"
);
},
{
closed = 1;
nodes = (
"853 -427 LINE",
"853 -523 LINE",
"746 -523 LINE",
"746 -427 LINE"
);
},
{
closed = 1;
nodes = (
"960 1216 LINE",
"853 1216 LINE",
"853 1314 LINE",
"960 1314 LINE"
);
},
{
closed = 1;
nodes = (
"746 1216 LINE",
"639 1216 LINE",
"639 1314 LINE",
"746 1314 LINE"
);
},
{
closed = 1;
nodes = (
"532 1216 LINE",
"426 1216 LINE",
"426 1314 LINE",
"532 1314 LINE"
);
},
{
closed = 1;
nodes = (
"319 1216 LINE",
"213 1216 LINE",
"213 1314 LINE",
"319 1314 LINE"
);
},
{
closed = 1;
nodes = (
"853 1408 LINE",
"746 1408 LINE",
"746 1506 LINE",
"853 1506 LINE"
);
},
{
closed = 1;
nodes = (
"639 1408 LINE",
"532 1408 LINE",
"532 1506 LINE",
"639 1506 LINE"
);
},
{
closed = 1;
nodes = (
"426 1408 LINE",
"319 1408 LINE",
"319 1506 LINE",
"426 1506 LINE"
);
},
{
closed = 1;
nodes = (
"213 1408 LINE",
"106 1408 LINE",
"106 1506 LINE",
"213 1506 LINE"
);
},
{
closed = 1;
nodes = (
"1067 1119 LINE",
"1067 1023 LINE",
"960 1023 LINE",
"960 1119 LINE"
);
},
{
closed = 1;
nodes = (
"1280 1119 LINE",
"1280 1023 LINE",
"1173 1023 LINE",
"1173 1119 LINE"
);
},
{
closed = 1;
nodes = (
"1386 829 LINE",
"1280 829 LINE",
"1280 927 LINE",
"1386 927 LINE"
);
},
{
closed = 1;
nodes = (
"1173 829 LINE",
"1067 829 LINE",
"1067 927 LINE",
"1173 927 LINE"
);
},
{
closed = 1;
nodes = (
"1067 732 LINE",
"1067 636 LINE",
"960 636 LINE",
"960 732 LINE"
);
},
{
closed = 1;
nodes = (
"1280 732 LINE",
"1280 636 LINE",
"1173 636 LINE",
"1173 732 LINE"
);
},
{
closed = 1;
nodes = (
"1173 444 LINE",
"1067 444 LINE",
"1067 540 LINE",
"1173 540 LINE"
);
},
{
closed = 1;
nodes = (
"1386 540 LINE",
"1386 444 LINE",
"1280 444 LINE",
"1280 540 LINE"
);
},
{
closed = 1;
nodes = (
"1067 345 LINE",
"1067 249 LINE",
"960 249 LINE",
"960 345 LINE"
);
},
{
closed = 1;
nodes = (
"1173 249 LINE",
"1173 345 LINE",
"1280 345 LINE",
"1280 249 LINE"
);
},
{
closed = 1;
nodes = (
"1280 56 LINE",
"1280 153 LINE",
"1386 153 LINE",
"1386 56 LINE"
);
},
{
closed = 1;
nodes = (
"1067 56 LINE",
"1067 153 LINE",
"1173 153 LINE",
"1173 56 LINE"
);
},
{
closed = 1;
nodes = (
"1067 -42 LINE",
"1067 -136 LINE",
"960 -136 LINE",
"960 -42 LINE"
);
},
{
closed = 1;
nodes = (
"1280 -42 LINE",
"1280 -136 LINE",
"1173 -136 LINE",
"1173 -42 LINE"
);
},
{
closed = 1;
nodes = (
"1280 -331 LINE",
"1280 -234 LINE",
"1386 -234 LINE",
"1386 -331 LINE"
);
},
{
closed = 1;
nodes = (
"1067 -331 LINE",
"1067 -234 LINE",
"1173 -234 LINE",
"1173 -331 LINE"
);
},
{
closed = 1;
nodes = (
"1067 -427 LINE",
"1067 -523 LINE",
"960 -523 LINE",
"960 -427 LINE"
);
},
{
closed = 1;
nodes = (
"1280 -427 LINE",
"1280 -523 LINE",
"1173 -523 LINE",
"1173 -427 LINE"
);
},
{
closed = 1;
nodes = (
"1386 1216 LINE",
"1280 1216 LINE",
"1280 1314 LINE",
"1386 1314 LINE"
);
},
{
closed = 1;
nodes = (
"1173 1216 LINE",
"1067 1216 LINE",
"1067 1314 LINE",
"1173 1314 LINE"
);
},
{
closed = 1;
nodes = (
"1280 1408 LINE",
"1173 1408 LINE",
"1173 1506 LINE",
"1280 1506 LINE"
);
},
{
closed = 1;
nodes = (
"1067 1408 LINE",
"960 1408 LINE",
"960 1506 LINE",
"1067 1506 LINE"
);
}
);
width = 1493;
}
);
note = dkshade;
unicode = 2593;
},
{
glyphname = filledbox;
lastChange = "2019-12-18 23:13:52 +0000";
layers = (
{
layerId = "E3E67A92-B1FB-4433-B88A-D288516649AC";
paths = (
{
closed = 1;
nodes = (
"123 117 LINE",
"1114 117 LINE",
"1114 1108 LINE",
"123 1108 LINE"
);
}
);
width = 1237;
}
);
note = filledbox;
unicode = 25A0;
},
{
glyphname = filledrect;
lastChange = "2019-12-18 23:13:52 +0000";
layers = (
{
layerId = "E3E67A92-B1FB-4433-B88A-D288516649AC";
paths = (
{
closed = 1;
nodes = (
"0 0 LINE",
"2048 0 LINE",
"2048 616 LINE",
"0 616 LINE"
);
}
);
width = 2048;
}
);
note = filledrect;
unicode = 25AC;
},
{
glyphname = triagup;
lastChange = "2019-12-18 23:13:52 +0000";
layers = (
{
layerId = "E3E67A92-B1FB-4433-B88A-D288516649AC";
paths = (
{
closed = 1;
nodes = (
"1612 0 LINE",
"1014 1198 LINE",
"414 0 LINE"
);
}
);
width = 2027;
}
);
note = triagup;
unicode = 25B2;
},
{
glyphname = triagrt;
lastChange = "2019-12-18 23:13:52 +0000";
layers = (
{
layerId = "E3E67A92-B1FB-4433-B88A-D288516649AC";
paths = (
{
closed = 1;
nodes = (
"401 -27 LINE",
"1626 586 LINE",
"401 1196 LINE"
);
}
);
width = 2027;
}
);
note = triagrt;
unicode = 25BA;
},
{
glyphname = triagdn;
lastChange = "2019-12-18 23:13:52 +0000";
layers = (
{
layerId = "E3E67A92-B1FB-4433-B88A-D288516649AC";
paths = (
{
closed = 1;
nodes = (
"414 1171 LINE",
"1014 -27 LINE",
"1612 1171 LINE"
);
}
);
width = 2027;
}
);
note = triagdn;
unicode = 25BC;
},
{
glyphname = triaglf;
lastChange = "2019-12-18 23:13:52 +0000";
layers = (
{
layerId = "E3E67A92-B1FB-4433-B88A-D288516649AC";
paths = (
{
closed = 1;
nodes = (
"401 586 LINE",
"1626 -27 LINE",
"1626 1196 LINE"
);
}
);
width = 2027;
}
);
note = triaglf;
unicode = 25C4;
},
{
glyphname = circle;
lastChange = "2019-12-18 23:13:52 +0000";
layers = (
{
layerId = "E3E67A92-B1FB-4433-B88A-D288516649AC";
paths = (
{
closed = 1;
nodes = (
"167 490 OFFCURVE",
"287 282 OFFCURVE",
"495 162 OFFCURVE",
"617 162 QCURVE SMOOTH",
"740 162 OFFCURVE",
"949 282 OFFCURVE",
"1070 491 OFFCURVE",
"1070 612 QCURVE SMOOTH",
"1070 733 OFFCURVE",
"949 944 OFFCURVE",
"739 1065 OFFCURVE",
"617 1065 QCURVE SMOOTH",
"496 1065 OFFCURVE",
"287 944 OFFCURVE",
"167 734 OFFCURVE",
"167 612 QCURVE SMOOTH"
);
},
{
closed = 1;
nodes = (
"253 712 OFFCURVE",
"351 881 OFFCURVE",
"520 979 OFFCURVE",
"617 979 QCURVE SMOOTH",
"715 979 OFFCURVE",
"886 881 OFFCURVE",
"984 710 OFFCURVE",
"984 612 QCURVE SMOOTH",
"984 514 OFFCURVE",
"884 344 OFFCURVE",
"715 248 OFFCURVE",
"617 248 QCURVE SMOOTH",
"518 248 OFFCURVE",
"351 345 OFFCURVE",
"253 514 OFFCURVE",
"253 612 QCURVE SMOOTH"
);
}
);
width = 1237;
}
);
note = circle;
unicode = 25CB;
},
{
glyphname = invbullet;
lastChange = "2019-12-18 23:13:52 +0000";
layers = (
{
layerId = "E3E67A92-B1FB-4433-B88A-D288516649AC";
paths = (
{
closed = 1;
nodes = (
"1196 0 LINE",
"1196 1155 LINE",
"41 1155 LINE",
"41 0 LINE"
);
},
{
closed = 1;
nodes = (
"176 695 OFFCURVE",
"293 899 OFFCURVE",
"498 1018 OFFCURVE",
"616 1018 QCURVE SMOOTH",
"735 1018 OFFCURVE",
"939 900 OFFCURVE",
"1057 695 OFFCURVE",
"1057 577 QCURVE SMOOTH",
"1057 460 OFFCURVE",
"939 255 OFFCURVE",
"734 137 OFFCURVE",
"616 137 QCURVE SMOOTH",
"497 137 OFFCURVE",
"294 255 OFFCURVE",
"176 459 OFFCURVE",
"176 577 QCURVE SMOOTH"
);
}
);
width = 1237;
}
);
note = invbullet;
unicode = 25D8;
},
{
glyphname = invcircle;
lastChange = "2019-12-18 23:13:52 +0000";
layers = (
{
layerId = "E3E67A92-B1FB-4433-B88A-D288516649AC";
paths = (
{
closed = 1;
nodes = (
"1196 0 LINE",
"1196 1155 LINE",
"41 1155 LINE",
"41 0 LINE"
);
},
{
closed = 1;
nodes = (
"253 480 OFFCURVE",
"351 310 OFFCURVE",
"521 212 OFFCURVE",
"618 212 QCURVE SMOOTH",
"715 212 OFFCURVE",
"885 310 OFFCURVE",
"983 480 OFFCURVE",
"983 577 QCURVE SMOOTH",
"983 674 OFFCURVE",
"885 844 OFFCURVE",
"715 942 OFFCURVE",
"618 942 QCURVE SMOOTH",
"521 942 OFFCURVE",
"351 844 OFFCURVE",
"253 674 OFFCURVE",
"253 577 QCURVE SMOOTH"
);
},
{
closed = 1;
nodes = (
"176 695 OFFCURVE",
"293 899 OFFCURVE",
"498 1018 OFFCURVE",
"616 1018 QCURVE SMOOTH",
"735 1018 OFFCURVE",
"939 900 OFFCURVE",
"1057 695 OFFCURVE",
"1057 577 QCURVE SMOOTH",
"1057 460 OFFCURVE",
"939 255 OFFCURVE",
"734 137 OFFCURVE",
"616 137 QCURVE SMOOTH",
"497 137 OFFCURVE",
"294 255 OFFCURVE",
"176 459 OFFCURVE",
"176 577 QCURVE SMOOTH"
);
}
);
width = 1237;
}
);
note = invcircle;
unicode = 25D9;
},
{
glyphname = smileface;
lastChange = "2019-12-18 23:13:52 +0000";
layers = (
{
layerId = "E3E67A92-B1FB-4433-B88A-D288516649AC";
paths = (
{
closed = 1;
nodes = (
"1657 833 OFFCURVE",
"1303 1196 OFFCURVE",
"1045 1196 QCURVE SMOOTH",
"787 1196 OFFCURVE",
"433 834 OFFCURVE",
"433 584 QCURVE SMOOTH",
"434 331 OFFCURVE",
"792 -27 OFFCURVE",
"1045 -27 QCURVE SMOOTH",
"1297 -26 OFFCURVE",
"1657 330 OFFCURVE",
"1657 584 QCURVE SMOOTH"
);
},
{
closed = 1;
nodes = (
"1566 369 OFFCURVE",
"1262 61 OFFCURVE",
"1045 61 QCURVE SMOOTH",
"829 62 OFFCURVE",
"523 368 OFFCURVE",
"523 584 QCURVE SMOOTH",
"523 801 OFFCURVE",
"676 954 QCURVE SMOOTH",
"827 1108 OFFCURVE",
"1045 1108 QCURVE SMOOTH",
"1261 1107 OFFCURVE",
"1567 801 OFFCURVE",
"1567 584 QCURVE SMOOTH"
);
},
{
closed = 1;
nodes = (
"889 743 OFFCURVE",
"843 788 OFFCURVE",
"811 788 QCURVE SMOOTH",
"779 788 OFFCURVE",
"734 743 OFFCURVE",
"734 711 QCURVE SMOOTH",
"734 679 OFFCURVE",
"779 633 OFFCURVE",
"811 633 QCURVE SMOOTH",
"843 633 OFFCURVE",
"889 679 OFFCURVE",
"889 711 QCURVE SMOOTH"
);
},
{
closed = 1;
nodes = (
"1356 743 OFFCURVE",
"1312 788 OFFCURVE",
"1280 788 QCURVE SMOOTH",
"1248 788 OFFCURVE",
"1201 743 OFFCURVE",
"1201 711 QCURVE SMOOTH",
"1201 679 OFFCURVE",
"1248 633 OFFCURVE",
"1280 633 QCURVE SMOOTH",
"1312 633 OFFCURVE",
"1356 679 OFFCURVE",
"1356 711 QCURVE SMOOTH"
);
},
{
closed = 1;
nodes = (
"762 387 LINE",
"860 201 OFFCURVE",
"1045 201 QCURVE SMOOTH",
"1230 201 OFFCURVE",
"1328 387 QCURVE",
"1266 422 LINE",
"1190 285 OFFCURVE",
"1045 285 QCURVE SMOOTH",
"898 285 OFFCURVE",
"822 422 QCURVE"
);
}
);
width = 2091;
}
);
note = smileface;
unicode = 263A;
},
